<?xml version="1.0" encoding="utf-8"?>
<!-- Generator: Adobe Illustrator 23.0.5, SVG Export Plug-In . SVG Version: 6.00 Build 0)  -->
<svg version="1.1" id="Layer_1" xmlns="http://www.w3.org/2000/svg" xmlns:xlink="http://www.w3.org/1999/xlink" x="0px" y="0px"
	 viewBox="0 0 2857 2515" style="enable-background:new 0 0 2857 2515;" xml:space="preserve">
<style type="text/css">
	.st0{fill:#F4F4F4;}
	.st1{fill:#FFF8EE;}
	.st2{fill:#DEA912;}
	.st3{fill:#00594C;}
	.st4{fill:#5B7671;}
	.st5{fill:#62987C;}
	.st6{fill:#2B3E3B;}
	.st7{fill:#FFFFFF;}
	.st8{fill:#FCD2B1;}
	.st9{fill:#FDFDFD;}
	.st10{fill:#F7C4A0;}
	.st11{fill:#FEE2CA;}
	.st12{fill:#FFBE55;}
	.st13{fill:#FEF8EE;}
	.st14{fill:#9ACEF7;}
	.st15{fill:#2B94F4;}
</style>
<g>
	<g>
		<path class="st0" d="M2668.1,2352c32.7,0,65.3,0,98,0c15.3,0,25.8,10,25.9,25.4c0.2,34.3,0.1,68.7,0,103
			c0,15.3-11.9,23.4-26.8,25.6c-2.6,0.4-5.3,0.1-8,0.1c-888.8,0-1777.7,0-2666.6,0.1c-10.8,0-20.3-1.9-28-10.2
			c-4.4-4.7-6.6-10-6.6-16.1c-0.1-34.3-0.2-68.7,0-103c0.1-14.1,11.4-24.6,25.8-24.7c34-0.1,68-0.1,102-0.1
			c0,11.6-0.4,23.2,0.3,34.8c0.5,8.5,2.5,16.8,3.9,25.3c0.5,13.7,6.1,25.9,12.7,37.4c10.2,17.7,25.9,27.6,46.4,28.3
			c24.2,0.8,42.2-10,53.7-31.3c10.4-19.5,13.5-40.8,15-62.5c0.7-10.6,0.2-21.3,0.3-32c112.8,0,225.7,0,339.9,0
			c0-152.7,0-304.1,0-455.6c2.8-4.8,1.2-8.6-2.6-11.9c0.9-2.7,2.5-5.4,2.5-8.1c0.1-60.8,0.1-121.6,0-182.4c0-2.7-1.5-5.4-2.3-8.2
			c3.9-2.8,4.9-6.3,2.4-10.6c0-79.2,0-158.4,0-237.7c2.7-4.6,1.7-8.3-2.6-11.2c0.9-3,2.3-6,2.5-9.1c0.3-9,0.1-18,0.1-27
			c-0.1-60.3-0.1-120.6-0.2-180.9c0.1-4.4,0.1-8.9,0.2-13.3c0-172.6,0-345.2,0-517.7c28.7,21.2,57.5,42.5,86.2,63.7
			c-0.7,3.1-2,6.2-2,9.3c-0.1,106.7,0,213.4,0,320.1c-2.6,2.1-5.2,4.2-7.7,6.3c-28.7,23.3-48.1,52.5-55.3,88.9
			c-5.9,29.9,2.7,54.8,28.4,72.4c8.2,5.6,17.3,10,26.1,14.6c4.7,2.4,9.7,4.2,14.5,6.3c-3.2,0.2-6.1,0.6-6,4.8c0.1,3,0,6,0,9
			c0,218.9,0,437.7,0,656.6c0,119.6,0,239.2,0,358.8c0,3.9,0,7.8,0,12.9c71.5,0,141.7,0,211.9,0c1.4,14.1,2.8,28.1,4.2,42.1
			c-1.8,35.3-0.9,94,1.4,101.1c4.6,0,9.1,0,14.7,0c0-13,0-25.4,0-39.2c8,6.8,12.7,12.9,11.7,22.3c-0.6,5.5-0.1,11.1-0.1,17.1
			c7.4,0.2,14,3.2,18.7-5.9c2.6,7.4,8.2,6.5,13.5,6.5c40,0,79.9,0,119.9,0c2.1,0,4.2,0,6.3,0c-12-9.6-24.2-17.5-36.7-25
			c-13.9-8.4-25.5-19-34.6-32.5c-10.4-15.4-21.2-30.6-31.9-45.9c0.3-3.9,0.4-7.8,0.9-11.7c1.1-9.6,2.4-19.2,3.6-28.8
			c163.1,0,326.2,0,489.3,0c0.1,1.6,0.3,3.3,0.2,4.9c-0.9,25.1-1.8,50.1-2.7,75.2c-0.6,0.6-1.3,1.2-1.9,1.7
			c-46.1,20.2-92.2,40.5-140.3,61.6c32.2,2.1,202.4,1.2,210.6-1.2c-1.7-20.1-3.3-40.3-5-60.5c0.3-0.5,0.3-1,0-1.5
			c2.1-9,4.2-18,6.2-27.1c3.9-17.7,7.8-35.4,11.7-53.1c56.8,0,113.7-0.1,170.5-0.1c1.9,7.4,3.9,14.7,5.6,22.1
			c4.6,19.4,9.1,38.7,13.7,58.1c-3.3,2-6.5,4.5-10.1,6c-39.6,17.4-79.2,34.6-118.8,51.9c-3.2,1.4-6.2,3-11.2,5.4
			c71.2,0,140.2,0,209.1,0c-1-21.6-2-42.4-3-63.3c0.1-5.3,0.4-10.5,0.3-15.8c-0.4-21.4-1-42.9-1.5-64.3
			c68.3-0.1,136.6-0.3,204.9-0.5c0.3,0,0.6-0.2,0.9-0.4c0.3-0.2,0.5-0.5,1.7-1.7c0-3.6,0-8.2,0-12.8c0-302.5,0-605.1,0-907.6
			c0-256.9,0-513.8,0-770.7c5.7-0.1,11.3-0.3,17-0.3c22.3-0.2,44.6-0.4,66.9-0.7c0,68.4,0.1,136.8,0.1,205.3c0,4.7,0.1,9.3,0.2,13.9
			c0,2.2,0,4.5,0,6.7c-0.1,4-0.2,8-0.2,12c0,64.9,0,129.7,0,194.6c0,4.3,0.2,8.6,0.3,13c-0.1,2.3-0.1,4.6-0.2,6.9
			c0,30.7-0.1,61.3-0.1,92c0,39,0.1,78,0.2,117c0,2.3,0,4.6,0,6.9c0,72.9-0.1,145.8-0.1,218.8c0.2,2.1,0.4,4.3,0.5,6.4
			c-0.2,4.3-0.6,8.6-0.6,13c0,275.3,0,550.5,0,825.8c0,3.6,0,7.2,0,11.9c4,0.3,7.2,0.7,10.4,0.7c104.3,0,208.6,0,312.9,0
			c0.9,12.6,1.4,25.1,2.7,37.6c2.2,22.6,7.3,44.3,17.9,64.7c12.6,24.2,30.9,40.6,58.4,44.7c22.4,3.3,43.4-0.2,62.3-14.1
			c15.8-11.6,24.4-27.9,31.1-45.3c3.9-10.1,5.6-21,8.3-31.6c0.6-1.5,1.7-3,1.9-4.6C2665.3,2386.3,2666.6,2369.1,2668.1,2352z"/>
		<path class="st1" d="M1031.9,451.7c1.4,0.8,2.7,1.9,4.2,2.2c1.9,0.4,4,0.1,6,0.1c227.1,0,454.3,0,681.4,0c0.2,3.6,0.4,7.3,0.4,11
			c0,23.6,0.4,47.3-0.1,70.9c-0.8,41.2,33.6,73.2,71.9,72.2c5.2-0.1,10.4,0,17.1,0c-2.3,4.7-3.8,8-5.6,11
			c-7.5,13-15.2,25.8-22.5,38.9c-1.4,2.4-1.8,5.4-2.7,8.1c-0.4,0.2-0.8,0.5-1.2,0.7c0.2,0,0.5,0.1,0.6,0c0.2-0.2,0.3-0.5,0.4-0.8
			c2.8-1.7,5.7-3.3,8.4-5.2c22.8-16.1,45.4-32.4,68.3-48.4c3.1-2.2,7.1-4.2,10.7-4.2c42.2-0.2,84.4,0,126.6,0.1c0,36,0,72-0.1,108
			c0,3.9-0.4,8.1-2,11.6c-6.1,13.3-16.5,20.2-31.5,20.2c-49.3-0.1-98.6,0-147.9,0c0.2-1.3,0.2-2.6,0.5-3.9
			c3.2-16.1,1.3-20.4-13.3-28c-13.4-7-24-16.8-31.1-30c-10.8-20.2-28.9-29.7-55.6-24.9c-15.9,2.9-30.6,9-45,15.9
			c-9.3,4.5-17.8,4.1-26.6-0.9c-6.9-3.9-13.9-7.9-21.2-11.1c-18.3-8.1-33.1-3.7-44.3,12.7c-6.5,9.5-7.4,19.6-0.6,28.9
			c4.6,6.3,10.6,12,16.8,16.8c6.2,4.8,13.5,8.3,20.3,12.4c-3.4,4-6.8,8.1-10.2,12.2c-159.5,0-319,0-478.5,0.1
			c-3.8,0-7.7,1.1-11.5,1.6c-9.6-4.9-17.2-11.8-24.1-20.1c-7.4-8.8-16.1-16.8-25.3-23.7c-14.8-11.3-32.2-15.9-50.7-13.3
			c-11.1,1.6-22.1,4.6-32.6,8.5c-28.3,10.5-53.7,26-75.5,46.9c-18.3,0-36.5,0.1-54.8-0.1c-3.9,0-7.9-0.8-11.5-2.2
			c-15.1-5.9-21.4-17.9-21.6-33.5c-0.2-17.6-0.1-35.2-0.2-52.8c30.2-11,56.6-27.5,76.9-53c21.6-27.1,33.2-58,35.2-92.5
			c1.2-20.5-2.5-40.3-7.9-59.9c31.9,0,63.8,0.1,95.6-0.1c3.8,0,7.7-1.2,11.6-1.8C1030.2,452,1031,451.8,1031.9,451.7z"/>
		<path class="st2" d="M922.1,454c5.4,19.6,9.1,39.4,7.9,59.9c-2,34.6-13.6,65.4-35.2,92.5c-20.3,25.5-46.7,42-76.9,53
			c-29.5,8.7-60.1,6.1-91.9,6.7c11.7,19.3,22.6,36.8,33,54.5c10.3,17.5,21.5,34.4,30.4,52.9c-4.4-1.7-7.9-4-11.4-6.5
			c-12-8.4-23.9-16.8-35.8-25.2c-28.7-21.2-57.5-42.5-86.2-63.7c-4.2-3.3-8-7-12.6-9.7c-2.9-1.7-6.8-2.4-10.3-2.4
			c-17-0.2-34-0.3-51-0.1c-74.5,0.8-139.7-50-157.2-123.1c-16.2-67.3,13.3-137.1,72.1-173.3c26.1-16.1,54.7-23.7,85.4-23.7
			c61.9,0.1,123.9,0.4,185.8-0.1c68-0.5,127.8,41.7,150.9,101.8C920,449.8,921.1,451.9,922.1,454z"/>
		<path class="st2" d="M1412.5,188.2c4.7-16.3,9.7-32.4,18.8-47c25.4-40.3,61.2-65,108.8-71.4c8.2-1.1,16.6-1.6,24.8-1.6
			c53.3-0.1,106.6-0.1,159.9-0.1c46.2,0,85.1,16.8,115.7,51.5c20.4,23.1,32.2,50.1,35.8,80.8c5.1,44.8-8.3,83.6-37.7,116.9
			c-22.1,25-50.2,40.4-83,46.4c-10.4,1.9-21.2,2.3-31.8,2.4c-32,0.3-64,0.1-95.9,0.1c-3.6,0-7.2,0-12.6,0
			c9.2,17.7,17.8,34.1,26.6,51.1c-4.4,1-6.8-1.7-9.4-3.3c-23.1-14.6-46-29.4-69.2-43.8c-3.5-2.2-7.8-3.7-11.9-4
			c-55-4.4-96-30.7-123.4-78.4c-1.5-2.6-2.9-5.2-4.4-7.8c-9-22.1-14.6-44.9-13.4-69C1410.7,203.4,1411.7,195.8,1412.5,188.2z"/>
		<path class="st2" d="M1996,608.3c-42.2-0.1-84.4-0.3-126.6-0.1c-3.6,0-7.6,2-10.7,4.2c-22.9,16-45.6,32.2-68.3,48.4
			c-2.7,1.9-5.6,3.5-8.4,5.2l0.1,0.1c0.9-2.7,1.3-5.7,2.7-8.2c7.4-13,15.1-25.9,22.5-38.9c1.8-3.1,3.2-6.3,5.6-11
			c-6.7,0-11.9-0.1-17.1,0c-38.3,1-72.7-31-71.9-72.2c0.4-23.6,0.1-47.3,0.1-70.9c0-3.6-0.3-7.3-0.4-11c0.1-16.4,3.8-31.6,13.8-45
			c13.6-18.2,31.4-28.5,54.2-29.1c11-0.3,22-0.2,33-0.2c105,0,209.9,0.1,314.9-0.2c17.6,0,33.6,3.7,47.7,14.5
			c19.1,14.6,27.9,34.5,28.3,58c0.5,28,0.5,56,0,84c-0.6,33.3-19.4,58.4-50.9,69c-2.2,0.8-4.4,1.6-6.6,2.3
			c-22.3,0.2-44.6,0.4-66.9,0.7c-5.7,0.1-11.3,0.2-17,0.3C2048,608.3,2022,608.3,1996,608.3z"/>
		<path class="st2" d="M1031.9,451.7c-0.8,0.1-1.7,0.3-2.6,0.5c5.2-25.4,10.5-50.8,15.7-76.2c0.6-2.8,0.8-5.8,1.4-9.9
			c-5.2,0.6-9.3,1.3-13.4,1.7c-95.6,8.1-172-57.5-186.5-141.8c-16.3-94.3,46.8-180.6,136.3-198.4c81.5-16.1,167,29.6,196,112.6
			c5.4,15.5,7.8,31.6,9.5,47.8c-0.4,9.2-0.5,18.5-1.3,27.7c-2.1,22.7-9.8,43.7-19.7,64c-26.6,38.9-58.5,73.8-87.2,111.1
			C1064.2,411.3,1047.9,431.4,1031.9,451.7z"/>
		<path class="st3" d="M2573.4,2291.6c-2.4-29.1-5-58.3-7.1-87.4c-2.1-30.1-9.9-58-27-83.3c-18-26.7-35.2-54.1-52.6-81.1
			c-1.6-2.5-2.9-5.2-4.4-7.7c0.6-1.2,1.5-2.3,1.7-3.5c2.1-14.1,4.7-28.1,5.8-42.2c0.8-10.5-0.9-21-4.9-31.1
			c-3.6-9.1-11.4-13.5-18.4-19c-9.5-7.4-18.1-15.7-23.5-26.7c-5.4-11.1-10.3-22.3-15.9-33.3c-6.9-13.7-17-23-32.8-26.5
			c-7.8-1.7-15.6-6-22.1-10.9c-9.7-7.4-18.1-16.5-27.3-24.8c-2.6-2.3-5.8-4-8.8-6c-1.9-2.6-3.8-5.1-5.6-7.7c0.4-0.7,0.7-1.3,1-2
			c8.4,1.2,16.8,2.1,25.1,3.8c13.8,2.7,26.9,7.4,39.1,14.7c8.1,4.9,14.5,11.2,19.9,19.3c3.7,5.7,9.1,10.7,14.8,14.4
			c10.8,7.2,22.3,13.3,33.6,19.7c13.3,7.5,26.8,14.8,40.1,22.4c13.1,7.4,20.5,18.4,22.5,33.4c1.3,9.9,3.4,19.7,5.6,29.4
			c3.5,15.2,10.1,29.1,20.7,40.5c18.8,20.2,25.9,44.6,26.9,71.3c0.8,22.4-2.7,44.5-6.6,66.5c-2.8,15.9-3.8,31.5-1.4,47.6
			c5.4,36.6,5.7,73.7,6.7,110.6c-0.4,3.2-0.8,6.4-1.1,9.6c-0.8,0-1.6,0-2.3,0C2574.4,2298.1,2573.9,2294.8,2573.4,2291.6z"/>
		<path class="st4" d="M2661.9,2408.1c-2.7,10.6-4.4,21.5-8.3,31.6c-6.8,17.4-15.3,33.7-31.1,45.3c-18.9,13.9-39.9,17.3-62.3,14.1
			c-27.5-4-45.8-20.5-58.4-44.7c-10.6-20.4-15.7-42.1-17.9-64.7c-1.2-12.5-1.8-25.1-2.7-37.6c0.3-11.5,0.4-23.1,0.9-34.6
			c0.1-3.2,1.1-6.4,1.6-9.5c1.8,0.8,3.9,1.2,5.3,2.4c16.8,15.1,34.8,28.6,54.3,39.9c23,13.2,46.1,26.3,69.8,38.1
			C2628.8,2396,2645.6,2401.5,2661.9,2408.1z"/>
		<path class="st2" d="M653.4,1884.5c3.8,3.3,5.4,7.2,2.6,11.9c-10.6-4.8-20.7-11.3-31.8-13.9c-35.7-8.6-64.9,3.9-87.9,31.3
			c-6.1,7.2-10.3,16.3-14.1,25.1c-6.7,15.6-18.5,21.9-35.2,17.8c-27.9-7-54.4-17.7-80-30.6c-18.9-9.5-23.1-21.1-15.9-41.1
			c18.4-51.5-9.9-104.1-62.6-116c-16.3-3.7-32.4-2.4-48,3.5c-3.7,1.4-7.4,2.9-11.3,4c-14.3,3.8-27-0.9-34.2-13.8
			c-14.6-25.8-27.1-52.7-35.8-81.2c-5.2-16.9-0.1-28.1,16-35.9c25.8-12.5,44.7-31.4,52.6-59.4c11.7-41.3-11.2-85.9-51.5-101.9
			c-2.8-1.1-5.7-2-8.3-3.3c-11.8-5.9-17.8-18-14.6-30.8c7.8-30.8,19.2-60.2,34.2-88.2c7-13,20.3-17.6,35.1-12.3
			c11,3.9,22.2,6.7,34.1,6.6c64.1-0.2,104.8-61.9,80-121.1c-2-4.8-4.1-10.1-4.1-15.2c0-9.4,4.2-17.4,12.6-22.5
			c27.2-16.4,56.1-29.2,86.5-38.4c15.1-4.6,27.6,2.7,34.2,18.3c10.3,24.4,27.8,41.2,52.9,49.6c31.2,10.4,59,3.3,83.6-17.6
			c4.8-4.1,9.1-8.8,13.6-13.2c-0.1,4.4-0.1,8.9-0.2,13.3c-4.9,4-9.6,8.3-14.7,12c-37.6,27.8-88.3,24.1-121.5-8.6
			c-9.6-9.5-17.1-20.3-22.1-32.9c-4.5-11.5-12.9-15.5-24.7-12.1c-8,2.3-16,4.8-23.5,8.2c-19.1,8.6-38.1,17.4-56.8,27
			c-11.5,5.9-13.8,15-8.8,27c0.5,1.2,1.1,2.4,1.6,3.6c13.4,32.9,8.1,74.2-18.8,102.3c-25.6,26.7-69.2,36.2-104.4,22.7
			c-6.5-2.5-13-4.6-19-0.3c-3.9,2.8-7.5,6.7-9.7,11c-12.6,24.3-22.8,49.6-30,76c-0.9,3.2-1.8,6.5-2,9.7c-0.6,9.3,3.1,15.2,11.6,18.9
			c4.6,2,9.3,3.7,13.8,5.9c45.4,22.3,67.7,80.7,40.9,128.6c-11.1,19.9-27.3,34.1-47.5,44.2c-14.7,7.3-17.3,13-12.3,28.8
			c8.4,26.4,20.1,51.4,33.4,75.7c5.4,9.9,12.8,13.7,28.2,10.5c2.6-0.5,4.9-2,7.4-2.9c18.9-7.4,38.2-8.4,57.7-2.9
			c55.6,15.7,84.5,72.9,64.2,127.1c-5.6,14.9-2.8,21.8,11.3,29.1c24.9,12.9,50.9,23,78,30.3c13,3.5,21-0.4,25.8-13.2
			c9.2-24.2,25.7-41.8,48.5-53.5c15.3-7.9,31.6-11.2,49.1-9.9C626.9,1872.7,640.2,1878.1,653.4,1884.5z"/>
		<path class="st3" d="M262.5,2330.1c-2.3-26.8-4.2-53.6-6.9-80.3c-1.4-14.1-7.7-26.7-15.3-38.5c-12.3-19.3-24.8-38.5-37.2-57.7
			c-1.9-3-3.6-6.3-5.4-9.5c0.6-0.8,1.6-1.5,1.8-2.3c1.5-9.4,3.6-18.8,4.2-28.3c0.9-14.2-2.4-26.8-15.4-35.4
			c-9-5.9-15.7-13.9-19.7-24.2c-2.9-7.4-6.5-14.6-10.7-21.3c-4.6-7.2-10-13.5-19.5-15.6c-9-2-17.2-6.4-24.1-13.2
			c-4.1-4-9.6-6.6-14.5-9.8c-2.8-3.9-5.7-7.9-8.4-11.8c1.2-1.1,1.6-1.9,2-1.9c18.1,0.3,34.7,5.7,49.4,16.3c2.1,1.5,4.3,3.5,5.5,5.7
			c5.4,9.9,14.3,15.6,23.7,20.8c8.7,4.9,17.6,9.4,26.4,14.2c3.8,2.1,7.5,4.3,11.4,6.3c12.4,6.5,19.4,16.1,20.9,30.6
			c1.9,19.3,9.5,36.1,22.4,51.3c14.7,17.3,16,39,14.2,60.7c-0.9,10.6-2.2,21.2-3.9,31.7c-1.5,9.1-1.7,18.1,0.9,26.7
			c5.7,18.8,5.9,38.1,5.9,57.4c0,9.3-0.1,18.6-0.1,28c-0.5,3,0.6,7-4.9,7.1C264.2,2334.8,263.4,2332.4,262.5,2330.1z"/>
		<path class="st5" d="M2661.9,2408.1c-16.3-6.5-33.1-12-48.7-19.8c-23.7-11.8-46.8-24.9-69.8-38.1c-19.5-11.3-37.5-24.8-54.3-39.9
			c-1.4-1.2-3.5-1.6-5.3-2.4c0.1-2,0.3-3.9,0.4-5.9c18.7,5.1,38.1,5,57.1,5.7c30.2,1.1,60.5,1.6,90.6-1.6c10.8-1.2,21.6-2.7,32.4-4
			c0.5,1.5,1.5,3,1.6,4.5c0.8,15.2,1.5,30.3,2.2,45.5c-1.4,17.2-2.8,34.3-4.4,51.5C2663.6,2405,2662.5,2406.5,2661.9,2408.1z"/>
		<path class="st4" d="M316.1,2352c-0.1,10.7,0.4,21.4-0.3,32c-1.5,21.6-4.6,43-15,62.5c-11.5,21.4-29.5,32.2-53.7,31.3
			c-20.5-0.7-36.1-10.6-46.4-28.3c-6.7-11.5-12.2-23.7-12.7-37.4c7.1-2.7,14.4-4.9,21.2-8.2c17.3-8.3,34.7-16.6,51.5-25.9
			c19.2-10.5,36.6-23.6,53.1-37.9C314.7,2344,315.4,2348,316.1,2352z"/>
		<path class="st3" d="M2702,2059.9c-4.7,2.5-9.2,5.2-14,7.4c-18.6,8.4-36.3,18.2-52.5,30.6c-7.2,5.5-12.2,12.2-13.5,21.3
			c-3.3,22.4-7.3,44.7-9.7,67.1c-3.3,31.4-5.4,63-7.9,94.5c-0.3,4.3-0.1,8.6-0.1,12.9c-1.3,2.8,1.4,8.4-5.8,7.7
			c-0.3-3.4-0.5-6.6-0.8-9.7c0.8-31,1.1-61.9,2.6-92.9c1.4-29.3,5-58.3,11.6-87c4.9-20.9,14.6-38.4,32.1-51.3
			c11.2-8.3,22.1-17.1,33.4-25.4c13.5-10,23.6-22.3,28.3-38.8c1.6-5.4,3.8-10.7,5.7-16c3-8.4,8.8-14,17.1-17
			c1.6-0.6,3.1-1.3,4.7-1.7c22.9-4.5,36.4-20.5,48.2-39c5.1-8.1,11.2-15.7,17.9-22.6c8.3-8.5,18.8-13.6,30.4-16.5
			c11.8-3,18.2,2.7,16.1,14.7c-0.3,1.9-1.2,3.8-1.8,5.7c-1.3,0.4-2.8,0.4-3.7,1.2c-7.5,6.8-16.3,11.4-25.8,14.7
			c-3.8,1.3-7.4,2.9-11.1,4.5c-6.3,2.6-10.2,7-11.4,13.9c-1.1,6.2-2.6,12.3-4.4,18.3c-4.9,15.6-8.4,19-23,17.3
			c-10.7-1.2-16.8,3.3-20.8,12.8c-3.2,7.6-7.3,14.8-11,22.3c-3.4,7-9.4,9.8-16.6,11.1c-7.8,1.3-11.1,4.5-11.9,12.2
			C2703.1,2041.4,2702.7,2050.6,2702,2059.9z"/>
		<path class="st2" d="M2158.6,1500.7c-0.2-2.1-0.4-4.3-0.5-6.4c6.3,0.1,12.7,0.3,19,0.1c15-0.4,30-0.4,44.9-1.7
			c10.8-1,14.3-5.4,15.6-16c0.3-2.3,0.2-4.7,0.3-7c1-32.3,24.6-62.3,56.1-69.7c29.3-6.8,55.6,0,77.3,21.2c6.2,6.1,16.4,7,22.6,2
			c19.3-15.5,36.9-32.7,52.3-52.1c5.5-6.9,4.9-13.1-0.9-19.8c-1.3-1.5-2.8-2.8-4.2-4.3c-14.6-15.5-22.5-34.1-21.9-55.2
			c1-37.2,24.3-64.1,57.1-73.5c7.2-2.1,15.1-2.1,22.7-2.6c11.9-0.7,16.7-4.8,18.8-16.5c0.3-1.6,0.5-3.3,0.5-5
			c0-20.3,0.4-40.6-0.1-60.9c-0.3-13.3-6.6-18.9-20.1-19.6c-15.3-0.8-29.7-4.5-42.3-13.3c-25.5-18-37.4-42.4-33.8-73.9
			c2.1-18.3,10-33.5,23.1-46.4c7.9-7.9,8.2-15.1,1.3-23.8c-5.1-6.5-10.3-13.2-16.1-19c-10.4-10.3-21-20.4-32.1-30
			c-9.2-7.9-15.8-7.2-24.6,1c-1,0.9-1.9,1.9-2.9,2.8c-28.2,26.9-85.7,33.8-117.7-13.4c-9.3-13.6-13.1-28.8-12.8-45.4
			c0.2-11.1-5.2-17.3-15.8-18c-15.3-1-30.6-1.6-45.9-1.9c-6.6-0.2-13.3,0.7-19.9,1.1c0-2.3,0-4.5,0-6.7c20.6-2.3,41.2-1.4,61.8-0.2
			c3.3,0.2,6.6,0.8,9.8,1.6c10,2.4,15.9,9.6,16.5,19.9c0.3,5.3,0.6,10.6,1.3,15.9c3.8,27.5,18.6,47.1,44.5,56.5
			c26.5,9.7,51.1,4,72.8-13.9c1-0.8,1.9-1.9,2.9-2.8c12-11.6,22.3-12,35.2-1.4c17.6,14.4,33.1,30.8,47.9,48.1
			c9.8,11.5,8.9,25.3-1.5,35.5c-20.2,19.9-26.4,44.4-17.9,71.5c8.4,26.9,27.8,42.3,55.1,47.9c4.2,0.9,8.6,0.8,12.9,0.9
			c11.3,0.3,24.4,9.8,25.3,23.4c1.5,24.3,1.9,48.5-0.6,72.8c-1,9.7-11.4,20.6-22.4,20c-16-0.8-30.9,3.3-44.4,12.3
			c-36.4,24.6-41.8,75.4-11.3,107.1c3.6,3.8,7.6,8,9.2,12.7c2.6,7.4,1.3,15-4,21.6c-16,20.2-34.1,38.3-54.7,53.8
			c-9.7,7.4-20.9,5.9-30.6-3.7c-8.5-8.4-18.2-14.4-29.5-18.1c-47.7-15.4-90.2,18.6-92.3,65.4c-0.1,2,0.1,4-0.1,6
			c-0.6,9.8-8,18.9-17.7,20.2C2203.8,1502.6,2181.2,1503,2158.6,1500.7z"/>
		<path class="st6" d="M2336.1,1808c2.9,2,6.2,3.7,8.8,6c9.1,8.2,17.6,17.3,27.3,24.8c6.4,4.9,14.2,9.2,22.1,10.9
			c15.8,3.5,25.9,12.8,32.8,26.5c5.5,11,10.4,22.3,15.9,33.3c5.4,11,13.9,19.3,23.5,26.7c7,5.5,14.9,9.8,18.4,19
			c4,10.1,5.7,20.6,4.9,31.1c-1.1,14.1-3.7,28.2-5.8,42.2c-0.2,1.2-1.1,2.3-1.7,3.5c-10.7-16.1-21.4-32.1-32-48.2
			c-36.3-55.4-72.6-110.8-108.8-166.3C2339.4,1814.4,2337.8,1811.1,2336.1,1808z"/>
		<path class="st3" d="M12.4,2101.9c-0.5-1.6-1.1-3.1-1.5-4.8c-2.4-11.5,3.6-17.7,14.9-15c14,3.4,25.8,10.7,35.3,21.4
			c4.2,4.7,7.3,10.3,11.1,15.3c6,7.9,11.9,16,18.4,23.5c5.6,6.4,12.8,10.5,21.2,12.4c2.9,0.7,5.7,1.9,8.5,2.7
			c9.9,3.1,16.6,9.4,19.9,19.3c1.8,5.4,3.9,10.6,5.6,16c4.1,12.8,11.6,23.1,22.2,31.2c10.5,8.1,21.7,15.5,31.6,24.3
			c10.6,9.5,20.9,19.6,29.9,30.6c11.8,14.6,17.3,32,18.8,50.7c-0.1,1,0.1,2.1-0.4,2.9c-0.7,1.2-1.9,2.2-2.8,3.3
			c-1-1.1-2.1-2.1-2.8-3.4c-0.5-0.8-0.3-1.9-0.5-2.9c-1.3-7.1-2.3-14.3-4-21.3c-3.5-14.5-11.7-25.1-25.9-30.7
			c-17.9-7.1-35.8-14.4-53.7-21.6c-3.4-1.4-6.7-3-10-4.5c-0.7-8.9-1.9-17.8-1.9-26.7c0-7.7-4.2-11.2-10.6-12
			c-10.7-1.3-16.2-8.1-20.4-16.8c-3.2-6.6-5.7-13.4-9.2-19.9c-4.2-7.9-7.6-9.5-16.2-7.1c-6.9,1.9-11.9,0.2-16.9-5
			c-6.5-6.8-7.4-15.3-8.8-23.7c-1.5-9.4-6.3-15.9-14.7-19.8c-3.3-1.5-6.9-2.5-10.1-4.2C30.2,2111.8,21.3,2106.8,12.4,2101.9z"/>
		<path class="st6" d="M2702,2059.9c0.7-9.2,1.1-18.5,2.1-27.7c0.8-7.7,4.1-10.9,11.9-12.2c7.3-1.2,13.2-4.1,16.6-11.1
			c3.6-7.4,7.8-14.6,11-22.3c4-9.5,10.1-14,20.8-12.8c14.6,1.7,18.2-1.7,23-17.3c1.9-6,3.3-12.2,4.4-18.3
			c1.2-6.9,5.1-11.3,11.4-13.9c3.7-1.5,7.3-3.2,11.1-4.5c9.5-3.3,18.3-7.9,25.8-14.7c0.9-0.8,2.4-0.8,3.7-1.2
			c-1,3.8-1.6,7.8-3.2,11.4c-13.4,31.7-30.2,61.6-51.4,88.8c-13.8,17.7-30.2,31.9-50.7,41.2c-10.6,4.8-21.3,9.5-32,14.1
			C2705.3,2060,2703.5,2059.8,2702,2059.9z"/>
		<path class="st6" d="M12.4,2101.9c8.9,4.9,17.8,9.9,26.8,14.6c3.2,1.7,6.8,2.6,10.1,4.2c8.5,3.9,13.2,10.4,14.7,19.8
			c1.4,8.4,2.3,16.9,8.8,23.7c5,5.2,10,6.9,16.9,5c8.6-2.3,12-0.8,16.2,7.1c3.4,6.4,6,13.3,9.2,19.9c4.2,8.7,9.7,15.5,20.4,16.8
			c6.4,0.8,10.6,4.3,10.6,12c0,8.9,1.2,17.8,1.9,26.7c-38.3-12.3-70.9-32.2-93.3-66.9c-14.8-22.9-28.6-46.3-38.9-71.5
			C14.3,2109.6,13.5,2105.7,12.4,2101.9z"/>
		<path class="st3" d="M2560.8,2292.1c-0.4-3-0.7-5.9-1.3-8.9c-3.3-16.3-11-28.9-27.6-34.9c-15.3-5.6-30.3-12-45.4-18
			c-2.1-0.9-4.3-1.9-6.4-2.8c-0.7-6.6-1.6-13.1-2.1-19.7c-0.8-10.6-2.7-13.1-12.9-15.9c-6.2-1.6-10.7-5.2-13.6-10.9
			c-2.9-5.6-6.2-11.1-8.4-17c-3-8.1-8.3-11.6-16.8-10.1c-10.9,1.9-17.4-5.9-19.9-15.3c-1.4-5.1-2.7-10.3-3.8-15.4
			c-1.3-5.7-4.6-9.9-9.9-11.7c-12.3-4.2-23.6-10.3-34.2-17.7c-0.4-1.3-0.9-2.5-1.1-3.8c-1.9-10.3,3.5-15.5,13.4-12.9
			c16.5,4.4,29.1,14.1,38.3,28.4c2.5,3.9,4.8,8,7.4,11.8c8.6,12.3,19,22,34.4,25.3c10.9,2.3,18.5,9,21.2,20.2
			c5.3,22.4,19.1,38,37.9,50.4c13.9,9.1,26.6,20,37.1,33.1c10.6,13.3,17.5,28.2,19.2,45.2c-1.2,3.2,3.9,8.5-3.5,10.1
			C2562.2,2298.3,2561.5,2295.2,2560.8,2292.1z"/>
		<path class="st5" d="M313.9,2340.1c-16.5,14.3-34,27.4-53.1,37.9c-16.8,9.2-34.2,17.5-51.5,25.9c-6.8,3.3-14.1,5.5-21.2,8.2
			c-1.3-8.4-3.4-16.8-3.9-25.3c-0.7-11.6-0.2-23.2-0.3-34.8c0.7-4.7,1.5-9.4,2.2-14c2,0.1,4,0,6,0.2c17.1,1.3,34.3,3.7,51.4,3.6
			c23.4-0.2,46.9-2.4,70.3-3.8C313.8,2338.6,313.9,2339.3,313.9,2340.1z"/>
		<path class="st6" d="M2358.7,2093.9c10.6,7.4,21.9,13.5,34.2,17.7c5.3,1.8,8.6,6,9.9,11.7c1.1,5.2,2.5,10.3,3.8,15.4
			c2.5,9.4,9,17.2,19.9,15.3c8.5-1.5,13.7,1.9,16.8,10.1c2.2,5.9,5.5,11.4,8.4,17c2.9,5.6,7.4,9.2,13.6,10.9
			c10.2,2.7,12.1,5.3,12.9,15.9c0.5,6.6,1.4,13.1,2.1,19.7c-27-9.9-53.5-20.8-71.9-44.5c-6.9-8.9-14-17.9-19.7-27.6
			c-9.3-16.1-17.7-32.7-26.1-49.3C2360.5,2102.4,2359.9,2098,2358.7,2093.9z"/>
		<path class="st6" d="M99.9,1994c4.9,3.2,10.4,5.8,14.5,9.8c6.9,6.8,15.1,11.2,24.1,13.2c9.4,2.1,14.9,8.3,19.5,15.6
			c4.2,6.7,7.8,13.9,10.7,21.3c4,10.3,10.7,18.3,19.7,24.2c13,8.6,16.3,21.2,15.4,35.4c-0.6,9.5-2.7,18.9-4.2,28.3
			c-0.1,0.8-1.2,1.5-1.8,2.3c-5.4-7.9-10.9-15.8-16.2-23.8c-25.7-39.2-51.4-78.4-77-117.6C102.9,1999.9,101.5,1996.9,99.9,1994z"/>
		<path class="st4" d="M2560.8,2292.1c0.7,3.1,1.4,6.1,2.2,9.5c7.4-1.6,2.3-6.9,3.5-10.1c2.3,0,4.6-0.1,6.9-0.1
			c0.5,3.3,1,6.5,1.5,9.8c0.8,0,1.6,0,2.3,0c0.4-3.2,0.8-6.4,1.1-9.6c6.4,0,12.9,0,19.3,0c0.3,3.1,0.5,6.3,0.8,9.7
			c7.2,0.7,4.6-4.9,5.8-7.7c15.9,0.8,31.7,1.4,47.6,2.5c4.6,0.3,10.3-0.4,12.4,5.7c-10.8,1.4-21.6,2.9-32.4,4
			c-30.1,3.3-60.4,2.7-90.6,1.6c-19.1-0.7-38.4-0.6-57.1-5.7c2.5-5.7,8.2-5.2,12.8-5.6c13.7-1.3,27.5-1.6,41.3-2.5
			C2545.8,2293.4,2553.3,2292.7,2560.8,2292.1z"/>
		<path class="st4" d="M313.8,2337.9c-23.4,1.4-46.9,3.6-70.3,3.8c-17.1,0.2-34.3-2.3-51.4-3.6c-2-0.1-4-0.1-6-0.2
			c1.5-6.1,7.1-5.3,11.2-5.6c12.8-1.1,25.7-1.5,38.5-2.2c2-0.1,4-0.2,5.9-0.4c0.1,1,0,2.1,0.5,2.9c0.7,1.2,1.9,2.3,2.8,3.4
			c1-1.1,2.1-2.1,2.8-3.3c0.4-0.8,0.3-1.9,0.4-2.9c4.8,0.1,9.5,0.2,14.3,0.3c0.8,2.4,1.7,4.7,2.5,7c5.5-0.1,4.4-4.1,4.9-7.1
			c11.2,0.7,22.5,1.1,33.6,2.3C307.3,2332.8,312.6,2331.9,313.8,2337.9z"/>
		<path class="st7" d="M1996,608.3c26,0,52,0,77.9,0c0,256.9,0,513.8,0,770.7c0,302.5,0,605.1,0,907.6c0,4.6,0,9.2,0,12.8
			c-1.2,1.2-1.4,1.5-1.7,1.7c-0.3,0.2-0.6,0.4-0.9,0.4c-68.3,0.2-136.6,0.3-204.9,0.5c-0.9-21.2-1.8-42.4-2.7-63.6
			c2.3-0.3,4.7-0.3,6.9-0.8c46.8-9.9,82.3-37.1,111.8-73.3c1.3-1,2.8-1.9,3.8-3.1c54.1-65.5,52.6-165-4.8-227.3
			c-50-54.2-111.7-71.4-183.2-52c-0.6-27.9-1.3-55.8-1.9-83.8c5,0,10-0.1,15-0.1c58,0,116,0,174,0c12.1,0,16.4-4.2,16.4-16.1
			c0.1-24-0.1-48-0.1-72c0-8.9,0.1-17.9,0.1-26.9c0-15.3,0.1-30.5-0.1-45.8c-0.1-9.2-4.3-13.2-13.4-13.4c-6.3-0.2-12.6,0-18.9,0
			c-7.5,0-15,0-23.5,0c0-14.2,0-27,0-39.9c6.6,0,13.3,0.4,19.9-0.1c5.9-0.4,11.9-1.1,17.5-2.9c9.7-3,14.7-13.5,12.4-25.3
			c-1.5-7.7-9-15.6-20.4-15.7c-25.9-0.1-51.8,0.1-77.7,0.1l0.1-0.1c-0.6-0.7-1.2-1.4-1.8-2.1c-0.1-0.6-0.3-1.1-0.5-1.6
			c3.2-0.4,6.5-0.8,11-1.3c3.4-16.9,6.9-34,10.3-51c19,0,37.9,0,56.9,0c13.6,0,23.3-12.2,22.4-22.9c-1.1-12.4-9.7-21-23-21.1
			c-17-0.1-34,0-50.9,0c0.7-18.7,1.4-37.3,2.1-56c17,0,34,0.1,51-0.1c11.2-0.1,20.3-9.3,20.7-20.2c0.6-13.3-8.8-23.5-22.5-23.7
			c-17-0.3-34-0.1-51-0.1c-0.6-5.2-1.2-10.5-1.8-15.7c-1.5-13.4-3.1-26.8-4.6-40.2c20,0,40,0.1,59.9-0.1c13-0.1,19.9-7.5,20-20.8
			c0-13.4-6.9-21.1-19.6-21.1c-23-0.1-46,0.1-68.9,0.2c-5.7-18.7-11.4-37.4-17.1-56.2c25.3,0,50.6,0,76,0c2.3,0,4.7,0.2,7-0.1
			c15.8-2.2,22.4-11,22.8-19.7c0.5-14.4-8.3-24.2-22.8-24.2c-33.7-0.1-67.3-0.1-100.9-0.1c-9.5-17.8-19-35.7-28.5-53.5
			c3-4,7.3-2.4,11.1-2.4c39.9-0.1,79.8-0.1,119.7,0c10.1,0,16.1-5.7,20.1-13.8c3.9-7.8,1.4-17.1-5.1-23.7
			c-5.3-5.5-11.9-6.6-19.1-6.6c-52.9,0.1-105.7,0.1-158.6,0.1c-12.2-14-24.4-28-36.5-42.1c-1.8-2.2-2.5-5.3-3.8-7.9
			c0.1-2,0.2-4,0.3-6c65.9,0,131.8,0,197.8,0c2.7,0,5.4,0.3,8-0.1c9.3-1.4,17.2-7.8,18.2-16.9c1.4-13.2-3.7-22-14.8-24.7
			c-5.4-1.3-11.1-2.1-16.7-2.2c-64.6-0.2-129.2-0.1-193.8-0.1c-0.3-10-0.5-20-0.8-30c-0.7-0.1-1.3-0.2-2-0.3
			c-5.9,2.2-11.8,4.3-17.8,6.5c-1-2.4-1.9-4.8-2.9-7.2c21.5-27.5,43.4-54.6,64.3-82.5c5.2-7,8.3-15.9,11-24.4
			c4-12.5,1.4-24.3-6.9-34.7c-2-2.5-4-5.1-6-7.7c1.7-4.9,3.2-9.3,4.8-13.7c49.3,0,98.6-0.1,147.9,0c15,0,25.4-6.9,31.5-20.2
			c1.6-3.4,2-7.7,2-11.6C1996.1,680.3,1996,644.3,1996,608.3z"/>
		<path class="st7" d="M1533,2302c-163.1,0-326.2,0-489.3,0c1.4-17.5,2.8-35.1,4.3-52.6c1.4-17.5,2.8-35.1,4.4-52.6
			c1.6-17.2,3.8-34.3,5.5-51.4c1.6-17.2,2.7-34.4,4.4-51.6c2.3-23.8,5.2-47.5,7.6-71.2c2.1-20.8,3.9-41.6,5.8-62.4
			c7.8-0.2,15.6-0.4,23.5-0.6c3.3-26.7,6.6-52.3,9.8-78c3.3,0.1,6.7,0.3,10,0.3c118.9,0,237.7,0,356.6,0c2,0,4,0.1,6-0.1
			c17.2-1.7,26.6-15.8,20.5-30.9c-3.5-8.8-10.7-13-22.4-13c-121.9,0-243.7,0-365.6,0c1.8-18.7,3.6-37.5,5.4-56.2
			c4.7,0.1,9.3,0.2,14,0.2c116.5,0,232.9,0,349.4,0c22.6,0,45.3,0.1,67.9,0.1c-0.8,26.3-1.5,52.5-2.4,78.8
			c-1.6,50.6-3.2,101.1-4.9,151.7c-2.3,68.2-4.8,136.4-7.2,204.6C1535.1,2245.5,1534,2273.7,1533,2302z"/>
		<path class="st7" d="M951.9,2302c-70.2,0-140.4,0-211.9,0c0-5.1,0-9,0-12.9c0-119.6,0-239.2,0-358.8c0-218.9,0-437.7,0-656.6
			c0-3,0.1-6,0-9c-0.1-4.3,2.9-4.7,6-4.8c16.7,3.4,33.4,6.9,50.1,10.3c4.2,0.6,8.3,1.8,12.5,1.6c6.7-0.3,12.3,0.8,16.8,6.4
			c3.5,4.4,8.5,5.8,14.2,5.8c43.6-0.2,87.2-0.2,130.9-0.3c3,5.5,6,11.1,9,16.6c6.8,12.4,8.5,25.7,6.5,39.6c-45.9,0-91.9,0-137.8,0
			c-2.7,0-5.3-0.2-8,0.1c-13.3,1.4-22.6,10.8-22.2,22.5c0.4,12.5,10.1,21.2,24,21.4c2.7,0.1,5.3,0,8,0c40.3,0.1,80.5,0.2,120.8,0.3
			c-15.7,17.9-32,35.3-44.2,55.9c-16.3-0.1-32.6-0.2-49-0.2c-12.3,0-24.6,0-37,0c-16.2,0-29.6,18.2-18.6,34.1
			c4.7,6.8,11.4,9.9,19.6,9.9c23.3,0.1,46.6,0,69.9,0c-2.4,18.6-2.3,37.2-0.3,55.8c-9.3,0.1-18.6,0.2-27.9,0.2
			c-14.9,0-29.9,0-44.8,0c-9.1,0-14.8,5.2-18.4,12.8c-3.7,7.8-2.8,15.1,3.4,22c6.1,6.7,13.5,9.1,22,9.2c24.9,0.1,49.8,0,74.7-0.1
			c5,18,10.1,36,15.1,53.9c-29,0.1-58,0.1-87,0.3c-4.9,0-9.9,0.8-14.7,2c-11,2.9-17.8,16-14.3,26.8c3.2,9.8,10.2,15.1,20.8,15.1
			c33.7,0.1,67.3,0.1,101,0.1c1.3,18.7,1.8,37.4-1.3,55.9c-15.6,0-31.2,0-46.8,0c-17.3,0-34.5-0.2-51.8,0.1
			c-8.8,0.1-15.7,3.7-20.3,11.9c-4.5,8.1-3.4,15.4,1.4,22.4c4.8,7.2,12.1,9.7,20.6,9.7c29.9-0.1,59.8,0.1,89.7,0.1
			c-4,18.7-7.9,37.4-11.9,56.1c-7-0.1-14-0.2-20.9-0.2c-20.3,0-40.5,0.1-60.8,0c-9.2,0-15,5-18.7,12.5c-4,8.2-3,15.8,3.8,22.8
			c5.7,5.9,12.1,8.8,20.2,8.8c22.6-0.1,45.2,0,67.8,0c-1.7,10.5-3.4,20.9-5.1,31.4c-2.3,13.3-4.6,26.6-7,40.9
			c13.5,0.7,26,1.4,38.5,2.1c-0.8,10.9-2.2,21.8-2.1,32.8c0.4,51.2,1.1,102.4,2,153.6c0.2,10.6,1.1,21.2,2,31.8
			c1.8,20.8,3.8,41.5,5.7,62.3c1.1,11.9,2.5,23.7,3.6,35.6C950.5,2282.2,951.1,2292.1,951.9,2302z"/>
		<path class="st3" d="M796.2,1270.2c-16.7-3.4-33.4-6.9-50.1-10.3c-4.9-2.1-9.9-3.8-14.6-6.3c-8.8-4.6-17.9-9-26.1-14.6
			c-25.8-17.6-34.3-42.5-28.4-72.4c7.2-36.5,26.6-65.7,55.3-88.9c2.6-2.1,5.2-4.2,7.7-6.3c19-12,39.9-19.4,60.7-27.6
			c14.8-5.8,29.4-12.4,43.2-20.3c13.5-7.6,24-18.8,30-33.6c8.5-14.8,10.7-31.2,11.2-47.9c0.2-3.6,0.8-7.3,0.4-10.9
			c-2.5-23-5.3-46.1-8-69.1c-0.6-14.7-1.2-29.3-1.8-44c2.3-15.1,4.4-30.3,12.3-43.8c5.3-9.1,11.8-17.5,17.8-26.2
			c21.8-21,47.2-36.4,75.5-46.9c10.5-3.9,21.5-6.9,32.6-8.5c18.5-2.6,35.9,2,50.7,13.3c9.2,7,17.9,14.9,25.3,23.7
			c7,8.3,14.6,15.2,24.1,20.1c0.9,1,1.7,2,2.6,3c9.4,10.4,10.6,18.3,4.6,30.8c-1.3,2.7-2.5,5.4-3.8,8
			c-18.1,25.4-42.4,43.5-69.3,58.5c-22.7,12.6-46.5,22.5-71.2,30.3c-3.3,1-6.5,2.3-11.7,4.2c4.7,5.7,8.3,9.8,11.8,14
			c0.5,1.9,1,3.8,1.4,5.7c2.7,10.5,10,14.4,20.5,10.9c1.6-0.5,3.1-1.3,4.6-1.9c3.5,4.9,6.9,9.8,10.3,14.7
			c-4.8,11.4-9.7,22.8-14.6,34.2c-11.2,5-19,14.2-27.3,22.7c-28.2,28.7-42.4,64-45.8,103.5c-3.2,37.7,1.2,74.8,12.3,111.1
			c3.3,10.7,6.1,21.6,9.2,32.4c-32.1,19.6-66.5,32.8-104,36.6C828,1270,812,1269.7,796.2,1270.2z"/>
		<path class="st3" d="M1863.9,2238.4c0.9,21.2,1.8,42.4,2.7,63.6c0.5,21.4,1.1,42.9,1.5,64.3c0.1,5.3-0.2,10.5-0.3,15.8
			c-22,0-44.1,0-66.1,0c-4.6-19.4-9.1-38.7-13.7-58.1c-1.8-7.4-3.7-14.7-5.6-22.1c-5.6-25.2-11.2-50.5-16.8-75.7c-0.1-1,0.1-2-0.2-3
			c-16.6-74.2-33.3-148.4-50-222.5c-3.7-16.2-7.7-32.3-11.5-48.4c-0.1-1.3,0.1-2.7-0.2-3.9c-5.5-24.6-11-49.2-16.7-73.8
			c-5-22-10.2-43.9-15.2-65.9c0-1.3,0.3-2.7,0-4c-7.8-34.2-15.6-68.3-23.3-102.4c-5.7-25.1-11.1-50.3-16.6-75.5
			c-4.5-20.8-10.4-41-20.4-59.9c-2.3-4.4-4.9-8.6-7.4-12.8c0.3-0.6,0.5-1.3,1-1.7c13.2-12.6,26.4-25.1,39.5-37.8
			c3.4-3.3,6.6-2.2,9.9-0.3c9.5,5.4,19,10.8,28.4,16.3c36.4,21,72.8,41.9,109.2,62.9c-0.6,2.1-1.7,4.2-1.6,6.3
			c1.2,29.9,2.5,59.8,3.8,89.7c0.3,6.9,0.9,13.9,1.4,20.8c-0.1,4.9-0.3,9.8-0.2,14.7c0.3,24.4,0.7,48.8,1.1,73.2
			c0.6,27.9,1.3,55.8,1.9,83.8c0,0.9,0,1.9,0,2.9c0.1,3.7,0.2,7.4,0.3,11.2c0.3,7.6,0.4,15.3,1.1,22.9c0.2,2.4,1.8,4.8,3.1,7.1
			c5.7,10.5,12.6,20.5,17,31.5c15.4,38.6,22.7,79.3,27.9,120.3c5.2,40.6,8.6,81.4,12.7,122.1
			C1861.8,2212.6,1862.8,2225.5,1863.9,2238.4z"/>
		<path class="st3" d="M1604,1554c2.5,4.3,5.1,8.5,7.4,12.8c10,18.9,15.9,39.2,20.4,59.9c5.5,25.2,10.9,50.4,16.6,75.5
			c7.7,34.2,15.6,68.3,23.3,102.4c0.3,1.3,0,2.7,0,4c-8.9,28.8-17.7,57.7-26.5,86.6c-0.5,1.7-0.6,4,0.2,5.6
			c8.8,18.9,9.9,39.2,10.4,59.5c1,39-2.9,77.7-7.4,116.4c-6.9,58.8-16.7,117.1-27.6,175.3c-3.1,16.6-6,33.3-9,50
			c-3.9,17.7-7.8,35.4-11.7,53.1c-2,9-4.1,18-6.2,27.1c-21.1-0.1-42.3-0.1-63.4-0.2c0.9-25.1,1.8-50.1,2.7-75.2
			c0.1-1.6-0.2-3.3-0.2-4.9c1.1-28.3,2.2-56.5,3.2-84.8c2.4-68.2,4.9-136.4,7.2-204.6c1.7-50.6,3.3-101.1,4.9-151.7
			c0.8-26.3,1.6-52.5,2.4-78.8c0.5-14.7,0.9-29.4,1.4-44.2c0.6-18.7,1.3-37.3,1.9-56c0.6-14.7,1.1-29.3,1.7-44
			c0.5-9.5,1-19,1.3-28.5c0.1-2.5-0.7-5-1-7.5C1572,1586,1588,1570,1604,1554z"/>
		<path class="st7" d="M905.9,748c-6,8.7-12.5,17.1-17.8,26.2c-7.9,13.4-10,28.7-12.3,43.8c-11.9,0-23.8-0.2-35.8,0.1
			c-16.4,0.4-28.3,18.9-18.3,33.5c4.7,6.9,11.1,10.2,19.1,10.4c12.3,0.2,24.5,0.1,36.8,0.1c2.7,23,5.4,46,8,69.1
			c0.4,3.6-0.3,7.3-0.4,10.9c-12.3,0-24.6-0.3-36.9,0.2c-5.9,0.2-12.1,0.8-17.5,2.9c-8.6,3.3-14.2,15.7-12.1,24
			c2.7,10.6,10.5,16.8,21.5,16.9c9,0.1,18,0,26.9,0c3,0,6.2-0.4,6.8,3.9c-6,14.8-16.5,26-30,33.6c-13.8,7.8-28.4,14.5-43.2,20.3
			c-20.8,8.1-41.7,15.6-60.7,27.6c0-106.7-0.1-213.4,0-320.1c0-3.1,1.3-6.2,2-9.3c12,8.4,23.9,16.8,35.8,25.2
			c3.5,2.4,7,4.8,11.4,6.5c-8.8-18.5-20.1-35.4-30.4-52.9c-10.4-17.7-21.3-35.2-33-54.5c31.8-0.7,62.3,2,91.9-6.7
			c0,17.6,0,35.2,0.2,52.8c0.2,15.6,6.4,27.6,21.6,33.5c3.6,1.4,7.7,2.2,11.5,2.2C869.4,748.1,887.6,748,905.9,748z"/>
		<path class="st8" d="M951.9,2302c-0.8-9.9-1.4-19.8-2.3-29.7c-1.1-11.9-2.5-23.7-3.6-35.6c-2-20.8-3.9-41.5-5.7-62.3
			c-0.9-10.6-1.9-21.2-2-31.8c-0.8-51.2-1.6-102.4-2-153.6c-0.1-10.9,1.4-21.8,2.1-32.8c25.9,0.7,51.9,1.4,77.8,2.1
			c1.8,0.5,3.6,1.5,5.5,1.5c8.8,0.1,17.7-0.1,26.5-0.1l0.2-0.2c-1.4,10.8-3.1,21.5-4.3,32.3c-1,9.5-1.4,19.1-2.2,28.7
			c-0.6,7.2-1.4,14.5-2.3,21.7c-1.1,9.8-2.6,19.6-3.5,29.5c-1,10.2-1.2,20.5-2.2,30.7c-1.7,17.1-4.1,34.1-5.7,51.1
			c-1.7,17.8-2.7,35.6-4.2,53.4c-0.6,7.6-1.4,15.1-2.2,22.7c-1.2,11.1-2.6,22.3-3.7,33.4c-0.9,9.9-1.4,19.8-2.2,29.7
			c-1.3,16.5-2.6,32.9-3.9,49.4c-10.7,1.6-21.4,3.2-32,5c-8.3,1.4-16.4,1.8-23.8-3C954.7,2330.1,953.3,2316,951.9,2302z"/>
		<path class="st9" d="M1611.8,2302c3-16.7,5.8-33.4,9-50c10.9-58.1,20.7-116.5,27.6-175.3c4.5-38.7,8.4-77.4,7.4-116.4
			c-0.5-20.3-1.5-40.6-10.4-59.5c-0.7-1.6-0.7-3.9-0.2-5.6c8.8-28.9,17.6-57.7,26.5-86.6c5.1,22,10.2,43.9,15.2,65.9
			c5.6,24.6,11.1,49.2,16.7,73.8c0.3,1.3,0.1,2.6,0.2,3.9c-28.5,31.5-42.1,69.1-43.2,111c-1,36.6,9.2,70.5,29.8,100.9
			c18.9,27.9,43.5,49.3,75.1,62c5.6,25.2,11.2,50.5,16.8,75.7C1725.5,2301.9,1668.7,2302,1611.8,2302z"/>
		<path class="st2" d="M956.1,2344.1c7.5,4.8,15.5,4.4,23.8,3c10.6-1.8,21.3-3.3,32-5c1,5,4.4,3.7,7.7,3.1c6.5-1.1,13-1.9,19.5-2.8
			c10.6,15.3,21.4,30.5,31.9,45.9c9.1,13.5,20.7,24.1,34.6,32.5c12.4,7.5,24.7,15.4,36.7,25c-2.1,0-4.2,0-6.3,0
			c-40,0-79.9,0-119.9,0c-5.3,0-11,0.9-13.5-6.5c-4.7,9.2-11.4,6.1-18.7,5.9c0-6-0.5-11.6,0.1-17.1c1-9.4-3.7-15.6-11.7-22.3
			c0,13.9,0,26.2,0,39.2c-5.6,0-10.1,0-14.7,0C955.2,2438.2,954.3,2379.4,956.1,2344.1z"/>
		<path class="st10" d="M1039.2,2342.4c-6.5,0.9-13,1.7-19.5,2.8c-3.4,0.6-6.7,1.9-7.7-3.1c1.3-16.5,2.6-32.9,3.9-49.4
			c0.8-9.9,1.3-19.8,2.2-29.7c1-11.2,2.5-22.3,3.7-33.4c0.8-7.6,1.6-15.1,2.2-22.7c1.4-17.8,2.5-35.6,4.2-53.4
			c1.6-17.1,4-34.1,5.7-51.1c1-10.2,1.3-20.5,2.2-30.7c0.9-9.8,2.4-19.6,3.5-29.5c0.8-7.2,1.6-14.4,2.3-21.7
			c0.8-9.6,1.2-19.2,2.2-28.7c1.2-10.8,2.8-21.6,4.3-32.3c9.1,0.2,18.2,0.4,27.3,0.6c-1.9,20.8-3.8,41.6-5.8,62.4
			c-2.4,23.8-5.2,47.5-7.6,71.2c-1.7,17.2-2.8,34.4-4.4,51.6c-1.6,17.2-3.8,34.3-5.5,51.4c-1.7,17.5-3,35.1-4.4,52.6
			s-2.9,35.1-4.3,52.6c-1.2,9.6-2.5,19.2-3.6,28.8C1039.6,2334.6,1039.4,2338.5,1039.2,2342.4z"/>
		<path class="st6" d="M1801.7,2382.1c22,0,44.1,0,66.1,0c1,20.9,2,41.8,3,63.3c-68.9,0-137.9,0-209.1,0c4.9-2.4,8-4,11.2-5.4
			c39.6-17.3,79.2-34.5,118.8-51.9C1795.1,2386.5,1798.3,2384.1,1801.7,2382.1z"/>
		<path class="st6" d="M1593.9,2383.7c1.7,20.2,3.3,40.5,5,60.5c-8.2,2.4-178.5,3.3-210.6,1.2c48.2-21.2,94.3-41.4,140.3-61.6
			C1550.3,2383.8,1572.1,2383.7,1593.9,2383.7z"/>
		<path class="st2" d="M656,1437.5c-20.4-9.9-41.9-15-64.7-13.9c-47.9,2.3-85,23.9-109.4,64.8c-46,77.3-4,175.6,83.4,196.7
			c27.6,6.7,54.9,4.4,81.3-6.3c3.1-1.2,6.2-2.4,9.3-3.6c2.5,4.3,1.5,7.8-2.4,10.6c-19.4,7.4-39.3,12.6-60.2,11.9
			c-67.4-2.3-124.8-48.5-136.8-117.6c-8-46.3,5.3-87.2,37-121.4c22.6-24.4,51.4-38.2,84.7-42.8c23.3-3.2,45.7,0.3,67.6,8.1
			c2.5,0.9,5,1.7,7.5,2.5C657.8,1429.3,658.7,1433,656,1437.5z"/>
		<path class="st2" d="M2158.2,1268.6c19.4,4.3,38.6,5.3,58.1,0c46.5-12.5,79.1-54.5,80-102.5c1-50.5-34.4-95.7-83.1-107.1
			c-16.5-3.8-32.9-3.9-49.3-0.3c-1.9,0.4-3.9,0.6-5.9,0.9c0.1-2.3,0.1-4.6,0.2-6.9c28.9-7.3,57.1-5.1,83.2,9.3
			c42.7,23.6,64.2,60.5,61.8,109.2c-3,59.5-50.4,100.7-98.7,107.1c-15.9,2.1-31.1,0.8-46.4-2.9
			C2158.2,1273.2,2158.2,1270.9,2158.2,1268.6z"/>
		<path class="st5" d="M1593.9,2383.7c-21.8,0-43.5,0.1-65.3,0.1c0.6-0.6,1.3-1.2,1.9-1.7c21.1,0.1,42.3,0.1,63.4,0.2
			C1594.1,2382.7,1594.1,2383.2,1593.9,2383.7z"/>
		<path class="st7" d="M1117.5,791.5c1.3-2.7,2.5-5.4,3.8-8c6-12.6,4.8-20.4-4.6-30.8c-0.9-1-1.8-2-2.6-3c3.8-0.6,7.7-1.6,11.5-1.6
			c159.5-0.1,319-0.1,478.5-0.1c-0.8,1.8-1.4,3.7-2.4,5.3c-14.2,23.5-22,48.9-21.6,76.4c0.2,16.9,0.8,33.8,2.2,50.6
			c0.8,9.5,3.4,18.8,5,28.2c1,5.6,4.1,7.7,9.7,7.5c16.5-0.4,33.2,1.4,49.4-3.7c2.4-0.8,5.3-0.3,7.9-0.5c-1.4,10-2.9,20-4.3,30
			c-179.3,0-358.6,0-537.9,0c9.3-25.9,10.3-53,11.9-80c22.2,0,44.5,0.2,66.7-0.1c17.4-0.2,27.4-15,21.3-30.7
			c-3.3-8.5-10.9-13.2-22.3-13.2c-22.6-0.1-45.2,0-67.7,0C1120.5,809.2,1119,800.3,1117.5,791.5z"/>
		<path class="st3" d="M1814.5,748c-1.5,4.4-3,8.8-4.8,13.7c2,2.5,4,5.1,6,7.7c8.3,10.4,10.8,22.2,6.9,34.7
			c-2.7,8.5-5.8,17.4-11,24.4c-20.9,27.9-42.8,55.1-64.3,82.5c-2.2-2.3-4.9-4.3-6.6-6.9c-7.7-11.9-15.2-24-22.7-36
			c-1-11.6-2-23.1-3.1-35.1c8.1-4,14.8-9.8,19.3-17.9c3.5-6.3,5.3-12.9,4.2-20.1c-1.1-7.2-5.7-11.6-12.4-12.2
			c-6.8-0.5-10.8,2.1-13.6,8.9c-3.8,9.2-7.7,18.4-11.8,27.5c-5.8,13-5.9,12.9-20,11.7c-0.6,0-1.2-0.6-1.7-0.8
			c-2.2-8-3.1-16.7-6.8-23.9c-7.4-14.1-7.4-28.8-6.9-43.8c0.1-4.2,0.4-8.5,0.7-13.1c-5.7-0.9-10.7-1.1-15.4-2.4
			c-12.1-3.4-24.1-7.3-36.2-11c-6.8-4.1-14.1-7.6-20.3-12.4c-6.2-4.8-12.2-10.5-16.8-16.8c-6.8-9.3-5.9-19.4,0.6-28.9
			c11.3-16.4,26.1-20.8,44.3-12.7c7.3,3.2,14.3,7.2,21.2,11.1c8.8,5,17.3,5.4,26.6,0.9c14.4-6.9,29.1-13.1,45-15.9
			c26.7-4.8,44.8,4.7,55.6,24.9c7.1,13.3,17.7,23.1,31.1,30c14.7,7.6,16.5,11.9,13.3,28C1814.7,745.4,1814.6,746.7,1814.5,748z"/>
		<path class="st11" d="M1614.3,735.8c12.1,3.7,24.1,7.6,36.2,11c4.7,1.3,9.7,1.6,15.4,2.4c-0.3,4.6-0.6,8.9-0.7,13.1
			c-0.5,15-0.5,29.7,6.9,43.8c3.8,7.2,4.7,15.9,6.8,23.9c0.5,0.3,1.1,0.8,1.7,0.8c14.1,1.2,14.2,1.2,20-11.7
			c4.1-9.1,7.9-18.3,11.8-27.5c2.8-6.8,6.8-9.5,13.6-8.9c6.8,0.5,11.4,4.9,12.4,12.2c1.1,7.2-0.7,13.8-4.2,20.1
			c-4.5,8.1-11.2,13.8-19.3,17.9c1.1,12,2.1,23.6,3.1,35.1c-1.5,0.6-3.4,0.8-4.5,1.8c-7.7,6.8-15.2,13.9-22.9,20.6
			c-9,7.7-17.2,16.7-30,18.5c-2.2,0.3-4.2,2-6.3,3c-2.7,0.1-5.5-0.3-7.9,0.5c-16.2,5-32.9,3.3-49.4,3.7c-5.7,0.2-8.7-1.9-9.7-7.5
			c-1.6-9.4-4.3-18.8-5-28.2c-1.3-16.8-1.9-33.7-2.2-50.6c-0.3-27.5,7.5-52.9,21.6-76.4c1-1.7,1.6-3.6,2.4-5.3
			C1607.5,744,1610.9,739.9,1614.3,735.8z"/>
		<path class="st12" d="M1782,666c-0.1,0.3-0.2,0.6-0.4,0.8c-0.1,0.1-0.4,0-0.6,0C1781.3,666.5,1781.7,666.3,1782,666
			C1782.1,666.1,1782,666,1782,666z"/>
		<path class="st6" d="M1604,1554c-16,16-32,32-48,47.9c-2,2.8-4,5.5-6,8.3c-0.7,0-1.3-0.1-2-0.1c-0.2-8.7-0.4-17.4-0.6-26.1
			c0-14.7,0-29.4,0-44.1c0-18.7,0-37.3,0-55.9c0-14.7,0-29.4,0-44c0-18.7,0-37.3,0-55.9c0-12.4,0.1-24.7,0.1-37.1
			c0.2-3,0.5-5.9,0.5-8.9c0-40.1,0-80.1,0-120.2c-0.2-10.6-0.4-21.2-0.5-31.8c1.2-4.1,2.2-8.2,3.6-12.3c3.5-10.6,7.1-21.2,10.7-31.8
			c6.1-17.3,12.2-34.6,18.3-51.9c5.8-16,11.6-32.1,17.4-48.1c6.8-18.6,13.6-37.3,20.4-55.9c3.1-8.2,9.3-13.5,16.8-17.6
			c4.4-2.4,8.7-4.9,13-7.4c16.4-7.2,32.7-14.5,49.2-21.4c17.7-7.4,35.6-14.4,53.4-21.6c5.9-2.2,11.8-4.3,17.8-6.5
			c0.7,0.1,1.3,0.2,2,0.3c0.3,10,0.5,20,0.8,30c-0.2,8.8-0.5,17.7-0.3,26.5c0.1,5.8,1,11.7,1.6,17.5c-0.1,2-0.2,4-0.3,6
			c-6.2-0.3-11.2-5.9-18-4c-3.5,1-7.1,1.5-10.7,2c-19.4,2.9-37.7,8.8-52.8,21.5c-11.4,9.6-20.1,24.9-9.8,41.5
			c8,13,15.1,26.6,23.3,39.4c24.8,39.3,50.2,78.2,74.9,117.5c6.1,9.8,10.6,20.6,15.8,30.9c-3.4,14.4-6.8,28.8-10.2,43.3
			c-4.2,18.7-8.3,37.3-12.5,56c-2.3,12.1-4.8,24.3-6.8,36.4c-0.4,2.4,0.8,5,1.3,7.5c4.7,18.7,9.3,37.3,14,56
			c3.8,14.7,7.6,29.4,11.4,44.2c4.9,18.6,9.7,37.2,14.6,55.8c2.7,10.8,5.4,21.5,8.2,32.3c0.4,0.7,0.8,1.5,1.2,2.2l0,0
			c1.5,6.4,3,12.8,4.4,19.2c1.2,5.4,2.3,10.8,3.8,17.5c-6.1-3-10.7-5.3-15.3-7.5c-5.4-3.4-10.8-6.9-16.3-10.3
			c-36.4-21-72.8-41.9-109.2-62.9c-9.5-5.4-18.9-10.9-28.4-16.3c-3.3-1.9-6.5-3-9.9,0.3c-13.1,12.7-26.3,25.2-39.5,37.8
			C1604.5,1552.7,1604.3,1553.4,1604,1554z"/>
		<path class="st3" d="M1794.3,1240.8c-5.2-10.3-9.7-21.2-15.8-30.9c-24.7-39.3-50-78.3-74.9-117.5c-8.2-12.9-15.2-26.5-23.3-39.4
			c-10.3-16.6-1.6-31.9,9.8-41.5c15.1-12.7,33.4-18.6,52.8-21.5c3.6-0.5,7.2-1,10.7-2c6.8-1.8,11.8,3.8,18,4
			c1.2,2.7,1.9,5.8,3.8,7.9c12,14.2,24.3,28.1,36.5,42.1c10.6,15.5,21.3,30.9,31.9,46.4c9.5,17.8,19,35.7,28.5,53.5
			c6,14.7,12.1,29.4,18.1,44.1c5.7,18.7,11.4,37.4,17.1,56.2c2.9,13.9,5.8,27.9,8.7,41.8c1.5,13.4,3.1,26.8,4.6,40.2
			c0.6,5.2,1.2,10.5,1.8,15.7c0.6,14.7,1.2,29.4,1.8,44c-0.7,18.7-1.4,37.3-2.1,56c-1.8,14.7-3.6,29.3-5.4,44
			c-3.4,17.1-6.9,34.1-10.3,51c-4.5,0.5-7.8,0.9-11,1.3c-11.7,0-23.4-0.1-35.1-0.1c-4.6-1.5-3.1-5.2-3-8.3
			c0.2-14.6,0.4-29.3,0.6-43.9c-0.8-14.7-1.6-29.3-2.3-44c-2.9-18.8-5.9-37.6-8.8-56.3c-3.8-14.6-7.6-29.1-11.5-43.7
			c-7-18.8-13.9-37.5-20.9-56.3C1807.8,1269.4,1801.1,1255.1,1794.3,1240.8z"/>
		<path class="st2" d="M1863.9,2238.4c-1.2-12.9-2.2-25.8-3.5-38.7c-4.1-40.7-7.5-81.5-12.7-122.1c-5.2-40.9-12.4-81.7-27.9-120.3
			c-4.4-11-11.3-21-17-31.5c-1.2-2.3-2.8-4.6-3.1-7.1c-0.7-7.6-0.8-15.3-1.1-22.9c21.7-4.5,43.6-5.3,65.4-1.4
			c43.6,7.9,79.9,28.6,107.4,63.7c32.3,41.2,43.9,87.9,35.2,139.7c-2.9,16.9-8.9,32.6-15.8,48.2c-3.4,5.4-6.8,10.8-10.1,16.3
			c-0.1,0.2,1.3,1.3,1.9,2c-29.6,36.2-65.1,63.4-111.8,73.3C1868.6,2238.1,1866.2,2238.2,1863.9,2238.4z"/>
		<path class="st4" d="M1792.1,1593.4c5.4,3.4,10.8,6.9,16.3,10.3c-0.2,6.5-1.4,13.1,0.9,19.6c39.5,0,78.6,0,118.5,0
			c0.6-11.3,1-21.9-0.3-33.2c-9.4,0-17.7,0-26,0c0.2-5.4,0.4-10.8,0.6-16.3c9,0,18,0.5,27-0.1c8.5-0.6,14.3,2.1,17.1,10.3
			c0,12.8,0,25.7,0,39.9c8.4,0,16,0,23.5,0c6.3,0,12.6-0.1,18.9,0c9.2,0.2,13.3,4.2,13.4,13.4c0.2,15.3,0.1,30.5,0.1,45.8
			c0,8.9-0.1,17.9-0.1,26.9c-33.2,0.1-66.4,0.2-99.6,0.3c-0.4-3.2-0.8-6.4-1.2-9.7c-22.4,0-44,0-66.1,0c-0.3,3.6-0.6,6.6-0.9,9.5
			c-12.8,0.1-25.6,0.2-38.4,0.3c-0.5-6.9-1.1-13.9-1.4-20.8c-1.4-29.9-2.7-59.8-3.8-89.7C1790.4,1597.6,1791.5,1595.5,1792.1,1593.4
			z"/>
		<path class="st5" d="M1795.7,1710.2c12.8-0.1,25.6-0.2,38.4-0.3c0.8,7.8,1.5,15.6,2.3,23.4c22,0,43.1,0,65,0
			c0.3-8.1,0.6-15.7,0.9-23.2c33.2-0.1,66.4-0.2,99.6-0.3c0,24,0.2,48,0.1,72c0,11.9-4.3,16.1-16.4,16.1c-58,0.1-116,0-174,0
			c-5,0-10,0.1-15,0.1c-0.4-24.4-0.8-48.8-1.1-73.2C1795.4,1720,1795.6,1715.1,1795.7,1710.2z"/>
		<path class="st13" d="M1772,986c-0.6-5.8-1.5-11.7-1.6-17.5c-0.2-8.8,0.2-17.7,0.3-26.5c64.6,0,129.2,0,193.8,0.1
			c5.6,0,11.3,0.8,16.7,2.2c11.1,2.7,16.2,11.5,14.8,24.7c-1,9.2-8.9,15.6-18.2,16.9c-2.6,0.4-5.3,0.1-8,0.1
			C1903.8,986,1837.9,986,1772,986z"/>
		<path class="st13" d="M1843.8,1088.5c-10.6-15.5-21.3-30.9-31.9-46.4c52.9,0,105.7,0,158.6-0.1c7.2,0,13.8,1,19.1,6.6
			c6.4,6.7,8.9,15.9,5.1,23.7c-4,8.1-10,13.8-20.1,13.8c-39.9-0.1-79.8-0.1-119.7,0C1851.1,1086.1,1846.8,1084.5,1843.8,1088.5z"/>
		<path class="st13" d="M1890.4,1186c-6-14.7-12.1-29.4-18.1-44.1c33.7,0,67.3,0,100.9,0.1c14.5,0,23.3,9.8,22.8,24.2
			c-0.3,8.7-7,17.6-22.8,19.7c-2.3,0.3-4.7,0.1-7,0.1C1941,1186,1915.7,1186,1890.4,1186z"/>
		<path class="st8" d="M1750.2,918.1c-17.8,7.2-35.7,14.2-53.4,21.6c-16.5,6.9-32.8,14.2-49.2,21.4c0.8-6.4,1.5-12.7,2.3-19.1
			c1.4-10,2.9-20,4.3-30c2.1-1,4.1-2.7,6.3-3c12.7-1.8,21-10.8,30-18.5c7.8-6.7,15.2-13.8,22.9-20.6c1.1-1,3-1.2,4.5-1.8
			c7.6,12,15,24.1,22.7,36c1.7,2.6,4.4,4.6,6.6,6.9C1748.3,913.4,1749.3,915.7,1750.2,918.1z"/>
		<path class="st8" d="M1902.1,1573.8c-0.2,5.4-0.4,10.8-0.5,16.3c-1.1,2.7-1.9,5.6-3.3,8.2c-1.2,2.2-2.7,4.7-4.7,5.9
			c-18,10.3-37,12.7-57.6,6.9c1.6-7.3,3-14,4.4-20.7c2-5.5,3.9-10.9,5.9-16.4c4-11.3,8-22.5,12-33.8c0.8-1.3,1.5-2.6,2.3-3.9
			c11.7,0,23.4,0.1,35.1,0.1c0.2,0.5,0.4,1.1,0.5,1.6c0.6,0.7,1.2,1.4,1.8,2.1l-0.1,0.1c0.5,3.5,0.9,7,1.4,10.5
			C1900.2,1558.4,1901.1,1566.1,1902.1,1573.8z"/>
		<path class="st13" d="M1902.1,1573.8c-0.9-7.7-1.9-15.4-2.8-23.1c-0.4-3.5-0.9-7-1.4-10.5c25.9-0.1,51.8-0.2,77.7-0.1
			c11.3,0,18.9,8,20.4,15.7c2.3,11.8-2.7,22.3-12.4,25.3c-5.6,1.7-11.6,2.4-17.5,2.9c-6.6,0.5-13.3,0.1-19.9,0.1
			c-2.8-8.3-8.6-10.9-17.1-10.3C1920.1,1574.2,1911,1573.8,1902.1,1573.8z"/>
		<path class="st13" d="M1916.1,1284c-2.9-13.9-5.8-27.9-8.7-41.8c23-0.1,46-0.2,68.9-0.2c12.8,0.1,19.7,7.7,19.6,21.1
			c0,13.3-7,20.7-20,20.8C1956.1,1284.1,1936.1,1284,1916.1,1284z"/>
		<path class="st13" d="M1916.9,1484c1.8-14.7,3.6-29.3,5.4-44c17,0,34-0.1,50.9,0c13.3,0.1,21.9,8.7,23,21.1
			c0.9,10.7-8.8,22.9-22.4,22.9C1954.8,1484,1935.8,1484,1916.9,1484z"/>
		<path class="st13" d="M1924.3,1384c-0.6-14.7-1.2-29.4-1.8-44c17,0,34-0.2,51,0.1c13.8,0.2,23.1,10.4,22.5,23.7
			c-0.5,10.9-9.6,20-20.7,20.2C1958.3,1384.2,1941.3,1384,1924.3,1384z"/>
		<path class="st2" d="M1982.7,2164.4c-0.7-0.7-2.1-1.8-1.9-2c3.3-5.5,6.7-10.9,10.1-16.3c1.7-1.3,4-2.3,5.1-4
			c14.7-22.8,23.3-47.9,25.7-74.8c3.3-36.7-3.4-71.8-22.7-103.6c-32.6-53.6-80.4-82.6-143.4-85.9c-19.5-1-38.4,2.4-57.2,7
			c0-0.9,0-1.9,0-2.9c71.5-19.3,133.2-2.2,183.2,52c57.5,62.3,58.9,161.9,4.8,227.3C1985.5,2162.5,1984,2163.3,1982.7,2164.4z"/>
		<path class="st13" d="M1897.9,1540.1c-0.6-0.7-1.2-1.4-1.8-2.1C1896.7,1538.7,1897.3,1539.4,1897.9,1540.1z"/>
		<path class="st13" d="M1770,911.9c-0.7-0.1-1.3-0.2-2-0.3C1768.7,911.8,1769.3,911.8,1770,911.9z"/>
		<path class="st3" d="M1075.7,1960.2c-9.1-0.2-18.2-0.4-27.3-0.6l-0.2,0.2c-10.7-0.4-21.3-0.9-32-1.4c-26-0.7-51.9-1.4-77.8-2.1
			c-12.5-0.7-25-1.3-38.4-2.1c2.5-14.2,4.8-27.5,7-40.9c1.8-10.5,3.4-20.9,5.1-31.4c2.9-14.6,5.8-29.2,8.6-43.8
			c4-18.7,7.9-37.4,11.9-56.1c2.4-14.7,4.8-29.4,7.3-44.2c3.2-18.6,2.7-37.3,1.3-55.9c-1.9-14.8-3.9-29.5-5.8-44.2
			c-5-18-10.1-36-15.1-53.9c-3-14.7-6-29.4-9.1-44.1c-1.9-18.6-2-37.2,0.3-55.8c5-14.6,10-29.2,15-43.8c12.2-20.6,28.5-38,44.2-55.9
			c2.9-2.8,5.8-5.6,8.8-8.4c3,0.1,6,0.3,9,0.3c42,0,83.9,0,125.9,0c2.6,8.9,5.2,17.7,7.6,26.7c1.5,5.7,2.6,11.4,3.9,17.1
			c0.6,4,1.2,8.1,1.8,12.1c0.3,4.6,0.7,9.2,1.1,13.8c0.3,2.1,0.6,4.1,0.8,6.2c0.4,5.3,0.7,10.5,1.1,15.8c0.1,2.1,0.1,4.2,0.2,6.3
			c0.4,5.3,0.8,10.5,1.2,15.8c0,2,0,4.1,0,6.1c0.1,18.6,0.3,37.2,0.4,55.8c-0.1,4.7-0.2,9.4-0.2,14.1c-0.8,24-1.6,48-2.4,72
			c-0.9,14.6-1.8,29.3-2.7,43.9c-1.4,18.6-2.8,37.2-4.3,55.8c-1.2,14.7-2.3,29.4-3.5,44c-1.8,18.7-3.6,37.5-5.4,56.2
			c-1.7,14.5-3.4,29.1-5.1,43.6c-3.2,25.7-6.4,51.3-9.8,78C1091.3,1959.8,1083.5,1960,1075.7,1960.2z"/>
		<path class="st13" d="M1119.4,1781.8c1.2-14.7,2.3-29.4,3.5-44c5,0.1,10,0.3,15,0.3c138,0,276.1,0,414.1,0
			c-0.5,14.7-0.9,29.4-1.4,44.2c-22.6-0.1-45.3-0.1-67.9-0.1c-116.5,0-232.9,0-349.4,0C1128.7,1782,1124.1,1781.8,1119.4,1781.8z"/>
		<path class="st1" d="M1108.9,1881.6c1.7-14.5,3.4-29.1,5.1-43.6c121.9,0,243.7,0,365.6,0c11.7,0,18.9,4.2,22.4,13
			c6.1,15.1-3.3,29.2-20.5,30.9c-2,0.2-4,0.1-6,0.1c-118.9,0-237.7,0-356.6,0C1115.6,1882,1112.3,1881.8,1108.9,1881.6z"/>
		<path class="st4" d="M1114.4,1376.2c-42,0-83.9,0-125.9,0c-3,0-6-0.2-9-0.3c0.6-2.6,1.5-5.1,1.9-7.7c1.6-9.4,3.1-18.8,4.6-28.2
			c2-13.9,0.2-27.2-6.5-39.6c-3-5.5-6-11.1-9-16.6c-6.9-16.6-13.8-33.3-20.8-49.8c-0.3-0.8-1.3-1.4-2-2.1c-3-10.8-5.9-21.7-9.2-32.4
			c-11.1-36.3-15.5-73.4-12.3-111.1c3.3-39.4,17.5-74.8,45.8-103.5c8.3-8.5,16.1-17.7,27.3-22.7c-3,5.9,0.2,10.1,3.9,14.1
			c15.7,17.1,34.6,29.8,55,40.5c2.2,1.2,4.6,1.9,7.3,3c0-3.7,0-6.6,0-9.5c4.6,5.8,9.2,11.5,13.9,17.3c3,4.8,5.9,9.5,8.9,14.3
			c9.2,14.7,18.5,29.3,27.7,44c10.4,18.8,20.8,37.5,31.2,56.3c0.6,1.5,1.1,3.1,1.8,4.6c4.7,9.5,6.4,19.1,2.9,29.5
			c-1,3.1-1.1,6.4-1.6,9.6c-3.5,18.7-6.9,37.3-10.4,56c-1.5,7.1-2.5,14.4-4.6,21.3c-2.3,7.7-0.9,14.3,3.3,20.8
			c1.1,3.3,2.2,6.6,3.3,9.9c-7-2.8-9.7-9.7-14.1-15c-19.5-23.3-35.6-48.8-49.2-75.8c-8.8-17.5-17.4-35.2-24.6-53.4
			c-9.5-24.1-18.5-48.4-25.8-73.2c-8-27.3-13.8-55.2-20.4-82.9c-1-4-3.1-5.3-6.9-5.7c-6.4-0.7-11.9,1.8-16.8,5.2
			c-18.5,12.8-31.8,29.8-41.1,50.2c-3.5,7.7-4.1,15.3-1.9,23.2c10.5,37.9,25.9,73.9,42.8,109.3c15.4,32.1,33.4,62.8,54.8,91.3
			c13.3,17.7,27.6,34.8,42.6,51.1c18.2,19.8,39.3,36.6,61.8,51.4c3.5,2.3,6.6,4.5,7,9c-5.5,8.7-10.9,17.4-16.4,26.1
			c-4.3-7.1-8.5-14.3-13.1-21.2C1119.1,1380.8,1116.6,1378.6,1114.4,1376.2z"/>
		<path class="st13" d="M986,1340c-1.5,9.4-3,18.8-4.6,28.2c-0.4,2.6-1.3,5.1-1.9,7.7c-2.9,2.8-5.8,5.6-8.8,8.4
			c-40.3-0.1-80.5-0.2-120.8-0.3c-2.7,0-5.3,0-8,0c-13.9-0.3-23.6-9-24-21.4c-0.3-11.7,8.9-21.1,22.2-22.5c2.6-0.3,5.3-0.1,8-0.1
			C894.2,1340,940.1,1340,986,1340z"/>
		<path class="st13" d="M935.4,1637.8c1.9,14.8,3.9,29.5,5.8,44.2c-33.7,0-67.3,0-101-0.1c-10.6,0-17.6-5.3-20.8-15.1
			c-3.5-10.8,3.4-23.9,14.3-26.8c4.8-1.3,9.8-2,14.7-2C877.4,1637.8,906.4,1637.9,935.4,1637.8z"/>
		<path class="st13" d="M939.8,1738c-2.4,14.7-4.8,29.4-7.3,44.2c-29.9-0.1-59.8-0.2-89.7-0.1c-8.5,0-15.8-2.5-20.6-9.7
			c-4.8-7-5.9-14.4-1.4-22.4c4.6-8.2,11.6-11.7,20.3-11.9c17.3-0.3,34.5-0.1,51.8-0.1C908.6,1738,924.2,1738,939.8,1738z"/>
		<path class="st13" d="M926.6,1440.2c-5,14.6-10,29.2-15,43.8c-23.3,0-46.6,0-69.9,0c-8.1,0-14.8-3.1-19.6-9.9
			c-11-15.8,2.5-34.1,18.6-34.1c12.3,0,24.6,0,37,0C894,1440.1,910.3,1440.1,926.6,1440.2z"/>
		<path class="st13" d="M920.7,1838.2c-2.9,14.6-5.8,29.2-8.6,43.8c-22.6,0-45.2-0.1-67.8,0c-8.1,0.1-14.5-2.8-20.2-8.8
			c-6.8-7-7.8-14.6-3.8-22.8c3.7-7.5,9.5-12.6,18.7-12.5c20.3,0.1,40.5,0,60.8,0C906.8,1838,913.7,1838.2,920.7,1838.2z"/>
		<path class="st13" d="M911.2,1539.8c3,14.7,6,29.4,9.1,44.1c-24.9,0-49.8,0.2-74.7,0.1c-8.5,0-15.9-2.4-22-9.2
			c-6.2-6.9-7.1-14.1-3.4-22c3.6-7.6,9.3-12.8,18.4-12.8c14.9,0,29.9,0,44.8,0C892.6,1540,901.9,1539.9,911.2,1539.8z"/>
		<path class="st13" d="M947.8,1231.9c0.7,0.7,1.6,1.3,2,2.1c7,16.6,13.9,33.2,20.8,49.8c-43.6,0.1-87.2,0.1-130.9,0.3
			c-5.7,0-10.7-1.4-14.2-5.8c-4.5-5.6-10.1-6.7-16.8-6.4c-4.1,0.2-8.3-1-12.5-1.6c15.9-0.5,31.8-0.2,47.6-1.8
			C881.3,1264.6,915.7,1251.5,947.8,1231.9z"/>
		<path class="st11" d="M1117.5,791.5c1.5,8.8,3,17.6,4.5,26.5c0.7,14.7,1.3,29.3,2,44c-1.7,27-2.7,54.1-11.9,80
			c-0.9,1.8-2,3.5-2.6,5.3c-3.8,10.6-11,16-22.4,15.2c-8.3-2.1-16.6-4.3-24.9-6.4c-5.1-2.2-10.5-3.9-15.2-6.7
			c-11.2-6.8-22.1-14.2-33-21.4c-3.5-4.9-6.9-9.8-10.3-14.7c0.9-3.1,2.2-6.2,2.5-9.4c0.7-7.1-2-11.9-7.7-14.5
			c-5.9-2.7-11.8-1.2-16.8,4.2c-1.5,1.6-3,3.3-4.5,5c-3.5-4.2-7-8.4-11.8-14c5.2-1.9,8.4-3.2,11.7-4.2c24.7-7.8,48.6-17.7,71.2-30.3
			C1075.1,835,1099.4,816.9,1117.5,791.5z"/>
		<path class="st8" d="M1013.9,927.9c11,7.2,21.8,14.6,33,21.4c4.7,2.9,10.1,4.5,15.2,6.7c-3.4,17.3-3.2,34.5,2.1,51.4
			c0.5,0.9,1.1,1.9,1.6,2.8l-0.2,0.1c0,2.9,0,5.8,0,9.5c-2.7-1.1-5.2-1.8-7.3-3c-20.4-10.7-39.3-23.4-55-40.5
			c-3.7-4-6.9-8.3-3.9-14.1C1004.2,950.8,1009,939.3,1013.9,927.9z"/>
		<path class="st13" d="M874,989.9c-0.6-4.3-3.8-3.9-6.8-3.9c-9,0-18,0.1-26.9,0c-11.1-0.1-18.9-6.3-21.5-16.9
			c-2.1-8.3,3.5-20.7,12.1-24c5.4-2.1,11.6-2.7,17.5-2.9c12.3-0.4,24.6-0.2,36.9-0.2C884.6,958.7,882.5,975,874,989.9z"/>
		<path class="st13" d="M877.6,862c-12.3,0-24.5,0.2-36.8-0.1c-8-0.1-14.4-3.5-19.1-10.4c-10-14.6,1.9-33.1,18.3-33.5
			c11.9-0.3,23.8-0.1,35.8-0.1C876.4,832.7,877,847.3,877.6,862z"/>
		<path class="st2" d="M977,898.5c1.5-1.7,3-3.3,4.5-5c5-5.4,10.9-6.8,16.8-4.2c5.6,2.5,8.4,7.3,7.7,14.5c-0.3,3.2-1.6,6.3-2.5,9.4
			c-1.5,0.6-3,1.3-4.6,1.9c-10.4,3.5-17.8-0.4-20.5-10.9C978,902.3,977.5,900.4,977,898.5z"/>
		<path class="st2" d="M1765.5,2226.2c-31.6-12.7-56.2-34.2-75.1-62c-20.6-30.3-30.8-64.3-29.8-100.9c1.2-41.9,14.8-79.5,43.2-111
			c3.9,16.1,7.9,32.2,11.5,48.4c16.7,74.2,33.3,148.3,50,222.5C1765.6,2224.2,1765.5,2225.2,1765.5,2226.2z"/>
		<path class="st9" d="M1798.5,1884.7c18.8-4.5,37.7-8,57.2-7c63,3.3,110.8,32.3,143.4,85.9c19.3,31.8,26,66.8,22.7,103.6
			c-2.4,26.8-11,52-25.7,74.8c-1.1,1.7-3.4,2.7-5.1,4c6.9-15.5,12.9-31.3,15.8-48.2c8.8-51.8-2.9-98.4-35.2-139.7
			c-27.4-35-63.8-55.8-107.4-63.7c-21.8-4-43.7-3.1-65.4,1.4C1798.7,1892.2,1798.6,1888.4,1798.5,1884.7z"/>
		<path class="st7" d="M1552,1738c-138,0-276.1,0-414.1,0c-5,0-10-0.2-15-0.3c1.4-18.6,2.8-37.2,4.3-55.8c4.3,0,8.7,0.1,13,0.1
			c137.9,0,275.8,0,413.7,0C1553.3,1700.7,1552.7,1719.3,1552,1738z"/>
		<path class="st7" d="M1129.9,1638c0.8-24,1.6-48,2.4-72c3.9,1.7,8,3.1,11.6,5.3c15.9,9.3,31.6,18.9,47.5,28.3
			c6.2,3.7,7.6,3.1,11.6-3.5c2.9-4.8,6-9.4,9-14.1c3.8,0.7,7.6,1.9,11.3,1.9c108,0.1,216,0.1,324.1,0.1c0.2,8.7,0.4,17.4,0.6,26.1
			c0.7,0,1.3,0.1,2,0.1c2-2.8,4-5.5,6-8.3c0.4,2.5,1.1,5,1,7.5c-0.3,9.5-0.9,19-1.3,28.5C1413.8,1638,1271.8,1638,1129.9,1638z"/>
		<path class="st13" d="M1129.9,1638c141.9,0,283.8,0,425.7,0c-0.6,14.7-1.1,29.3-1.7,44c-137.9,0-275.8,0-413.7,0
			c-4.3,0-8.7-0.1-13-0.1C1128.1,1667.3,1129,1652.7,1129.9,1638z"/>
		<path class="st10" d="M1016.2,1958.4c10.7,0.4,21.3,0.9,32,1.4c-8.8,0.1-17.7,0.2-26.5,0.1
			C1019.8,1959.9,1018,1958.9,1016.2,1958.4z"/>
		<path class="st1" d="M1087,962.4c11.4,0.8,18.7-4.6,22.4-15.2c0.7-1.8,1.7-3.5,2.6-5.3c179.3,0,358.6,0,537.9,0
			c-0.8,6.4-1.5,12.7-2.3,19.1c-4.3,2.5-8.6,5-13,7.4c-7.5,4.1-13.7,9.3-16.8,17.6c-177.2,0-354.4,0-531.7,0
			C1086.5,978.2,1086.8,970.3,1087,962.4z"/>
		<path class="st1" d="M1124,862c-0.7-14.7-1.3-29.3-2-44c22.6,0,45.2,0,67.7,0c11.3,0,19,4.7,22.3,13.2
			c6.1,15.7-3.9,30.5-21.3,30.7C1168.5,862.2,1146.3,862,1124,862z"/>
		<path class="st7" d="M1086.2,986c177.2,0,354.4,0,531.7,0c-6.8,18.6-13.6,37.3-20.4,55.9c-169.7,0-339.5,0-509.2,0
			c-3-4.8-5.9-9.5-8.9-14.3C1081.7,1013.8,1083.9,999.9,1086.2,986z"/>
		<path class="st7" d="M1147.2,1142.3c-10.4-18.8-20.8-37.5-31.2-56.3c150.8,0,301.5,0,452.3,0c2.7,0,5.4-0.4,7.9,0.3
			c1.5,0.4,2.5,2.5,3.8,3.8c-6.1,17.3-12.2,34.6-18.3,51.9c-133.5,0-267,0-400.5,0C1156.5,1142,1151.9,1142.2,1147.2,1142.3z"/>
		<path class="st7" d="M1139.9,1242c3.5-18.7,6.9-37.3,10.4-56c132.4,0,264.7,0,397.1,0c0.2,10.6,0.4,21.2,0.5,31.8
			c-6,8.1-11.9,16.1-17.9,24.2C1400,1242,1270,1242,1139.9,1242z"/>
		<path class="st13" d="M1580,1090.1c-1.2-1.3-2.3-3.4-3.8-3.8c-2.5-0.7-5.3-0.3-7.9-0.3c-150.8,0-301.5,0-452.3,0
			c-9.2-14.7-18.5-29.3-27.7-44c169.7,0,339.4,0,509.2,0C1591.7,1058,1585.8,1074,1580,1090.1z"/>
		<path class="st13" d="M1547.4,1186c-132.4,0-264.7,0-397.1,0c0.5-3.2,0.6-6.6,1.6-9.6c3.5-10.3,1.8-20-2.9-29.5
			c-0.7-1.5-1.2-3.1-1.8-4.6c4.7-0.1,9.3-0.3,14-0.3c133.5,0,267,0,400.5,0c-3.6,10.6-7.2,21.2-10.7,31.8
			C1549.6,1177.8,1548.6,1181.9,1547.4,1186z"/>
		<path class="st7" d="M1547.4,1484c0,18.7,0,37.3,0,55.9c-13,0-25.9,0-38.9,0c-80.5,0-160.9,0-241.4-0.1c-3.7,0-7.5-1.4-11.2-2.2
			c8.4-11.5,11.1-23.9,5.8-37.5c2.8-5.4,5.6-10.8,8.4-16.3C1362.5,1484,1454.9,1484,1547.4,1484z"/>
		<path class="st1" d="M1255.8,1537.8c3.7,0.8,7.5,2.2,11.2,2.2c80.5,0.1,160.9,0.1,241.4,0.1c13,0,25.9,0,38.9,0
			c0,14.7,0,29.4,0,44.1c-108,0-216,0-324.1-0.1c-3.8,0-7.6-1.2-11.3-1.9c5.3-8.7,10.6-17.4,15.8-26
			C1239.1,1552.9,1247.2,1544.8,1255.8,1537.8z"/>
		<path class="st1" d="M1547.4,1484c-92.5,0-184.9,0-277.4,0c8.7-14.7,17.3-29.3,26-44c24.1,0,48.3,0.1,72.4-0.1
			c3.2,0,6.3-1.1,9.4-1.6c9.1,3.8,18.3,5.4,27.8,1.6c47.3,0,94.5,0.1,141.8,0.1C1547.4,1454.7,1547.4,1469.3,1547.4,1484z"/>
		<path class="st6" d="M1530,1242c6-8.1,11.9-16.1,17.9-24.2c0,40.1,0.1,80.1,0,120.2c0,3-0.3,5.9-0.5,8.9
			c-4.4,2.7-8.7,5.5-13.1,8.1c-16.8,9.7-33.7,19.3-50.5,28.9c-17.4,7.6-34.8,15.3-52.3,22.8c-3.5,1.5-7.4,2.2-11.2,3.3
			c0.9-10.5-1.6-19.2-11.5-25.1c-4.5-2.7-9.6-6-10.1-12.4c17-8.3,32.2-19.1,45.8-32.2c2.8-2.3,6-4.2,8.4-6.8
			c15-16.2,29.8-32.5,44.7-48.8C1508.5,1270.4,1519.3,1256.2,1530,1242z"/>
		<path class="st7" d="M1420.4,1410c3.7-1.1,7.6-1.8,11.2-3.3c17.5-7.5,34.9-15.2,52.3-22.8c21.2,0.1,42.4,0.1,63.6,0.2
			c0,18.7,0,37.3,0,55.9c-47.3,0-94.5-0.1-141.8-0.1C1413.6,1431.4,1420.6,1422.5,1420.4,1410z"/>
		<path class="st9" d="M1846.9,1383.7c2.9,18.8,5.9,37.6,8.8,56.3c-25.2,0-50.4,0-75.6,0c-4.7-18.7-9.3-37.3-14-56
			C1793,1383.9,1820,1383.8,1846.9,1383.7z"/>
		<path class="st9" d="M1860.5,1536.2c-0.8,1.3-1.5,2.6-2.3,3.9c-17.4-0.1-34.8-0.1-52.2-0.2c-4.9-18.6-9.7-37.2-14.6-55.8
			c22.2-0.1,44.4-0.1,66.6-0.2c-0.2,14.6-0.4,29.3-0.6,43.9C1857.5,1531.1,1855.9,1534.7,1860.5,1536.2z"/>
		<path class="st13" d="M1846.9,1383.7c-26.9,0.1-53.9,0.2-80.8,0.3c-0.5-2.5-1.7-5.2-1.3-7.5c2.1-12.2,4.5-24.3,6.8-36.4
			c21.3,0,42.6,0,63.8,0C1839.3,1354.6,1843.1,1369.1,1846.9,1383.7z"/>
		<path class="st13" d="M1858.1,1484c-22.2,0.1-44.4,0.1-66.6,0.2c-3.8-14.7-7.6-29.4-11.4-44.2c25.2,0,50.4,0,75.6,0
			C1856.5,1454.7,1857.3,1469.3,1858.1,1484z"/>
		<path class="st9" d="M1835.4,1340c-21.3,0-42.6,0-63.8,0c4.2-18.7,8.3-37.3,12.5-56c10.2-0.1,20.3-0.2,30.5-0.3
			C1821.5,1302.5,1828.5,1321.3,1835.4,1340z"/>
		<path class="st9" d="M1840.3,1590.3c-1.4,6.7-2.9,13.3-4.4,20.7c20.7,5.8,39.6,3.4,57.6-6.9c2-1.2,3.5-3.7,4.7-5.9
			c1.4-2.6,2.3-5.4,3.3-8.2c8.3,0,16.6,0,25.9,0c1.3,11.3,0.9,22,0.3,33.2c-39.9,0-79,0-118.5,0c-2.3-6.5-1.1-13.1-0.9-19.6
			c4.6,2.3,9.2,4.5,15.3,7.5c-1.4-6.7-2.6-12.1-3.8-17.5c1.6-1.2,3.2-3.3,4.9-3.5C1829.9,1589.8,1835.1,1590.2,1840.3,1590.3z"/>
		<path class="st13" d="M1806.1,1540c17.4,0.1,34.8,0.1,52.2,0.2c-4,11.3-8,22.5-12,33.8c-10.3,0.2-20.5,0.4-30.8,0.7c0,0,0,0,0,0
			c-0.4-0.7-0.8-1.5-1.2-2.2C1811.5,1561.5,1808.8,1550.8,1806.1,1540z"/>
		<path class="st0" d="M1547.4,1384c-21.2-0.1-42.4-0.1-63.6-0.2c16.8-9.6,33.7-19.2,50.5-28.9c4.4-2.6,8.8-5.4,13.1-8.1
			C1547.5,1359.3,1547.4,1371.7,1547.4,1384z"/>
		<path class="st0" d="M1814.6,1283.8c-10.2,0.1-20.3,0.2-30.5,0.3c3.4-14.4,6.8-28.8,10.2-43.3
			C1801.1,1255.1,1807.8,1269.4,1814.6,1283.8z"/>
		<path class="st14" d="M1815.4,1574.5c10.3-0.2,20.5-0.4,30.8-0.7c-2,5.5-3.9,10.9-5.9,16.4c-5.2-0.1-10.4-0.4-15.6-0.1
			c-1.7,0.1-3.3,2.3-4.9,3.5C1818.4,1587.3,1816.9,1580.9,1815.4,1574.5z"/>
		<path class="st0" d="M1550,1610.2c-0.7,0-1.3-0.1-2-0.1C1548.7,1610.2,1549.3,1610.2,1550,1610.2z"/>
		<path class="st14" d="M1814.3,1572.3c0.4,0.7,0.8,1.5,1.2,2.2C1815.1,1573.8,1814.7,1573,1814.3,1572.3z"/>
		<path class="st6" d="M1902.3,1710.1c-0.3,7.6-0.6,15.1-0.9,23.2c-21.9,0-43.1,0-65,0c-0.8-7.9-1.5-15.7-2.3-23.4
			c0.3-2.9,0.5-5.8,0.9-9.5c22,0,43.7,0,66.1,0C1901.5,1703.8,1901.9,1706.9,1902.3,1710.1z"/>
		<path class="st9" d="M1132.5,1551.9c-0.1-18.6-0.3-37.2-0.4-55.8c5.5,3.1,11.1,6,16.5,9.2c8.6,4.9,17.2,10,25.8,14.9
			c2.1,1.2,4.6,3.1,7.7-1c-2.5-2-4.9-4.1-7.5-5.8c-3.6-2.3-7.4-4.5-11.2-6.5c-10.4-5.7-20.9-11.3-31.4-16.9
			c-0.4-5.3-0.8-10.5-1.2-15.8c1.8,0.7,3.8,1.2,5.5,2.2c24.2,14.3,48.4,28.8,72.6,43.1c5,3,10.2,5.6,15.3,8.4
			c0.5-0.4,1.1-0.9,1.6-1.3c-0.8-1.8-1-4.2-2.3-5.4c-2.8-2.3-6-4.1-9.2-5.9c-24.8-14.7-49.6-29.4-74.5-44c-2.8-1.6-6.1-2.3-9.2-3.4
			c-0.4-5.3-0.7-10.5-1.1-15.8c1,0.2,2.1,0,2.9,0.5c26.9,15.8,53.7,31.8,80.7,47.5c7,4,13.2,9.8,21.9,11.3c1.5-4.9-1.5-6.3-4.4-8
			c-31.2-18.3-62.3-36.8-93.5-55.1c-2.4-1.4-5.6-1.6-8.4-2.4c-0.3-4.6-0.7-9.2-1.1-13.8c1.4-1.3,3.2-2.5,4.1-4.1
			c7.3-12.2,14.2-24.6,21.6-36.7c2.1-3.4,5.4-6.2,8.2-9.2c38.3,22.8,80.2,34.9,124.2,40.2c2.3,1,4.6,2,7.7,3.3
			c-32.1,54.3-64,108.2-96.4,163.1c-9.9-5.9-18.9-11.4-28.1-16.6C1156.9,1565.2,1144.7,1558.6,1132.5,1551.9z M1189.5,1572.2
			c9.8-0.2,16.8-7.4,16.5-17.3c-0.3-9-7.7-16.3-16.7-16.5c-9-0.2-17.1,8-17.1,17.2C1172.2,1565.2,1179.7,1572.3,1189.5,1572.2z
			 M1262.6,1464.1c2.4-5.6-0.8-7-3.7-8.7c-12.3-7.3-24.5-14.7-36.8-22c-18.5-11-37.1-22.1-55.7-33c-3-1.8-6.2-3.9-11.1,0.3
			C1191.2,1422.3,1226.4,1443,1262.6,1464.1z M1246.2,1491.7c-1.9-1.7-3-2.9-4.4-3.7c-19.1-11.3-38.2-22.5-57.4-33.8
			c-12.3-7.2-24.6-14.4-36.9-21.4c-2.5-1.4-5.3-4.3-9.6-0.8c1.9,1.7,3.3,3.4,5.1,4.5c11.4,6.8,22.8,13.4,34.2,20.2
			c19.3,11.5,38.6,23.2,57.9,34.7C1238.2,1493.2,1241.4,1495.6,1246.2,1491.7z M1253.1,1480.3c1.5-7.4-3.2-9-7-11.3
			c-18-10.6-36-21.2-54-31.8c-10.8-6.4-21.6-13.1-32.5-19.3c-3.1-1.8-6.3-5.3-11.4-2.5c1,1.6,1.5,3.4,2.7,4.1
			C1184.6,1439.7,1218.4,1459.8,1253.1,1480.3z"/>
		<path class="st5" d="M1132.5,1551.9c12.2,6.7,24.4,13.4,36.5,20.2c9.2,5.2,18.2,10.7,28.1,16.6c32.4-54.8,64.3-108.8,96.4-163.1
			c-3.1-1.3-5.4-2.3-7.7-3.3c5.4,0.7,10.8,1.3,16.2,2c-2.1,5.2-4.1,10.4-6.2,15.7c-8.7,14.7-17.3,29.3-26,44
			c-2.8,5.4-5.6,10.8-8.4,16.2c-1.4,1.1-3.3,2-4.3,3.5c-4.7,7.6-9.2,15.2-13.5,22.9c-5.4,9.7-10.7,19.6-16,29.3
			c-5.3,8.7-10.6,17.4-15.8,26c-3,4.7-6.1,9.3-9,14.1c-4,6.6-5.4,7.2-11.6,3.5c-15.9-9.4-31.6-19-47.5-28.3
			c-3.7-2.1-7.7-3.5-11.6-5.3C1132.4,1561.3,1132.5,1556.6,1132.5,1551.9z"/>
		<path class="st5" d="M1128.8,1445.9c2.8,0.8,5.9,1,8.4,2.4c31.2,18.3,62.4,36.7,93.5,55.1c2.9,1.7,5.9,3.1,4.4,8
			c-8.7-1.6-14.9-7.3-21.9-11.3c-27-15.7-53.8-31.7-80.7-47.5c-0.8-0.5-1.9-0.3-2.9-0.5C1129.4,1450,1129.1,1447.9,1128.8,1445.9z"
			/>
		<path class="st5" d="M1130.7,1467.8c3.1,1.1,6.4,1.8,9.2,3.4c24.9,14.6,49.7,29.3,74.5,44c3.1,1.9,6.4,3.6,9.2,5.9
			c1.3,1.1,1.6,3.5,2.3,5.4c-0.5,0.4-1.1,0.9-1.6,1.3c-5.1-2.8-10.3-5.5-15.3-8.4c-24.2-14.3-48.4-28.8-72.6-43.1
			c-1.7-1-3.7-1.4-5.5-2.2C1130.8,1472,1130.8,1469.9,1130.7,1467.8z"/>
		<path class="st5" d="M1161.7,1382.1c-2.8,3-6.1,5.7-8.2,9.2c-7.4,12.1-14.4,24.5-21.6,36.7c-0.9,1.6-2.7,2.7-4.1,4.1
			c-0.6-4-1.2-8.1-1.8-12.1c3.1-4.9,7.8-8.9,7.9-15.4c5.5-8.7,10.9-17.4,16.4-26.1C1155.4,1375.6,1158.3,1379.8,1161.7,1382.1z"/>
		<path class="st5" d="M1132.1,1489.9c10.5,5.6,20.9,11.3,31.4,16.9c3.8,2.1,7.5,4.2,11.2,6.5c2.6,1.7,5,3.8,7.5,5.8
			c-3.1,4-5.5,2.2-7.7,1c-8.7-4.9-17.2-10-25.8-14.9c-5.5-3.1-11-6.1-16.5-9.2C1132.1,1494,1132.1,1492,1132.1,1489.9z"/>
		<path class="st0" d="M1133.8,1404.6c0,6.4-4.8,10.5-7.9,15.4c-1.3-5.7-2.4-11.5-3.9-17.1c-2.4-8.9-5.1-17.8-7.6-26.7
			c2.1,2.4,4.6,4.6,6.3,7.2C1125.3,1390.4,1129.5,1397.6,1133.8,1404.6z"/>
		<path class="st5" d="M1161.7,1382.1c-3.4-2.4-6.3-6.6-11.4-3.6c-0.4-4.5-3.5-6.7-7-9c-22.5-14.8-43.6-31.6-61.8-51.4
			c-15-16.3-29.3-33.4-42.6-51.1c-21.4-28.4-39.4-59.2-54.8-91.3c-16.9-35.3-32.3-71.4-42.8-109.3c-2.2-7.9-1.6-15.5,1.9-23.2
			c9.3-20.4,22.7-37.4,41.1-50.2c4.9-3.4,10.4-5.8,16.8-5.2c3.8,0.4,6,1.7,6.9,5.7c6.6,27.7,12.4,55.6,20.4,82.9
			c7.3,24.8,16.3,49.2,25.8,73.2c7.2,18.2,15.8,35.9,24.6,53.4c13.6,27,29.7,52.5,49.2,75.8c4.4,5.3,7.1,12.1,14.1,15
			c1.4,2.2,2.4,4.8,4.2,6.6c13.9,14.6,28.2,28.7,45.2,39.6c2.6,2.1,4.9,4.5,7.8,6.2c8.9,5.1,18.3,9.4,26.9,15
			c22,14.1,46.2,22.3,71.6,26.6c14.4,2.4,29.1,2.8,43.7,4c3.1,0.3,7.1-1.1,7.4,4.1c-6,6.5-4.1,15-7,23.2c3.1,0.4,4.9,0.6,6.8,0.9
			c-2.9,4.3-7.5,3.4-11.6,3.6c-11.6,0.4-23.1,0.5-34.7,0.8c-5.4-0.7-10.8-1.3-16.2-2C1241.9,1417,1200,1405,1161.7,1382.1z"/>
		<path class="st7" d="M1191.4,1340.2c-17.1-10.9-31.3-25.1-45.2-39.6c-1.8-1.8-2.8-4.4-4.2-6.6c-1.1-3.3-2.2-6.6-3.3-9.9
			c116.4,0,232.8,0,349.2,0c3.3,0,6.6,0.4,9.9,0.6c-14.9,16.3-29.7,32.6-44.7,48.8c-2.4,2.6-5.6,4.6-8.4,6.8
			c-63.8-0.1-127.6-0.2-191.4-0.2C1232.6,1340,1212,1340.2,1191.4,1340.2z"/>
		<path class="st13" d="M1497.8,1284.6c-3.3-0.2-6.6-0.6-9.9-0.6c-116.4,0-232.8,0-349.2,0c-4.2-6.4-5.7-13.1-3.3-20.8
			c2.1-6.9,3.1-14.2,4.6-21.3c130,0,260.1,0,390.1,0C1519.3,1256.2,1508.5,1270.4,1497.8,1284.6z"/>
		<path class="st3" d="M1086.2,986c-2.3,13.9-4.5,27.8-6.8,41.7c-4.6-5.8-9.2-11.5-13.9-17.3l0.2-0.1c-0.5-0.9-1.1-1.9-1.6-2.8
			c-5.3-17-5.5-34.1-2.1-51.4c8.3,2.1,16.6,4.3,24.9,6.4C1086.8,970.3,1086.5,978.2,1086.2,986z"/>
		<path class="st15" d="M1064.2,1007.5c0.5,0.9,1.1,1.9,1.6,2.8C1065.2,1009.3,1064.7,1008.4,1064.2,1007.5z"/>
		<path class="st8" d="M1227.8,1556c5.3-9.8,10.5-19.6,16-29.3c4.3-7.7,8.9-15.4,13.5-22.9c0.9-1.5,2.8-2.3,4.3-3.5
			c5.3,13.6,2.7,26-5.8,37.5C1247.2,1544.8,1239.1,1552.9,1227.8,1556z"/>
		<path class="st10" d="M1420.4,1410c0.2,12.5-6.7,21.5-14.8,29.9c-9.5,3.8-18.7,2.2-27.8-1.6c-8-3.8-15.3-8.1-15.9-18.3
			c8.8,0.7,13.6-4.4,16.2-11.8c3.4-9.6,2.2-19.6,1-29.4c-0.2-1.6-2.1-2.9-4.1-5.7c-2.8,4.5-5.1,8-7.3,11.6c-1.8,3-2.5,7.2-7.2,7.2
			c0.8-6.5,0.7-13.2,2.6-19.4c3-9.7,9.9-12.9,19.4-9.2c5.7,2.2,10.9,6,16.3,9.1c0.5,6.4,5.6,9.8,10.1,12.4
			C1418.8,1390.8,1421.3,1399.4,1420.4,1410z"/>
		<path class="st9" d="M1361.9,1420c0.6,10.2,7.9,14.5,15.9,18.3c-3.1,0.6-6.3,1.6-9.4,1.6c-24.1,0.1-48.3,0.1-72.4,0.1
			c2.1-5.2,4.1-10.4,6.2-15.7c11.6-0.2,23.1-0.3,34.7-0.8c4.1-0.2,8.7,0.8,11.6-3.6C1352.9,1420,1357.4,1420,1361.9,1420z"/>
		<path class="st13" d="M1398.8,1372.4c-5.4-3.1-10.5-6.9-16.3-9.1c-9.5-3.7-16.5-0.5-19.4,9.2c-1.9,6.1-1.8,12.9-2.6,19.4
			c-3.1,3.7-7.4,4.2-11.8,4.1c-0.3-5.2-4.2-3.8-7.4-4.1c-14.6-1.2-29.3-1.6-43.7-4c-25.4-4.3-49.6-12.5-71.6-26.6
			c-8.6-5.5-18-9.8-26.9-15c-2.8-1.6-5.2-4.1-7.8-6.2c20.6-0.1,41.2-0.2,61.8-0.2c63.8,0,127.6,0.1,191.4,0.2
			C1431,1353.3,1415.7,1364.1,1398.8,1372.4z"/>
		<path class="st2" d="M1189.5,1572.2c-9.8,0.2-17.3-7-17.3-16.5c0-9.2,8.2-17.3,17.1-17.2s16.4,7.5,16.7,16.5
			C1206.3,1564.7,1199.4,1572,1189.5,1572.2z"/>
		<path class="st5" d="M1262.6,1464.1c-36.1-21.1-71.4-41.9-107.2-63.4c4.8-4.2,8.1-2.1,11.1-0.3c18.6,10.9,37.2,22,55.7,33
			c12.3,7.3,24.5,14.7,36.8,22C1261.8,1457.1,1264.9,1458.5,1262.6,1464.1z"/>
		<path class="st5" d="M1246.2,1491.7c-4.8,3.9-8.1,1.5-11-0.3c-19.4-11.5-38.6-23.2-57.9-34.7c-11.4-6.8-22.8-13.4-34.2-20.2
			c-1.8-1.1-3.2-2.8-5.1-4.5c4.3-3.4,7.1-0.6,9.6,0.8c12.4,7,24.7,14.2,36.9,21.4c19.1,11.2,38.3,22.5,57.4,33.8
			C1243.2,1488.8,1244.3,1490.1,1246.2,1491.7z"/>
		<path class="st5" d="M1253.1,1480.3c-34.7-20.5-68.5-40.6-102.3-60.7c-1.2-0.7-1.7-2.5-2.7-4.1c5.1-2.8,8.3,0.7,11.4,2.5
			c11,6.2,21.7,12.9,32.5,19.3c18,10.6,36,21.2,54,31.8C1249.9,1471.3,1254.6,1472.9,1253.1,1480.3z"/>
		<path class="st8" d="M1348.6,1396c4.5,0.1,8.7-0.4,11.8-4.1c4.8-0.1,5.4-4.3,7.2-7.2c2.2-3.5,4.4-7,7.3-11.6
			c2.1,2.8,4,4.1,4.1,5.7c1.1,9.8,2.4,19.8-1,29.4c-2.6,7.4-7.4,12.5-16.2,11.8c-4.5,0-9,0-13.5,0c-1.9-0.2-3.7-0.5-6.8-0.9
			C1344.6,1411,1342.6,1402.5,1348.6,1396z"/>
	</g>
</g>
</svg>
