<?xml version="1.0" encoding="utf-8"?>
<!-- Generator: Adobe Illustrator 23.0.5, SVG Export Plug-In . SVG Version: 6.00 Build 0)  -->
<svg version="1.1" id="Layer_1" xmlns="http://www.w3.org/2000/svg" xmlns:xlink="http://www.w3.org/1999/xlink" x="0px" y="0px"
	 viewBox="0 0 2432 2379" style="enable-background:new 0 0 2432 2379;" xml:space="preserve">
<style type="text/css">
	.st0{fill:#FFFFFF;}
	.st1{fill:#62987C;}
	.st2{fill:#2B3E3B;}
	.st3{fill:#00594C;}
	.st4{fill:#F2F2F2;}
	.st5{fill:#DEA912;}
	.st6{fill:#FFE3C9;}
	.st7{fill:#FEE3CA;}
	.st8{fill:#FCD2B1;}
	.st9{fill:#FDE3CB;}
	.st10{fill:#FCFDFD;}
	.st11{fill:#F8FCFD;}
	.st12{fill:#E8EBEB;}
	.st13{fill:#FEFEFD;}
	.st14{fill:#FFBF57;}
	.st15{fill:#FFE1C2;}
	.st16{fill:#5B7671;}
</style>
<g>
	<g>
		<g>
			<path class="st0" d="M2,2382C2,1588.7,2,795.3,2,2c810.7,0,1621.3,0,2432,0c0,793.3,0,1586.7,0,2380
				C1623.3,2382,812.7,2382,2,2382z M1251.3,2292.1c1.6,0,3.3,0,5.7,0c0.7-12.5,1.6-24.7,2.2-36.8c2.3-48.4,4.5-96.7,6.7-145.1
				c0-2,0.4-3.9,0.7-5.9c4.8-1,9.8-1.6,14.5-3c51.2-15.3,101.6-33.3,150.6-54.6c40.8-17.8,81.1-37,120.7-57.3
				c38.4-19.6,75.6-41.7,112-64.9c41.7-26.6,82.4-54.7,121.7-84.7c18.4-14.1,36.6-28.5,54.2-43.6c25.4-21.9,50.1-44.5,75.1-66.8
				c7.5-6.6,15-13.1,22.5-19.6c5.7,1.7,11.3,3.3,17.7,5.2c0,25.6,0,50.7,0,78.3c3.6-4.3,5.8-6.6,7.7-9.1
				c13.5-17.8,27.1-35.4,40.3-53.4c3.8-5.1,7.8-7,14.2-6.7c37,1.6,72.9-4.1,107.3-18.1c31.1-12.7,58.1-31,78.3-58.3
				c31.7-42.6,30.1-97.1-3.4-138.5c-11.4-14.2-25.2-25.5-39.9-35.9c0.7-9.4,1.5-18.9,2.1-28.3c0.2-3.6,0.1-7.2,0.1-10.8
				c1.6-1.1,3.8-1.8,4.7-3.3c14.1-22.9,28.3-45.8,41.7-69.1c12.6-21.9,25.1-43.9,36.2-66.6c21.9-44.8,42.3-90.2,59.3-137.2
				c19.1-52.9,35.5-106.5,48.7-161c7.2-29.6,12.9-59.6,18.4-89.5c3.1-16.9,4.3-34.2,6.6-51.2c3.1-23,4.6-46.1,6.4-69.2
				c2.4-30.6,1.7-61.2,1-91.7c-0.6-24.3-4.6-48.7-7.1-73c-2.9-29.1-9.7-57.4-16.3-85.8c-0.4-1.6-0.2-3.3-0.3-5
				c12.5,1.2,25.1,2.3,37.7,3.5c9.1,0.8,14.5-4.8,12.6-13.2c-1.2-5.5-5.4-7.4-10.3-7.9c-12.9-1.4-25.8-2.7-38.7-4.1
				c-3.6-0.4-7.2-1.2-10.8-1.8c-4.1-13.3-7.7-26.7-12.3-39.7c-4.9-13.7-10.8-27-16.2-40.5c10.8-4,21.7-8.1,32.6-12
				c19.4-6.8,38.8-13.4,58.2-20.2c2.2-0.7,4.4-1.5,6.4-2.6c4.6-2.7,6.5-7.3,5.2-11.8c-1.4-5.2-5.6-8.2-11.3-7.5
				c-3.2,0.4-6.4,1.5-9.5,2.6c-28.4,9.9-56.9,19.9-85.4,29.8c-2.5,0.9-5.1,1.5-7.6,2.2c-8.2-15.1-16-30.5-24.6-45.4
				c-5.4-9.4-12.1-18.2-18.2-27.2c17.8-17.9,35.5-35.9,53.2-53.9c2.1-2.1,4.4-4.1,6.2-6.5c3.4-4.6,2.9-9.8-0.8-13.6
				c-3.8-3.8-8.9-4.3-13.6-1c-2.4,1.7-4.4,4-6.5,6.1c-17.3,17-34.5,34-51.8,51c-3.4-4.9-6.3-10.1-10.1-14.6
				c-9.9-11.7-20-23.2-30.2-34.5c-8.7-9.6-17.2-19.5-26.6-28.3c-27.6-25.9-56.2-50.6-87.1-72.7c-38.6-27.6-79.1-51.7-122-71.7
				c-38.6-18-78-33.9-119.4-44.5c-19-4.8-37.8-10.1-57-14c-20.1-4-40.4-6.8-60.7-9.8c-38.6-5.7-77.4-6.8-116.3-5.8
				c-14.8,0.4-29.7,2.2-44.5,3.8c-16.1,1.7-32.3,3.2-48.2,6.1c-23.5,4.3-47,8.7-69.9,15.2c-26.1,7.5-51.8,16.7-77.3,26.3
				c-33.7,12.7-65.6,29.1-97.2,46.4c-32.1,17.6-63.3,36.7-93.1,57.9c-31.1,22.1-61.7,45-91.8,68.4c-26.4,20.6-52,42.3-77.8,63.7
				c-18.6,15.5-36.8,31.6-55.3,47.2c-20,17-40.1,33.7-60.2,50.6c-16.8,14.1-33.6,28.1-50.3,42.3c-22.5,19.2-47,35.9-72.3,51.2
				c-30.2,18.2-61.5,34.5-92.4,51.4c-3.6,1.9-8.1,2.2-12.2,3.3c-0.1-24.2-0.2-48.4-0.2-72.7c0-8.6-2-16.5-6.9-23.5
				c-7.7-11.1-18.7-15.3-31.8-15.3c-29.2,0-58.5,0.1-87.7,0c-11.9,0-23.9-0.3-35.8-0.4c0.1-37,0.2-74,0.1-111
				c-0.1-22-13.3-36.3-35.2-38.3c-2-0.2-4-0.1-6-0.1c-119.6,0-239.3,0-358.9,0.1c-4.6,0-9.4,0.3-13.8,1.5
				c-13.8,3.6-22.5,12.6-25.8,26.4c-1.2,4.9-1.6,9.9-1.6,14.9c-0.1,97-0.1,194,0,291c0,4.3,0.5,8.6,1.2,12.9
				c3.1,18.3,16.7,30,35.3,30.5c6.6,0.2,13.3,0,21.3,0c0.6,27.8,0,54.8,0.4,84.2c4.3-4.1,6.8-6.2,9-8.5c21.7-22.6,43.5-45,64.9-67.9
				c5.5-5.9,11.1-8.8,19.1-7.8c3.6,0.4,7.3,0,11,0c0.3,3.6,0.7,7.3,0.7,10.9c0,32,0.3,63.9-0.1,95.8c-0.1,10.6,1.4,20.5,6.9,29.6
				c-13,12.8-26.4,25.4-39.1,38.5c-7.4,7.6-13.8,16.1-20.8,24.1c-26.1,29.9-49.1,62-69.4,96c-14.3,24-27.5,48.7-39.9,73.7
				c-18.3,37.1-31.8,76-43.5,115.6c-9.4,31.8-15.7,64.3-21.2,97c-2.3,14.1-2.7,28.4-4.5,42.5c-3.7,28.7-4.5,57.6-3.7,86.5
				c0.5,17.2,2.4,34.3,3.7,51.5c0.6,7.9,1,15.9,2.2,23.7c3.4,22.3,6.7,44.5,11,66.6c5.9,30.7,14.6,60.7,25.3,90
				c13.2,36.5,27.8,72.6,47.6,106.3c11.1,18.9,21.9,38,33.8,56.4c15.6,23.9,32.6,46.9,51.8,68.1c16.5,18.3,32.6,37,50.4,53.9
				c19.2,18.3,40,34.9,60.5,51.8c26.2,21.6,54.6,40,83.9,57.2c29.5,17.3,59,34.7,90.6,48.2c21.7,9.3,43,19.4,64.9,28.2
				c31.1,12.6,62.9,23.3,95.3,32c26.2,7.1,52.6,13.5,79.2,19.2c18.1,3.9,36.5,6.4,54.8,9c19.9,2.9,39.9,5.5,60,7.7
				c11.9,1.3,23.9,1.6,35.8,2.2c16,0.8,31.9,1.3,47.8,2.2c2.1,0.1,4,1.8,6,2.8c-4.7,49-9.4,98.1-14.2,147.8c1.3,1.1,3,2.4,5.8,4.7
				c-10.8,5.7-20.8,11.7-31.4,16.4c-14.5,6.5-29.5,12.2-44.3,18.1c-3.7,1.5-7.6,2.6-11.3,4.1c-10.5,4.2-10.8,4.8-8.8,16.9
				c1.7,0.3,3.6,0.8,5.5,0.7c35.6-1.9,71.2-3.7,106.8-6.2c5.2-0.4,10.1-4.1,16-6.6c4,6.5,11.1,5.3,18,4.9
				c10.6-0.7,21.2-1.4,32.7-2.2c1.3-8.2,2.5-16.2,3.8-24.8c2.2-0.3,4.4-0.6,7.4-1.1c2.3-13.1,4.8-26.4,7.1-39.8
				c7.6-44.6,15.1-89.3,22.7-133.9c0.5-2.6,1.2-5.2,1.8-7.8c16.5-1.9,32.9-3.6,49.3-5.8c18.7-2.5,37.3-5.4,55.9-8.4
				c10.8-1.7,21.5-3.9,32.2-5.9c2.8,26.1,5.5,52.1,8.3,78.2c2.7,25.7,5.5,51.5,8.4,77.2c0.4,3.9,0.6,8.3,6.2,8.6
				c4.8,0.6,9.7,1.3,14.5,1.8c4.3,0.5,8.5,0.8,12.7,1.2c-8.4,2.1-16.7,4.6-25.1,6.4c-5.7,1.2-8,4.8-8.3,9.7
				c-0.3,7.6-0.2,15.3,0.1,22.9c0.2,8.2,5.3,12.4,12.8,14.2c1.9,0.4,4.1,0.7,5.3,1.9c10.9,10.6,24.1,14.6,39,14.6
				c21.9,0,43.7-1.8,65.2-5.1c3.2-9.5,0.2-15.9-7.5-20.9c-9.5-6.2-18.9-12.4-27.8-19.4c-7.6-5.9-14.5-12.7-21.3-19.5
				c-3.5-3.5-6.8-6.3-11.9-6.4c0.6-0.3,0.7-0.7,0.4-1.3C1243.1,2293.4,1247.4,2292.6,1251.3,2292.1z"/>
			<path class="st1" d="M287.7,821.7c82.3-0.3,164.6,0,246.9-0.3c7.7-0.1,13,2.3,18.2,7.8c21.3,22.9,43,45.5,64.6,68.2
				c2.3,2.5,4.3,5.2,7.6,7.3c1.7-13.8,1.3-27.2,1.4-40.5c0-13.6,0-27.2,0-42c4.1-0.2,7.6-0.5,11.1-0.6c2.7-0.1,5.3,0,8,0
				c23.8-0.2,38.7-14.8,38.8-38.7c0.2-63,0.1-126,0.1-189c0-12.7,0.1-25.3,0.2-38c4.1-1,8.6-1.3,12.2-3.3
				c31-16.8,62.3-33.2,92.4-51.4c25.2-15.3,49.7-32,72.3-51.2c16.7-14.2,33.5-28.2,50.3-42.3c20.1-16.9,40.2-33.7,60.2-50.6
				c18.5-15.7,36.7-31.7,55.3-47.2c25.7-21.5,51.4-43.1,77.8-63.7c30.1-23.4,60.7-46.3,91.8-68.4c29.8-21.2,61-40.3,93.1-57.9
				c31.6-17.3,63.5-33.7,97.2-46.4c25.5-9.6,51.1-18.8,77.3-26.3c22.9-6.5,46.5-10.9,69.9-15.2c15.9-3,32.1-4.5,48.2-6.2
				c14.8-1.6,29.6-3.4,44.5-3.8c38.9-1,77.7,0.1,116.3,5.8c20.3,3.1,40.6,5.8,60.7,9.9c19.2,3.9,38,9.2,57,14
				c41.4,10.6,80.8,26.5,119.4,44.5c42.9,20.1,83.4,44.2,122,71.7c30.9,22.1,59.5,46.8,87.1,72.7c9.4,8.8,17.9,18.7,26.6,28.3
				c10.3,11.4,20.3,22.8,30.2,34.5c3.8,4.5,6.8,9.7,10.1,14.6c-9.7,9.9-19.4,19.9-29.1,29.9c-1.9,1.9-3.8,3.7-5.3,5.9
				c-2.9,4.3-1.6,8.5,1.4,11.9s7.1,5.1,11.6,2.6c2.6-1.5,4.9-3.5,7-5.5c9.3-8.9,18.5-18,27.8-27c6.1,9.1,12.8,17.8,18.2,27.2
				c8.6,14.9,16.4,30.2,24.6,45.4c-5.8,2.3-11.7,4.5-17.5,6.9c-7.7,3.1-10.2,7.4-8.3,13.5c2.1,6.5,7.3,8.6,15.5,6.1
				c7.3-2.2,14.5-4.6,21.8-6.9c5.4,13.5,11.3,26.8,16.2,40.5c4.7,13.1,8.2,26.5,12.3,39.7c-18.2-1.7-36.4-3.4-54.6-5.1
				c-6.6-0.6-13.2-1.7-19.8-2.2c-6.5-0.5-11.4,3.6-12,9.4c-0.7,6.2,2.7,10.7,9.7,11.5c18.8,2.2,37.7,4,56.5,6.1
				c9.9,1.1,19.7,2.5,29.6,3.7c0.1,1.7-0.1,3.4,0.3,5c6.5,28.4,13.4,56.7,16.3,85.8c2.5,24.3,6.5,48.6,7.1,73
				c0.8,30.5,1.4,61.1-1,91.7c-1.9,23.1-3.3,46.2-6.4,69.2c-2.3,17.1-3.5,34.3-6.6,51.2c-5.5,30-11.3,59.9-18.4,89.5
				c-13.2,54.6-29.6,108.2-48.7,161c-17,47-37.4,92.4-59.3,137.2c-11.1,22.7-23.6,44.7-36.2,66.6c-13.4,23.3-27.7,46.1-41.7,69.1
				c-0.9,1.5-3.1,2.2-4.7,3.3c-5-27.8-16.2-52.6-35.1-73.8c-16.1-18.1-34.8-32.8-56.1-44.4c-33.5-18.3-69.4-28.2-107.2-32.3
				c-27-2.8-53.8-1.9-81.1,1.7c-16.4-21.5-32.8-43.1-49.3-64.6c-0.6,0.2-1.1,0.4-1.7,0.6c0,25.1,0,50.2,0,75.8
				c-8.7,3.7-16.9,7.1-25,10.8c-30.3,14-56.9,32.9-77.8,59.4c-39.9,50.5-39.3,116.7,1.7,166.4c26.2,31.7,59.8,52.4,98.2,66
				c0.6,0.2,1.3,0.1,2,0.2c9.9,43.5,37.7,72.7,75.2,94c10.3,5.9,21.4,10.4,32.1,15.6c-7.5,6.5-15.1,13-22.5,19.6
				c-25,22.3-49.7,45-75.1,66.8c-17.5,15.1-35.8,29.5-54.2,43.6c-39.3,30-80,58.1-121.7,84.7c-36.4,23.2-73.6,45.2-112,64.9
				c-39.6,20.3-79.9,39.5-120.7,57.3c-49,21.4-99.3,39.3-150.6,54.6c-4.7,1.4-9.7,2-14.5,3c0.5-13.7,0.7-27.3,1.4-40.9
				c2.6-54.8,5.2-109.7,8-164.5c2.8-55.8,6-111.7,8.9-167.5c0.2-4.6,0.7-9.4-0.2-13.9c-4.4-22.5-2.4-45.1-2.5-67.7
				c-0.1-28.2,0.3-56.5-0.1-84.8c-0.7-55.2-1.8-110.5-2.8-165.7c-0.1-3.6-0.5-7.2-0.7-10.9c6.5-4.5,13-9.1,19.6-13.5
				c3.6-2.4,7.3-4.6,11.8-7.4c-1.4-126.5-2.8-253.3-4.3-382.2c4,3.8,6.5,6.2,9,8.6c23.1,22.6,45.7,45.7,69.5,67.5
				c10.7,9.8,23.2,17.8,35.8,25.2c19.5,11.5,39.4,11.7,59.6,0c27.7-16,53.6-34.7,78.8-54.4c65.9-51.5,128.2-107.3,189.5-164.2
				c1-0.9,1.8-2,3.1-3.4c-7.9-9.5-15.6-18.9-23.4-28.3c4.4-6.1,8.9-12.2,13.3-18.4c2.4-3.5,4.8-7,7-10.2c-4.7-5-8.6-9.2-12.6-13.4
				c-0.2-4.6,2.2-6.5,6.4-8.5c22.6-10.8,45-22.1,67.4-33.2c0.3-0.1,0.4-0.5,0.6-0.8c18.8,13.5,34.9,3.6,52.3-6c-2.7-6.2-5.4-12-8-18
				c-3.7-8.4-7.3-16.9-10.9-25.4c7.6-5.4,15.5-10.6,22.9-16.4c2.8-2.2,0.9-6.9-3-7.3c-3.4-0.4-7.2,0.1-10.5,1.2
				c-5.9,1.9-11.6,4.5-17.4,6.8c-1.4-2.8-2.8-5.5-4.2-8.3c3-3.8,5.8-7.7,9-11.3c1.4-1.7,4.3-2.5,5.2-4.3c1.2-2.4,2-5.8,1.1-8
				c-1.3-3.3-4.7-3-7.6-1.3c-3.1,1.8-6.1,3.8-9.2,5.6c-2,1.1-4,2.1-6,3.1c-11.7-24.4-23.4-48.9-35.6-74.4c5.7-1.4,10-2.6,14.4-3.4
				c14.9-2.9,29.9-5.4,44.8-8.4c2.6-0.5,4.9-2.6,7.3-3.9c10.8-1.2,21.7-2.5,32.5-3.6c8.6-0.9,17.1-2.1,25.7-2.4
				c25.6-0.9,51.1-2.1,76.7-1.9c17.9,0.2,35.7,2.2,53.5,3.8c20.5,1.9,41,3,61.2,6.4c30.3,5.1,60.3,12,90.4,18.2
				c2.5,0.5,5,0.9,9.3,1.7c-9.8-54.3-20.9-106.9-31.1-159.6c-10.2-52.6-21-105-31.9-159.2c-3.8,2.4-6.8,4.1-9.6,6.1
				c-28.7,21.1-58,41.1-89.2,58.2c-17.8,9.7-35.3,20.1-53.7,28.5c-29,13.2-58.3,25.7-88.1,37c-22.6,8.6-46.1,14.8-69.2,22
				c-1.6,0.5-3.3,0.6-4.9,0.8c-2.1-4.8-5.8-2.1-8.6-1.5c-14.6,3.1-29.2,6.6-43.8,9.9c-40.8,9.3-81.7,18.6-122.5,27.9
				c-2.2,0.5-4.4,1.5-7.2,2.5c9.4,47.1,18.6,93.9,28.1,141.6c7.4-1.2,13.9-2.1,20.3-3.3c11.8-2.2,23.6-4.5,35.3-6.8
				c4.6-0.9,8.1-0.6,10.5,4.6c12.9,27.8,26.1,55.5,39.1,83.2c0.6,1.2,0.6,2.6,0.9,3.9c-8.6,4.9-17.2,9.7-25.7,14.7
				c-3.1,1.8-5.8,4.7-9.9,2.3c-2.5-4,0.2-6.8,2.2-9.8c4.8-7.5,9.9-14.8,14.3-22.6c1.7-3,2.3-6.9,2.3-10.4c0-2.6-2-5.1-3.1-7.7
				c-2.5,1.2-5.8,1.8-7.4,3.7c-5.7,6.9-10.8,14.2-16.1,21.4c-7.2,9.9-13.9,20.2-21.7,29.6c-9.1,11-8.4,23.2-6.8,35.8
				c0.6,4.3,1.9,8.4,2.8,12.6c1.1,4.9,0.4,9.3-3.7,12.6c-1.3-0.1-2.8,0.2-3.9-0.4c-4.7-2.4-7.8-1.5-10.7,3.2c-2.2,3.5-5.9,6-9,9
				c-2.4-2.2-4.8-4.4-7.9-7.2c-2.2,1.6-4.5,3.1-6.8,4.9c-60.4,47.1-120.7,94.2-181.1,141.2c-6.9,5.3-14,10.2-21.2,15
				c-8,5.5-9,5.6-16.2-1.3c-6.7-6.4-13.3-13.1-19-20.4c-17.9-22.8-35.6-45.6-52.7-69c-22.7-31.2-45.5-62.4-66.9-94.5
				c-10.3-15.6-23.9-26.3-39.6-35c-7.2-3.9-15.2-6.2-22.9-9.3c-16.6-5.3-33.2-10.6-49.8-15.8c-6.5-2-13.2-3.9-19.8-5.9
				c-1.3-0.8-2.6-1.6-3.9-2.4c-0.9-4.8-1.8-9.5-2.7-14.2c5.3-2,10.5-3.8,15.7-5.9c17.2-7.2,26.1-20.9,26.4-39.5
				c0.2-16.7-6.9-30.8-15.4-44.4c-2.1-3.3-4.3-6.7-6.4-10c-1.5-12.1-3-24.1-4.6-36.1c-0.2-1.3-0.6-2.8-1.5-3.6
				c-9.5-8.2-8.3-20-10.3-30.7c2.4-4,4.8-8,7.2-12c5.4-8.9,4-17.1-2-25.1c-2.8-3.8-5.5-7.6-8.3-11.4c-0.7,0.5-1.5,1-2.2,1.5
				c1.2-1.9,2.3-3.8,3.8-6.1c-1.2-1-2.2-2.1-3.5-3c-7.2-5.1-11-12-13.2-20.5c-6.7-25.8-32.3-33.9-52.7-16.5
				c-10.4,8.8-20.3,18.3-29.9,28c-8.4,8.4-17.9,13-30,13.6c-7.6,0.3-15.2,2.3-22.5,4.3c-10.1,2.8-15.5,9.9-16.3,20.4
				c-0.7,9.4-0.2,18.6,3.3,27.5c6.1,15.8,12.4,31.5,18.7,47.3c-0.7,3.8-2.4,7.7-2,11.4c1.1,9.7,2.9,19.4,4.9,29
				c2.1,10,2.4,9.9,12.3,9.8c0.9,0,1.9-0.1,2.9-0.2c1.8,9,4.4,18,5.2,27.1c1.4,15,7.1,27.4,18.8,36.9c1.2,5.9,2.4,11.8,3.6,17.8
				c-13.6,4.1-27.1,8.6-40.8,12.2c-8.9,2.4-16.8,5.3-21.3,14c-18.6,3.6-37.1,7.7-55.8,10.7c-28.2,4.5-46.6,20.7-60.7,44.9
				c-25.3,43.4-52.1,85.9-78.4,128.7c-33.4,54.5-66.8,108.9-100.2,163.4c-2.8,4.5-4.9,8.5-3,14.7c27.9,89,70,170.2,131.1,241.2
				c0.4,0.5,0.9,1,1.3,1.5c15.3,17.1,12.3,13.9,30.2,9.1c2.6,2.9,5.5,5.5,7.8,8.6c2.9,3.9,6.2,4.3,10.1,1.8c3.3-2.1,6.5-4.2,9.8-6.4
				c5.7,3.5,11.3,6.9,16.9,10.3c0.2,10.7,0.5,21.3,0.7,31.9c-6.6,0-13.2,0.1-19.9,0c-9.7-0.2-12.4,1.7-13.6,12.8
				c-0.6,5.2-0.1,10.5-0.1,16.5c-3.1-0.3-5-0.2-6.7-0.7c-5.6-1.7-8,2.5-10.4,5.8c-2.7,3.6,0.4,6.3,2.9,8.4c4.6,3.8,9.3,7.4,14.1,11
				c6.6,4.9,13.3,9.8,20,14.7c9.9,7.4,21,4.8,26.8-6.6c3.9-7.7,7.2-15.7,10.8-23.5c6.3,2.5,12.5,4.9,18.8,7.4
				c-2.2,59.9-4.4,119.8-6.7,179.7c-2.5,65.9-4.8,131.8-7.9,197.7c-1.1,22.9-4.3,45.7-6.6,68.6c-3,30.5-6.1,60.9-9.2,91.4
				s-6.2,60.9-9.2,91.4c-2.9,29.8-5.8,59.6-8.8,89.4c-1,9.6-2.1,19.1-3.2,28.7c-2-1-3.9-2.7-6-2.8c-16-0.9-31.9-1.4-47.8-2.2
				c-12-0.5-23.9-0.9-35.8-2.2c-20-2.2-40-4.8-60-7.7c-18.3-2.6-36.7-5.1-54.8-9c-26.5-5.8-53-12.2-79.2-19.2
				c-32.4-8.7-64.2-19.4-95.3-32c-21.8-8.8-43.2-18.9-64.9-28.2c-31.5-13.5-61.1-30.9-90.6-48.2c-29.3-17.1-57.7-35.6-83.9-57.2
				c-20.5-16.9-41.3-33.5-60.5-51.8c-17.8-16.9-33.9-35.6-50.4-53.9c-19.2-21.2-36.2-44.1-51.8-68.1c-11.9-18.3-22.7-37.5-33.8-56.4
				c-19.8-33.6-34.3-69.7-47.6-106.3c-10.6-29.3-19.4-59.3-25.3-90c-4.3-22.1-7.6-44.4-11-66.6c-1.2-7.8-1.6-15.8-2.2-23.7
				c-1.4-17.1-3.2-34.3-3.7-51.5c-0.8-28.9,0-57.7,3.7-86.5c1.8-14.2,2.1-28.5,4.5-42.5c5.4-32.7,11.8-65.2,21.2-97
				c11.7-39.6,25.2-78.6,43.5-115.6c12.4-25,25.6-49.7,39.9-73.7c20.3-34,43.3-66.1,69.4-96c7-8,13.4-16.5,20.8-24.1
				c12.7-13.2,26-25.7,39.1-38.5C260.3,818.7,272.8,821.7,287.7,821.7z"/>
			<path class="st2" d="M1015.1,1430.7c1.7-11.7,3.3-22.1,4.7-32.5c2-15.3,3.9-30.7,5.7-46.1c1.6-13.4,2.7-26.9,4.4-40.3
				c1.9-14.7,4.1-29.3,6.1-44c48.4,1.5,96.7,3,145.1,4.6c10.9,0.3,21.8,1,32.7,1.6c0,50.3,0,100.6,0,152.9c8.2-5,14.6-8.7,20.9-12.7
				c12.9-8,25.7-16.3,38.6-24.3c1.6-0.9,3.7-1.1,5.6-1.6c0.3,3.6,0.6,7.2,0.7,10.9c1,55.2,2.1,110.4,2.8,165.7
				c0.4,28.2,0,56.5,0.1,84.8c0,22.6-1.9,45.3,2.5,67.7c0.9,4.4,0.4,9.3,0.2,13.9c-2.9,55.8-6,111.7-8.9,167.5
				c-2.8,54.8-5.4,109.7-8,164.5c-0.6,13.7-0.9,27.3-1.4,40.9c-0.2,2-0.6,3.9-0.7,5.9c-2.3,48.4-4.4,96.7-6.7,145.1
				c-0.5,12.1-1.4,24.3-2.2,36.8c-2.4,0-4.1,0-5.7,0c-5.7,0.6-11.5,1.1-17.3,1.7c-14.5,0.2-29.1,0.3-43.6,0.5
				c-5.6-0.3-5.8-4.7-6.2-8.6c-2.8-25.7-5.6-51.5-8.4-77.2c-2.8-26.1-5.5-52.1-8.3-78.2c-1.5-18.6-3-37.1-4.5-55.7
				c-2.4-28.9-5.1-57.7-7.2-86.6c-2.7-38.2-5-76.4-7.3-114.6c-0.7-11.9-0.7-23.9-1-35.9c-0.7-24.7-0.9-49.3-2.4-73.9
				c-1-15.2-4.3-30.3-6.1-45.5c-3.3-27.4-6.4-54.9-9.4-82.3c-1.6-15.2-3-30.5-4.6-45.7c-0.1-0.9-0.6-1.7-1.9-4.8
				c-2,11.3-3.6,20.5-5.1,29.7c-9.8,61.1-20.5,122-34.1,182.4c-3.1,13.9-7.2,27.7-9.8,41.7c-2.7,14.7-4.3,29.6-6.2,44.4
				c-5.1,39.3-9.6,78.6-15.3,117.8c-7.1,49-15.1,97.9-22.7,146.9c-0.1,0.6,0,1.3,0.1,2c-0.6,2.6-1.4,5.2-1.8,7.8
				c-7.6,44.6-15.1,89.3-22.7,133.9c-2.3,13.3-4.8,26.7-7.1,39.8c-3,0.4-5.1,0.7-7.4,1.1c-1.3,8.5-2.6,16.6-3.8,24.8
				c-11.5,0.8-22.1,1.5-32.7,2.2c-6.9,0.5-14,1.6-18-4.9c-5.9,2.5-10.8,6.2-16,6.6c-35.6,2.5-71.2,4.3-106.8,6.2
				c-1.8,0.1-3.7-0.5-5.5-0.7c-2-12.1-1.7-12.6,8.8-16.9c3.7-1.5,7.6-2.6,11.3-4.1c14.8-6,29.7-11.6,44.3-18.1
				c10.5-4.7,20.5-10.6,31.4-16.4c-2.8-2.3-4.5-3.6-5.8-4.7c4.8-49.7,9.5-98.7,14.2-147.8c1.1-9.6,2.2-19.1,3.2-28.7
				c2.9-29.8,5.8-59.6,8.8-89.4c3.1-30.5,6.1-60.9,9.2-91.4s6.2-60.9,9.2-91.4c2.3-22.9,5.5-45.7,6.6-68.6
				c3.1-65.9,5.4-131.8,7.9-197.7c2.3-59.9,4.5-119.8,6.7-179.7C981,1418.1,997.6,1424.1,1015.1,1430.7z"/>
			<path class="st1" d="M1135.5,2135.8c-18.6,3-37.2,5.9-55.9,8.4c-16.4,2.2-32.9,3.9-49.3,5.8c0-0.7-0.2-1.4-0.1-2
				c7.6-48.9,15.6-97.8,22.7-146.9c5.7-39.2,10.2-78.5,15.3-117.8c1.9-14.8,3.5-29.7,6.2-44.4c2.6-14,6.7-27.8,9.8-41.7
				c13.6-60.4,24.3-121.3,34.1-182.4c1.5-9.2,3.2-18.4,5.1-29.7c1.2,3.1,1.8,3.9,1.9,4.8c1.5,15.2,2.9,30.5,4.6,45.7
				c3.1,27.4,6.1,54.9,9.4,82.3c1.8,15.2,5.2,30.3,6.1,45.5c1.5,24.6,1.7,49.3,2.4,73.9c0.4,11.9,0.3,23.9,1,35.9
				c2.3,38.2,4.6,76.4,7.3,114.6c2.1,28.9,4.8,57.7,7.2,86.6c1.6,18.6,3,37.1,4.5,55.7C1157,2132,1146.3,2134.2,1135.5,2135.8z"/>
			<path class="st2" d="M1238.4,2295.4c5,0.1,8.4,2.9,11.8,6.4c6.8,6.8,13.7,13.6,21.3,19.5c8.9,7,18.3,13.2,27.8,19.4
				c7.7,5.1,10.7,11.4,7.5,20.9c-21.5,3.3-43.3,5-65.2,5.1c-14.9,0-28.1-4-39-14.6c-1.3-1.2-3.5-1.5-5.3-1.9
				c-7.5-1.8-12.5-6-12.8-14.2c-0.3-7.6-0.5-15.3-0.1-22.9c0.3-5,2.7-8.5,8.3-9.7c8.5-1.7,16.8-4.2,25.1-6.4
				C1224.7,2296.5,1231.6,2296,1238.4,2295.4z"/>
			<path class="st3" d="M1205.2,2295.8c-4.8-0.5-9.7-1.2-14.5-1.8c14.5-0.2,29-0.3,43.6-0.5c1.5,0.2,3,0.4,4.5,0.6
				c0.3,0.6,0.2,1-0.4,1.3c-6.9,0.5-13.7,1.1-20.6,1.6C1213.6,2296.6,1209.4,2296.3,1205.2,2295.8z"/>
			<path class="st2" d="M1251.6,2291.8c-4.2,0.8-8.5,1.5-12.8,2.3c-1.5-0.2-3-0.4-4.5-0.6C1240.1,2293,1245.9,2292.4,1251.6,2291.8z
				"/>
			<path class="st3" d="M945.3,1404.6c-7-3-14.1-5.9-22.1-9.3c-0.6-9.5-1.2-19.3-1.8-29.2c-0.2-10.7-0.5-21.3-0.7-31.9
				c-0.3-6.7-0.6-13.5-0.9-20.3c0-7.9,0-15.8,0-24.9c-2.6,1.6-4.4,2.6-6.1,3.8c-12.5,9-25,18.1-37.5,27.2
				c-17.9,4.8-14.9,8.1-30.2-9.1c-0.4-0.5-0.9-1-1.3-1.5c-61.1-70.9-103.3-152.1-131.1-241.2c-1.9-6.1,0.2-10.1,3-14.7
				c33.4-54.4,66.8-108.9,100.2-163.4c26.2-42.8,53.1-85.3,78.4-128.7c14.1-24.2,32.5-40.4,60.7-44.9c18.7-3,37.2-7.1,55.8-10.7
				c-2.6,5.3-5,10.7-7.7,15.9c-7.7,15-15.6,30-23.5,45c-1.2,2.3-2.7,4.5-4.8,8c4.6,4.3,9.2,8.8,14,13.2c1.7,1.6,3.7,2.9,5.4,4.4
				c3.4,3,3.2,5.9,0.2,9.4c-5,5.8-9.5,11.9-14.3,17.8c-2,2.5-2.4,4.7-1.7,8.1c6,29.8,11.5,59.7,17.3,89.5
				c5.7,29.2,11.5,58.3,17.3,87.5c6.9,35,13.9,70,20.8,105c2.5,12.6,4.7,25.3,7.3,37.9c0.4,1.7,1.9,3.1,2.9,4.6
				c1.8,34.6-4,68.6-7.9,102.8c-0.5,4.2-0.6,8.5-0.9,12.8c-2.1,14.7-4.3,29.3-6.1,44c-1.7,13.4-2.8,26.9-4.4,40.3
				c-1.8,15.4-3.7,30.8-5.7,46.1c-1.3,10.4-3,20.8-4.7,32.5c-17.6-6.5-34.2-12.5-50.9-18.6C958.1,1409.5,951.8,1407,945.3,1404.6z
				 M905.6,980.6c-20.9,27.2-41.7,54.5-62.6,81.7c-3.1,4-4.5,7.4-2.2,12.6c25,57,49.6,114.1,74.4,171.2c0.3,0.9,0.9,1.7,1.4,2.5
				c0.4,0,0.8,0,1.1-0.1c0.2-0.1,0.5-0.4,0.5-0.6c-2.3-89.6-4.7-179.1-7.1-268.6c0-0.9-0.7-1.8-1.4-3.3
				C908.1,977.7,906.7,979,905.6,980.6z"/>
			<path class="st3" d="M1214.6,1078.2c0-4,0.2-8,0.4-12c0.9,0.9,2.3,1.6,2.6,2.7c0.5,1.5,0.3,3.2,0.3,4.9
				c0.7,31.9,1.4,63.7,2.1,95.6c0.1,2.5,0.5,5,2.4,7.7c0.5-1.6,1.4-3.1,1.5-4.7c0.8-20.5,0.1-41.3,2.5-61.6
				c2.4-20.4,0.4-40.9,5-61.3c5.1-23.2,7.1-47,10.7-70.5c4.4-29.1,9.1-58.1,13.6-87.1c3.5-22.2,6.8-44.4,10.2-66.6
				c0.7-4.9-1.1-8.2-5.2-10.9c-6.1-4-11.9-8.3-19.1-13.4c7.2-6,13.6-11.6,20.3-16.8c6.6-5.1,6.8-5,4.1-13.1
				c-6-18.3-12.1-36.5-18.1-54.8c-0.9-2.7-3.4-5.4,0-8.1c7.7,3,15.7,5.4,22.9,9.3c15.7,8.6,29.2,19.4,39.6,35
				c21.3,32.2,44.1,63.3,66.9,94.5c17.1,23.3,34.9,46.2,52.7,69c5.7,7.3,12.3,14,19,20.4c7.1,6.8,8.2,6.7,16.2,1.3
				c7.2-4.8,14.4-9.7,21.2-15c60.4-47,120.8-94.1,181.1-141.2c2.3-1.8,4.6-3.4,6.8-4.9c3.1,2.8,5.5,5,7.9,7.2
				c10.5,12.4,21,24.8,31.6,37c4.5,5.2,9.4,10.1,14.2,15.1c7.8,9.4,15.6,18.8,23.4,28.3c-1.3,1.5-2.1,2.5-3.1,3.4
				c-61.3,57-123.6,112.7-189.4,164.4c-25.1,19.6-51,38.3-78.8,54.4c-20.2,11.7-40.1,11.5-59.6,0c-12.5-7.4-25.1-15.4-35.8-25.2
				c-23.8-21.8-46.4-44.9-69.5-67.5c-2.5-2.4-5-4.8-9-8.6c1.4,129,2.9,255.7,4.3,382.2c-4.5,2.8-8.2,5-11.8,7.4
				c-6.6,4.4-13.1,9-19.6,13.5c-1.9,0.5-4,0.6-5.6,1.6c-12.9,8-25.7,16.2-38.6,24.3c-6.3,4-12.7,7.8-20.9,12.7
				c0-52.3,0-102.6,0-152.9C1214.2,1208.6,1214.4,1143.2,1214.6,1078.2z"/>
			<path class="st4" d="M1826.6,428c1.6-0.3,3.3-0.3,4.9-0.8c23.1-7.2,46.6-13.4,69.2-22c29.7-11.3,59.1-23.8,88.1-37
				c18.4-8.4,35.9-18.8,53.7-28.5c31.3-17.1,60.6-37.1,89.2-58.2c2.7-2,5.8-3.7,9.6-6.1c10.9,54.2,21.7,106.6,31.9,159.2
				c10.2,52.7,21.3,105.3,31.1,159.6c-4.4-0.8-6.8-1.2-9.3-1.7c-30.1-6.1-60.1-13-90.4-18.2c-20.2-3.5-40.8-4.6-61.2-6.4
				c-17.8-1.6-35.7-3.7-53.5-3.8c-25.6-0.2-51.1,1-76.7,1.9c-8.6,0.3-17.1,1.5-25.7,2.4c-10.8,1.2-21.7,2.4-32.5,3.6
				C1845.5,524,1836,476,1826.6,428z"/>
			<path class="st5" d="M1847.5,575.8c-14.9,3-29.9,5.6-44.8,8.4c-4.3,0.8-8.6,2-14.4,3.4c12.2,25.6,23.9,50,35.6,74.4
				c2.5,5.3,5,10.7,7.5,16c1.4,2.8,2.8,5.5,4.2,8.3c2.7,5.2,5.3,10.5,8,15.7c3.6,8.4,7.2,16.9,10.9,25.4c2.6,6,5.3,11.9,8,18
				c-17.3,9.6-33.5,19.5-52.3,6c-9.3-18.6-18.6-37.2-28-55.8c-1-2-2.4-3.8-3.6-5.7c-0.3-1.3-0.4-2.7-0.9-3.9
				c-13.1-27.7-26.2-55.4-39.1-83.2c-2.4-5.2-5.9-5.5-10.5-4.6c-11.8,2.3-23.5,4.6-35.3,6.8c-6.4,1.2-12.9,2.1-20.3,3.3
				c-9.5-47.7-18.8-94.5-28.1-141.6c2.9-1,5-2,7.2-2.5c40.8-9.3,81.7-18.6,122.5-27.9c14.6-3.4,29.2-6.8,43.8-9.9
				c2.7-0.6,6.5-3.3,8.6,1.5c9.5,48.1,19,96.1,28.5,144.1C1852.6,573.4,1850.3,575.4,1847.5,575.8z"/>
			<path class="st2" d="M1033.2,691.9c13.7-3.6,27.2-8.1,40.8-12.2c0.6,2,1.3,4.1,2,6.1c-1.4,4.7-2.8,9.4-4.2,14.1
				c-1.3,2.3-2.6,4.5-3.7,6.9c-4.7,10.6-8.5,21.8-14.2,31.9c-9.9,17.4-12.4,35.6-12.1,55.4c1.3,105.3,1.8,210.6,2.6,315.9
				c0.1,14,0.4,28,0.6,42c-1-1.5-2.6-2.9-2.9-4.6c-2.5-12.6-4.8-25.3-7.3-37.9c-6.9-35-13.9-70-20.8-105
				c-5.8-29.2-11.6-58.3-17.3-87.5c-5.8-29.8-11.3-59.7-17.3-89.5c-0.7-3.4-0.3-5.6,1.7-8.1c4.8-5.9,9.3-12.1,14.3-17.8
				c3-3.4,3.2-6.4-0.2-9.4c-1.7-1.6-3.7-2.8-5.4-4.4c-4.8-4.4-9.5-8.9-14-13.2c2.1-3.5,3.6-5.7,4.8-8c7.8-15,15.7-30,23.5-45
				c2.7-5.2,5.1-10.6,7.7-15.9C1016.3,697,1024.2,694.1,1033.2,691.9z"/>
			<path class="st2" d="M1214.7,1055c0.8-70.7-3.7-141.2-6-211.7c-0.1-5-0.7-10-0.4-15c1.4-25.1-5.6-48.7-12.8-72.3
				c-5.4-21.6-10.9-43.3-16.4-64.9c-0.4-1.5-0.5-3.2-0.8-4.8c6.6,1.9,13.2,3.8,19.8,5.9c16.6,5.2,33.2,10.5,49.8,15.8
				c-3.4,2.7-0.9,5.5,0,8.1c6,18.3,12.1,36.5,18.1,54.8c2.7,8.1,2.5,7.9-4.1,13.1c-6.7,5.2-13,10.8-20.3,16.8
				c7.2,5.1,13.1,9.4,19.1,13.4c4.1,2.7,6,6,5.2,10.9c-3.5,22.2-6.8,44.4-10.2,66.6c-4.5,29.1-9.2,58.1-13.6,87.1
				c-3.6,23.5-5.5,47.4-10.7,70.5c-4.6,20.4-2.6,40.9-5,61.3c-2.4,20.3-1.7,41-2.5,61.6c-0.1,1.6-1,3.1-1.5,4.7
				c-1.9-2.7-2.3-5.2-2.4-7.7c-0.8-31.9-1.4-63.7-2.1-95.6c0-1.6,0.2-3.4-0.3-4.9c-0.4-1.1-1.7-1.8-2.6-2.7
				C1214.9,1062.3,1214.7,1058.7,1214.7,1055z"/>
			<path class="st6" d="M1186.2,566.7c0.7,5.7,1.2,10.7,1.8,15.7c-7.9-3.8-14.8-7.8-22.2-10.3c-15.6-5.3-30.4,0-44.3,6.3
				c-8,3.6-14.9,9.8-22.2,14.9c-4.9,3.4-9.5,7.3-14.6,10.3c-7.4,4.3-15,3.5-21-2.7c-5.3-5.5-9.7-11.8-14.2-17.9
				c-1.7-2.3-2.8-5-5.8-7.2c0.9,7.3,1.7,14.6,2.5,21.9c-0.9,0.1-1.9,0.2-2.9,0.2c-10,0.1-10.2,0.2-12.3-9.8c-2-9.6-3.8-19.3-4.9-29
				c-0.4-3.7,1.3-7.6,2-11.4c3.7-0.7,7.5-1.3,11.7-2c-1.7-13.4-3.5-25.4-4.8-37.5c-0.8-6.5-0.9-13.2-1.1-19.8
				c-0.1-4.8,2.4-8.3,7-9.8c3.8-1.2,7.8-2.5,11.6-2.5c12.2,0.2,24.5,0.6,36.7,1.6c19.9,1.6,39.2,0.5,56.6-10.7
				c5.2-3.3,10.1-3.9,15.9-1.2c5.4,2.5,8.4,5.7,9.3,11.7c1.1,7.4,3.1,14.7,4.7,22c2,10.7,0.8,22.5,10.3,30.7
				c0.9,0.8,1.3,2.3,1.5,3.6c1.6,12,3.1,24.1,4.6,36.1C1190.4,569,1188.8,568,1186.2,566.7z M1042.7,569.5c-0.1,0.2-0.1,0.4-0.1,0.7
				c0.3,0,0.6-0.1,0.9-0.1c-0.1-0.2-0.2-0.5-0.3-0.7C1043.1,569.5,1042.8,569.4,1042.7,569.5z"/>
			<path class="st5" d="M1198.6,579.9c8.6,13.6,15.6,27.7,15.4,44.4c-0.2,18.6-9.2,32.3-26.4,39.5c-5.2,2.2-10.5,3.9-15.7,5.9
				c-12.5,1.3-25,3.3-37.6,3.9c-20.7,1-41.2-0.6-60.1-10.5c-1.1-0.6-2.5-0.9-3.7-1.4c-11.7-9.6-17.4-21.9-18.8-36.9
				c-0.8-9.1-3.4-18.1-5.2-27.1c-0.9-7.3-1.7-14.6-2.5-21.9c3,2.1,4.1,4.9,5.8,7.2c4.6,6.1,8.9,12.5,14.2,17.9
				c5.9,6.2,13.5,7,21,2.7c5.1-3,9.7-6.9,14.6-10.3c7.3-5.1,14.2-11.3,22.2-14.9c14-6.3,28.7-11.5,44.3-6.3
				c7.4,2.5,14.2,6.5,22.2,10.3c-0.6-5-1.1-10-1.8-15.7c2.3,1.3,3.9,2.2,5.6,3.2C1194.2,573.3,1196.3,576.6,1198.6,579.9z
				 M1156.8,594.5c-8.1,0.9-16.2,2.2-24.3,3.8c-2.2,0.4-5.4,2-5.9,3.8c-1.1,3.7,1.8,6.1,5.1,7.3c1.5,0.6,3.3,0.5,4.9,0.3
				c8.8-1.2,17.6-2.5,26.3-4c5.5-0.9,8.9-3.9,8.3-11.3C1165.9,594.4,1161.3,593.9,1156.8,594.5z"/>
			<path class="st5" d="M1009.5,500.3c-3.5-8.8-4-18.1-3.3-27.5c0.9-10.5,6.2-17.6,16.3-20.4c7.4-2,14.9-3.9,22.5-4.3
				c12-0.6,21.6-5.2,30-13.6c9.7-9.6,19.5-19.1,29.9-28c20.4-17.3,46-9.3,52.7,16.5c2.2,8.5,6,15.5,13.2,20.5c1.3,0.9,2.4,2,3.5,3
				c-1.5,2.4-2.6,4.2-3.8,6.1c0.7-0.5,1.5-1,2.2-1.5c2.7,3.8,5.5,7.6,8.3,11.4c5.9,8,7.4,16.2,2,25.1c-2.4,4-4.8,8-7.2,12
				c-1.6-7.3-3.6-14.6-4.7-22c-0.9-6-4-9.2-9.3-11.7c-5.8-2.7-10.7-2.1-15.9,1.2c-17.4,11.1-36.7,12.3-56.6,10.7
				c-12.2-1-24.5-1.4-36.7-1.6c-3.9-0.1-7.8,1.3-11.6,2.5c-4.6,1.5-7.1,5-7,9.8c0.2,6.6,0.4,13.2,1.1,19.8c1.3,12.1,3,24.2,4.8,37.5
				c-4.2,0.7-7.9,1.4-11.7,2C1022,532,1015.6,516.3,1009.5,500.3z"/>
			<path class="st7" d="M1809.6,752.4c-22.4,11.2-44.8,22.5-67.4,33.2c-4.2,2-6.6,3.9-6.4,8.5c-11.4-3.9-20.1-11.8-29.2-19.1
				c-0.6-0.5-0.5-1.9-0.8-2.8c4.1-3.4,4.8-7.7,3.7-12.6c-1-4.2-2.3-8.4-2.8-12.6c-1.6-12.6-2.4-24.9,6.8-35.8
				c7.8-9.3,14.5-19.7,21.7-29.6c5.3-7.2,10.4-14.5,16.1-21.4c1.6-1.9,4.9-2.5,7.4-3.7c1.1,2.6,3.1,5.1,3.1,7.7
				c0.1,3.5-0.6,7.4-2.3,10.4c-4.4,7.7-9.5,15.1-14.3,22.6c-1.9,3-4.7,5.8-2.2,9.8c4.1,2.5,6.8-0.5,9.9-2.3
				c8.5-5,17.1-9.8,25.7-14.7c1.2,1.9,2.6,3.7,3.6,5.7c9.4,18.5,18.7,37.2,28,55.8C1810,751.8,1809.9,752.2,1809.6,752.4z"/>
			<path class="st8" d="M1174.3,683.8c1.1,9.8,2.8,19.6,3.3,29.5c0.2,3.4-2.5,7.1-3.9,10.6c-4.6-0.7-9.2-1.3-13.8-2
				c-6.2-2-12.3-4.1-18.5-6c-11.6-3.7-23.5-6.7-34.8-11c-11.4-4.4-22.3-9.9-30.7-19.3c-0.6-2-1.3-4.1-2-6.1
				c-1.2-5.9-2.4-11.9-3.6-17.8c1.2,0.5,2.5,0.8,3.7,1.4c18.9,9.9,39.4,11.6,60.1,10.5c12.6-0.6,25.1-2.6,37.6-3.9
				C1172.6,674.4,1173.5,679.1,1174.3,683.8z"/>
			<path class="st9" d="M934.8,1428c-5.7,11.4-16.8,13.9-26.8,6.6c-6.7-4.9-13.4-9.7-20-14.7c-4.8-3.6-9.6-7.1-14.1-11
				c-2.5-2.1-5.6-4.8-2.9-8.4c2.5-3.3,4.8-7.5,10.4-5.8c1.7,0.5,3.6,0.4,6.7,0.7c0-6-0.5-11.3,0.1-16.5c1.2-11,3.9-13,13.6-12.8
				c6.6,0.1,13.2,0,19.9,0c0.6,9.9,1.2,19.7,1.8,29.2c8,3.4,15.1,6.4,22.1,9.3C942,1412.4,938.7,1420.4,934.8,1428z"/>
			<path class="st10" d="M1748.3,807.4c-2.2,3.3-4.5,6.8-7,10.2c-4.4,6.1-8.8,12.3-13.3,18.4c-4.7-5-9.7-9.9-14.2-15.1
				c-10.6-12.3-21.1-24.7-31.6-37c3-3,6.8-5.5,9-9c3-4.7,6-5.6,10.7-3.2c1.1,0.5,2.6,0.3,3.9,0.4c0.3,1,0.2,2.3,0.8,2.8
				c9.1,7.3,17.9,15.2,29.2,19.1C1739.7,798.2,1743.7,802.4,1748.3,807.4z"/>
			<path class="st11" d="M904.1,1324c-3.3,2.1-6.5,4.3-9.8,6.4c-3.9,2.6-7.2,2.1-10.1-1.8c-2.3-3.1-5.2-5.8-7.8-8.6
				c12.5-9.1,25-18.1,37.5-27.2c1.7-1.2,3.5-2.2,6.1-3.8c0,9.1,0,17,0,24.9C914.7,1317.2,909.4,1320.6,904.1,1324z"/>
			<path class="st12" d="M1178.2,686.4c0.3,1.6,0.4,3.2,0.8,4.8c5.4,21.6,10.9,43.3,16.4,64.9c-3.6-2.9-7-5.7-10.6-8.5
				c-1.7-1.3-3.5-2.5-5.3-3.7c-1.9-6.7-3.8-13.3-5.7-19.9c1.4-3.5,4.1-7.1,3.9-10.6c-0.4-9.9-2.1-19.7-3.3-29.5
				C1175.7,684.7,1177,685.5,1178.2,686.4z"/>
			<path class="st9" d="M1853.1,679.6c3.3-1.1,7.1-1.6,10.5-1.2c3.9,0.5,5.8,5.1,3,7.3c-7.4,5.8-15.2,11-22.9,16.4
				c-2.7-5.2-5.3-10.5-8-15.7C1841.5,684.1,1847.2,681.5,1853.1,679.6z"/>
			<path class="st9" d="M1830,658.8c3.1-1.8,6.1-3.8,9.2-5.6c2.8-1.6,6.3-2,7.6,1.3c0.9,2.2,0,5.7-1.1,8c-0.9,1.9-3.7,2.6-5.2,4.3
				c-3.2,3.6-6,7.5-9,11.3c-2.5-5.3-5-10.7-7.5-16C1826,661.1,1828.1,660.1,1830,658.8z"/>
			<path class="st9" d="M921,1334.3c-5.6-3.5-11.3-6.9-16.9-10.3c5.3-3.4,10.6-6.7,15.9-10.1C920.4,1320.7,920.7,1327.4,921,1334.3z
				"/>
			<path class="st13" d="M1208.3,828c-0.3,5,0.2,10,0.4,15c2.3,70.6,6.8,141.1,6,211.7c-0.1,3.7,0.2,7.3,0.3,11c-0.1,4-0.4,8-0.4,12
				c-0.2,65.3-0.4,130.6-0.6,195.9c-10.9-0.5-21.8-1.2-32.7-1.6c-48.4-1.6-96.7-3.1-145.1-4.6c0.3-4.2,0.4-8.5,0.9-12.8
				c3.9-34.2,9.7-68.2,7.9-102.8c-0.2-14-0.5-28-0.6-42c-0.8-105.3-1.3-210.6-2.6-315.9c-0.2-19.8,2.2-38,12.1-55.4
				c5.7-10.1,9.5-21.3,14.2-31.9c1.1-2.4,2.5-4.6,3.7-6.9c2.7,1,6.1,1.3,8,3.1c6.6,6.5,12.7,13.5,19,20.3c2.5,2.7,5.1,5.3,7.5,8
				c5.4,5.9,10.7,11.8,15.9,17.8c7.6,8.9,10.7,8.8,17.5-0.5c4-5.3,7.9-10.7,12.1-15.8c1.1-1.4,3.2-1.9,4.8-2.9
				c-0.8,3.2-1.6,6.5-2.4,9.7c-1.4,5.7-4.3,11.3-0.3,17.2c1,1.4,0.4,3.9,0.3,5.9c-0.8,30-1.4,60-2.6,89.9
				c-0.9,23.6-2.3,47.2-3.9,70.8c-2.2,32.5-4.9,65-7.3,97.5c-1.6,21.2-2.9,42.5-4.7,63.7c-2.2,25.6-4.8,51-7.2,76.5
				c-1,11.2-1.6,22.5-2.8,33.8c-0.5,5,0.9,8.9,4.2,12.7c6.7,7.7,13,15.8,19.2,23.4c17.5-4.9,27.7-16.6,29-32.7
				c3.5-42.4,7.1-84.9,10.1-127.3c3.3-46.1,4.5-92.4,3.1-138.7c-1-34.9-3.2-69.8-5.7-104.6c-1.4-19.2-4.7-38.3-7-57.4
				c-0.5-4.1-2.3-8.5,2.1-12c1.1-0.9,1-3.7,0.8-5.5c-0.4-3-1.2-5.9-1.9-8.8c1.7,1.2,3.6,2.4,5.3,3.7c3.6,2.8,7.1,5.7,10.6,8.5
				C1202.7,779.6,1209.7,803.2,1208.3,828z"/>
			<path class="st1" d="M911,979.2c2.4,89.6,4.8,179.1,7.1,268.6c0,0.2-0.3,0.5-0.5,0.6c-0.3,0.1-0.7,0.1-1.1,0.1
				c-0.4-0.8-1-1.6-1.4-2.5c-24.8-57.1-49.5-114.2-74.4-171.2c-2.2-5.2-0.9-8.6,2.2-12.6c21-27.2,41.7-54.5,62.6-81.7
				c1.2-1.5,2.6-2.8,4.2-4.5C910.3,977.5,911.1,978.4,911,979.2z"/>
			<path class="st4" d="M1075.9,685.6c8.4,9.4,19.3,15,30.7,19.3c11.3,4.3,23.2,7.3,34.8,11c6.2,1.9,12.3,4,18.5,6
				c-1.1,2.6-2.2,5.2-3.4,7.9c-1.6,0.9-3.7,1.5-4.8,2.9c-4.2,5.1-8.2,10.5-12.1,15.8c-6.8,9.3-9.9,9.4-17.5,0.5
				c-5.2-6-10.6-11.9-15.9-17.8c-2.4-2.7-5-5.3-7.5-8c-6.3-6.8-12.4-13.8-19-20.3c-1.9-1.8-5.3-2.1-8-3.1
				C1073.1,695.1,1074.6,690.4,1075.9,685.6z"/>
			<path class="st14" d="M1043.5,570.1c-0.3,0-0.6,0.1-0.9,0.1c0-0.2,0-0.5,0.1-0.7c0-0.1,0.3-0.1,0.5-0.1
				C1043.3,569.7,1043.4,569.9,1043.5,570.1z"/>
			<path class="st15" d="M1162.9,605.7c-8.7,1.5-17.5,2.7-26.3,4c-1.6,0.2-3.4,0.2-4.9-0.3c-3.3-1.2-6.2-3.6-5.1-7.3
				c0.5-1.7,3.7-3.4,5.9-3.8c8-1.6,16.1-2.9,24.3-3.8c4.5-0.5,9.1-0.1,14.4-0.1C1171.8,601.8,1168.4,604.8,1162.9,605.7z"/>
			<path class="st5" d="M1173.9,724.1c1.9,6.7,3.8,13.3,5.7,19.9c0.7,3,1.6,5.8,1.9,8.8c0.2,1.8,0.3,4.6-0.8,5.5
				c-4.4,3.5-2.6,7.9-2.1,12c2.3,19.1,5.6,38.2,7,57.4c2.5,34.8,4.6,69.7,5.7,104.6c1.4,46.2,0.2,92.5-3.1,138.7
				c-3,42.5-6.6,84.9-10.1,127.3c-1.3,16.1-11.6,27.8-29,32.7c-6.1-7.6-12.5-15.7-19.2-23.4c-3.3-3.8-4.7-7.7-4.2-12.7
				c1.1-11.2,1.8-22.5,2.8-33.8c2.3-25.5,5-51,7.2-76.5c1.8-21.2,3.1-42.5,4.7-63.7c2.5-32.5,5.1-65,7.3-97.5
				c1.6-23.6,3-47.2,3.9-70.8c1.2-30,1.8-59.9,2.6-89.9c0-2,0.6-4.5-0.3-5.9c-4-6-1.1-11.5,0.3-17.2c0.8-3.2,1.6-6.5,2.4-9.7
				c1.1-2.6,2.2-5.2,3.4-7.9C1164.6,722.7,1169.2,723.3,1173.9,724.1z"/>
		</g>
	</g>
</g>
<g id="chatOrange">
	<path class="st5" d="M232.3,672c-7.9-1.1-13.6,1.9-19.1,7.8c-21.3,22.9-43.2,45.3-64.9,67.9c-2.2,2.3-4.7,4.4-9,8.5
		c-0.4-29.4,0.2-56.5-0.4-84.2c-8.1,0-14.7,0.2-21.3,0c-18.7-0.5-32.3-12.2-35.3-30.5c-0.7-4.3-1.2-8.6-1.2-12.9
		c-0.1-97-0.1-194,0-291c0.1-5,0.5-10.1,1.6-14.9c3.4-13.8,12-22.8,25.8-26.4c4.4-1.1,9.2-1.5,13.8-1.5
		c119.6-0.1,239.3-0.1,358.9-0.1c2,0,4-0.1,6,0.1c21.9,1.9,35.2,16.2,35.2,38.3c0,37-0.1,74-0.1,111c-4,0.2-8,0.4-12,0.4
		c-74.6,0.1-149.2,0-223.8,0.1c-4.6,0-9.4,0.2-13.9,1c-14.6,2.7-23.6,11.8-27.6,25.7c-1.2,4.4-1.1,9.3-1.1,13.9
		c-0.1,58.3-0.1,116.5-0.1,174.8c0,4-0.4,7.9-0.6,11.9C239.6,671.9,235.8,672.4,232.3,672z"/>
</g>
<g id="chatBlue">
	<path class="st16" d="M243.8,778.5c0.4-32,0.2-63.9,0.1-95.8c0-3.6-0.5-7.3-0.7-10.9c0.2-4,0.6-7.9,0.6-11.9
		c0.1-58.3,0-116.5,0.1-174.8c0-4.7-0.2-9.5,1.1-13.9c4-13.9,13-23,27.6-25.7c4.5-0.8,9.3-1,13.9-1c74.5-0.1,149.1-0.1,223.7-0.1
		c4,0,8-0.3,12-0.4c11.9,0.1,23.9,0.4,35.8,0.4c29.2,0,58.5,0,87.7,0c13,0,24.1,4.2,31.8,15.3c5,7.1,6.9,14.9,6.9,23.5
		c0,24.2,0.1,48.4,0.2,72.7c0,12.7-0.2,25.3-0.2,38c-0.1,63,0,126-0.1,189c0,23.9-15,38.5-38.8,38.7c-2.7,0-5.3-0.1-8,0
		c-3.5,0.1-7,0.4-11.1,0.6c0,14.8,0.1,28.4,0,42c-0.1,13.4,0.3,26.8-1.4,40.5c-3.3-2.2-5.3-4.9-7.6-7.3
		c-21.5-22.7-43.3-45.3-64.6-68.2c-5.2-5.5-10.5-7.8-18.2-7.8c-82.3,0.3-164.6,0-246.9,0.3c-14.4,0.1-26.9-3-37-13.7
		C245.2,798.9,243.8,789,243.8,778.5z"/>
</g>
<g id="chatYellow">
	<path class="st5" d="M1881.7,1484.3c27-21.7,58.2-34.6,92-41.2c55.7-10.8,109.9-6.3,162,17.4c8.4,3.9,16.5,8.6,24.7,12.9
		c14.7,10.5,28.4,21.7,39.9,35.9c33.5,41.4,35,95.9,3.4,138.5c-20.3,27.3-47.3,45.6-78.3,58.3c-34.4,14-70.3,19.8-107.3,18.1
		c-6.4-0.3-10.4,1.5-14.2,6.7c-13.2,18-26.8,35.7-40.3,53.4c-1.9,2.6-4.1,4.9-7.7,9.1c0-27.6,0-52.7,0-78.3
		c-6.3-1.9-12-3.5-17.7-5.2c-10.7-5.2-21.8-9.7-32.1-15.6c-37.5-21.3-65.3-50.5-75.2-94C1824,1551.3,1844.6,1514.2,1881.7,1484.3z"
		/>
</g>
<g id="chatCyan">
	<path class="st16" d="M1829.4,1599.8c-38.4-13.6-72-34.3-98.2-66c-41-49.7-41.6-116-1.7-166.4c20.9-26.5,47.5-45.4,77.8-59.4
		c8.1-3.7,16.3-7.1,25-10.8c0-25.6,0-50.7,0-75.8c0.6-0.2,1.1-0.4,1.7-0.6c16.5,21.6,32.9,43.1,49.3,64.6
		c27.4-3.6,54.1-4.6,81.1-1.7c37.8,4.1,73.7,14.1,107.2,32.3c21.2,11.6,40,26.3,56.1,44.4c18.8,21.2,30.1,46,35.1,73.8
		c0,3.6,0.1,7.2-0.1,10.8c-0.5,9.4-1.3,18.9-2,28.3c-8.2-4.3-16.2-9.1-24.7-12.9c-52-23.7-106.3-28.3-162-17.4
		c-33.7,6.5-65,19.5-92,41.2c-36.9,29.7-57.4,66.9-50.6,115.8C1830.7,1600,1830,1600,1829.4,1599.8z"/>
</g>
<g id="voiceLine">
	<path class="st5" d="M2320,406.4c28.4-9.9,56.9-19.9,85.4-29.8c3.2-1.1,6.4-2.2,9.6-2.6c5.7-0.7,9.9,2.3,11.3,7.5
		c1.3,4.6-0.6,9.1-5.2,11.8c-2,1.1-4.2,1.8-6.4,2.6c-19.4,6.7-38.8,13.4-58.2,20.2c-10.9,3.9-21.7,8-32.6,12
		c-7.3,2.3-14.5,4.7-21.8,6.9c-8.2,2.4-13.5,0.3-15.5-6.1c-1.9-6.1,0.7-10.4,8.3-13.5c5.8-2.4,11.6-4.6,17.5-6.9
		C2315,407.8,2317.6,407.2,2320,406.4z"/>
	<path class="st5" d="M2363,509.9c12.9,1.4,25.8,2.7,38.7,4.1c4.9,0.6,9.1,2.4,10.3,7.9c1.9,8.4-3.6,14-12.6,13.2
		c-12.5-1.2-25.1-2.3-37.7-3.5c-9.9-1.3-19.7-2.6-29.6-3.7c-18.8-2.1-37.7-3.9-56.5-6.1c-7-0.9-10.4-5.3-9.7-11.5
		c0.7-5.8,5.6-9.9,12-9.4c6.6,0.5,13.2,1.6,19.8,2.2c18.2,1.8,36.4,3.4,54.6,5.1C2355.9,508.8,2359.5,509.6,2363,509.9z"/>
	<path class="st5" d="M2308.1,266.9c2.1-2.1,4.1-4.4,6.5-6.1c4.7-3.3,9.8-2.8,13.6,1c3.7,3.8,4.2,9,0.8,13.6
		c-1.8,2.4-4.1,4.4-6.2,6.5c-17.8,17.9-35.5,35.9-53.2,53.9c-9.2,9-18.5,18.1-27.8,27c-2.2,2.1-4.4,4.1-7,5.5
		c-4.5,2.5-8.5,0.8-11.6-2.6c-3-3.4-4.3-7.6-1.4-11.9c1.5-2.1,3.5-4,5.3-5.9c9.7-10,19.4-19.9,29.1-29.9
		C2273.5,301,2290.8,284,2308.1,266.9z"/>
</g>
</svg>
