<?xml version="1.0" encoding="utf-8"?>
<!-- Generator: Adobe Illustrator 23.0.5, SVG Export Plug-In . SVG Version: 6.00 Build 0)  -->
<svg version="1.1" id="Layer_1" xmlns="http://www.w3.org/2000/svg" xmlns:xlink="http://www.w3.org/1999/xlink" x="0px" y="0px"
	 viewBox="0 0 2432 2379" style="enable-background:new 0 0 2432 2379;" xml:space="preserve">
<style type="text/css">
	.st0{fill:#FFFFFF;}
	.st1{fill:#62987C;}
	.st2{fill:#2B3E3B;}
	.st3{fill:#00594C;}
	.st4{fill:#F2F2F2;}
	.st5{fill:#DEA912;}
	.st6{fill:#FFE3C9;}
	.st7{fill:#FEE3CA;}
	.st8{fill:#FCD2B1;}
	.st9{fill:#FDE3CB;}
	.st10{fill:#FCFDFD;}
	.st11{fill:#F8FCFD;}
	.st12{fill:#E8EBEB;}
	.st13{fill:#FEFEFD;}
	.st14{fill:#FFBF57;}
	.st15{fill:#FFE1C2;}
	.st16{fill:#5B7671;}
</style>
<g>
	<g>
		<g>
			<path class="st0" d="M2,2382C2,1588.7,2,795.3,2,2c810.7,0,1621.3,0,2432,0c0,793.3,0,1586.7,0,2380
				C1623.3,2382,812.7,2382,2,2382z M1197.2,2294.2c-0.3,0.6-0.2,1,0.4,1.3c-5.1,0.1-8.4,2.9-11.9,6.4c-6.8,6.8-13.7,13.6-21.3,19.5
				c-8.9,7-18.3,13.2-27.8,19.4c-7.7,5-10.7,11.4-7.5,20.9c21.5,3.3,43.3,5.1,65.2,5.1c14.9,0,28.1-4,39-14.6
				c1.2-1.2,3.4-1.5,5.3-1.9c7.5-1.8,12.6-6,12.8-14.2c0.3-7.6,0.4-15.3,0.1-22.9c-0.3-4.9-2.6-8.5-8.3-9.7
				c-8.4-1.8-16.7-4.3-25.1-6.4c4.2-0.4,8.4-0.7,12.7-1.2c4.8-0.5,9.7-1.2,14.5-1.8c5.6-0.3,5.8-4.7,6.2-8.6
				c2.9-25.7,5.7-51.5,8.4-77.2c2.8-26.1,5.5-52.1,8.3-78.2c10.7,2,21.4,4.2,32.2,5.9c18.6,3,37.2,5.9,55.9,8.4
				c16.4,2.2,32.8,3.9,49.3,5.8c0.6,2.6,1.3,5.2,1.8,7.8c7.6,44.6,15.1,89.3,22.7,133.9c2.3,13.4,4.8,26.7,7.1,39.8
				c3,0.5,5.2,0.8,7.4,1.1c1.3,8.6,2.5,16.6,3.8,24.8c11.5,0.8,22.1,1.5,32.7,2.2c6.9,0.4,14,1.6,18-4.9c5.9,2.5,10.8,6.2,16,6.6
				c35.6,2.5,71.2,4.3,106.8,6.2c1.9,0.1,3.8-0.4,5.5-0.7c2-12.1,1.7-12.7-8.8-16.9c-3.7-1.5-7.6-2.6-11.3-4.1
				c-14.8-5.9-29.8-11.6-44.3-18.1c-10.6-4.7-20.6-10.7-31.4-16.4c2.8-2.3,4.5-3.6,5.8-4.7c-4.8-49.7-9.5-98.8-14.2-147.8
				c2-1,3.9-2.7,6-2.8c15.9-0.9,31.8-1.4,47.8-2.2c11.9-0.6,23.9-0.9,35.8-2.2c20.1-2.2,40.1-4.8,60-7.7c18.3-2.6,36.7-5.1,54.8-9
				c26.6-5.7,53-12.1,79.2-19.2c32.4-8.7,64.2-19.4,95.3-32c21.9-8.8,43.2-18.9,64.9-28.2c31.6-13.5,61.1-30.9,90.6-48.2
				c29.3-17.2,57.7-35.6,83.9-57.2c20.5-16.9,41.3-33.5,60.5-51.8c17.8-16.9,33.9-35.6,50.4-53.9c19.2-21.2,36.2-44.2,51.8-68.1
				c11.9-18.4,22.7-37.5,33.8-56.4c19.8-33.7,34.4-69.8,47.6-106.3c10.7-29.3,19.4-59.3,25.3-90c4.3-22.1,7.6-44.3,11-66.6
				c1.2-7.8,1.6-15.8,2.2-23.7c1.3-17.2,3.2-34.3,3.7-51.5c0.8-28.9,0-57.8-3.7-86.5c-1.8-14.1-2.2-28.4-4.5-42.5
				c-5.5-32.7-11.8-65.2-21.2-97c-11.7-39.6-25.2-78.5-43.5-115.6c-12.4-25-25.6-49.7-39.9-73.7c-20.3-34-43.3-66.1-69.4-96
				c-7-8-13.4-16.5-20.8-24.1c-12.7-13.1-26.1-25.7-39.1-38.5c5.5-9.1,7-19,6.9-29.6c-0.4-31.9-0.1-63.8-0.1-95.8
				c0-3.6,0.4-7.3,0.7-10.9c3.7,0,7.4,0.4,11,0c8-1,13.6,1.9,19.1,7.8c21.4,22.9,43.2,45.3,64.9,67.9c2.2,2.3,4.7,4.4,9,8.5
				c0.4-29.4-0.2-56.4,0.4-84.2c8,0,14.7,0.2,21.3,0c18.6-0.5,32.2-12.2,35.3-30.5c0.7-4.3,1.2-8.6,1.2-12.9c0.1-97,0.1-194,0-291
				c0-5-0.4-10-1.6-14.9c-3.3-13.8-12-22.8-25.8-26.4c-4.4-1.2-9.2-1.5-13.8-1.5c-119.6-0.1-239.3-0.1-358.9-0.1c-2,0-4-0.1-6,0.1
				c-21.9,2-35.1,16.3-35.2,38.3c-0.1,37,0,74,0.1,111c-11.9,0.1-23.9,0.4-35.8,0.4c-29.2,0.1-58.5,0-87.7,0
				c-13.1,0-24.1,4.2-31.8,15.3c-4.9,7-6.9,14.9-6.9,23.5c0,24.3-0.1,48.5-0.2,72.7c-4.1-1.1-8.6-1.4-12.2-3.3
				c-30.9-16.9-62.2-33.2-92.4-51.4c-25.3-15.3-49.8-32-72.3-51.2c-16.7-14.2-33.5-28.2-50.3-42.3c-20.1-16.9-40.2-33.6-60.2-50.6
				c-18.5-15.6-36.7-31.7-55.3-47.2c-25.8-21.4-51.4-43.1-77.8-63.7c-30.1-23.4-60.7-46.3-91.8-68.4c-29.8-21.2-61-40.3-93.1-57.9
				c-31.6-17.3-63.5-33.7-97.2-46.4c-25.5-9.6-51.2-18.8-77.3-26.3c-22.9-6.5-46.4-10.9-69.9-15.2c-15.9-2.9-32.1-4.4-48.2-6.1
				c-14.8-1.6-29.7-3.4-44.5-3.8c-38.9-1-77.7,0.1-116.3,5.8c-20.3,3-40.6,5.8-60.7,9.8c-19.2,3.9-38,9.2-57,14
				c-41.4,10.6-80.8,26.5-119.4,44.5c-42.9,20-83.4,44.1-122,71.7c-30.9,22.1-59.5,46.8-87.1,72.7c-9.4,8.8-17.9,18.7-26.6,28.3
				c-10.2,11.3-20.3,22.8-30.2,34.5c-3.8,4.5-6.7,9.7-10.1,14.6c-17.3-17-34.5-34-51.8-51c-2.1-2.1-4.1-4.4-6.5-6.1
				c-4.7-3.3-9.8-2.8-13.6,1c-3.7,3.8-4.2,9-0.8,13.6c1.8,2.4,4.1,4.4,6.2,6.5c17.7,18,35.4,36,53.2,53.9
				c-6.1,9-12.8,17.8-18.2,27.2c-8.6,14.9-16.4,30.3-24.6,45.4c-2.5-0.7-5.1-1.3-7.6-2.2c-28.5-9.9-57-19.9-85.4-29.8
				c-3.1-1.1-6.3-2.2-9.5-2.6c-5.7-0.7-9.9,2.3-11.3,7.5c-1.3,4.5,0.6,9.1,5.2,11.8c2,1.1,4.2,1.9,6.4,2.6
				c19.4,6.8,38.8,13.4,58.2,20.2c10.9,3.9,21.8,8,32.6,12c-5.4,13.5-11.3,26.8-16.2,40.5c-4.6,13-8.2,26.4-12.3,39.7
				c-3.6,0.6-7.2,1.4-10.8,1.8c-12.9,1.4-25.8,2.7-38.7,4.1c-4.9,0.5-9.1,2.4-10.3,7.9c-1.9,8.4,3.5,14,12.6,13.2
				c12.6-1.2,25.2-2.3,37.7-3.5c-0.1,1.7,0.1,3.4-0.3,5c-6.6,28.4-13.4,56.7-16.3,85.8c-2.5,24.3-6.5,48.7-7.1,73
				c-0.7,30.5-1.4,61.1,1,91.7c1.8,23.1,3.3,46.2,6.4,69.2c2.3,17,3.5,34.3,6.6,51.2c5.5,29.9,11.2,59.9,18.4,89.5
				c13.2,54.5,29.6,108.1,48.7,161c17,47,37.4,92.4,59.3,137.2c11.1,22.7,23.6,44.7,36.2,66.6c13.4,23.3,27.6,46.2,41.7,69.1
				c0.9,1.5,3.1,2.2,4.7,3.3c0,3.6-0.1,7.2,0.1,10.8c0.6,9.4,1.4,18.9,2.1,28.3c-14.7,10.4-28.5,21.7-39.9,35.9
				c-33.5,41.4-35.1,95.9-3.4,138.5c20.2,27.3,47.2,45.6,78.3,58.3c34.4,14,70.3,19.7,107.3,18.1c6.4-0.3,10.4,1.6,14.2,6.7
				c13.2,18,26.8,35.6,40.3,53.4c1.9,2.5,4.1,4.8,7.7,9.1c0-27.6,0-52.7,0-78.3c6.4-1.9,12-3.5,17.7-5.2c7.5,6.5,15,13,22.5,19.6
				c25,22.3,49.7,44.9,75.1,66.8c17.6,15.1,35.8,29.5,54.2,43.6c39.3,30,80,58.1,121.7,84.7c36.4,23.2,73.6,45.3,112,64.9
				c39.6,20.3,79.9,39.5,120.7,57.3c49,21.3,99.4,39.3,150.6,54.6c4.7,1.4,9.7,2,14.5,3c0.3,2,0.7,3.9,0.7,5.9
				c2.2,48.4,4.4,96.7,6.7,145.1c0.6,12.1,1.5,24.3,2.2,36.8c2.4,0,4.1,0,5.7,0C1188.6,2292.6,1192.9,2293.4,1197.2,2294.2z"/>
			<path class="st1" d="M2185.8,808c13.1,12.8,26.4,25.3,39.1,38.5c7.4,7.6,13.8,16.1,20.8,24.1c26.1,29.9,49.1,62,69.4,96
				c14.3,24,27.5,48.7,39.9,73.7c18.3,37,31.8,76,43.5,115.6c9.4,31.8,15.8,64.3,21.2,97c2.4,14,2.7,28.3,4.5,42.5
				c3.7,28.8,4.5,57.6,3.7,86.5c-0.5,17.2-2.3,34.4-3.7,51.5c-0.6,7.9-1,15.9-2.2,23.7c-3.4,22.2-6.7,44.5-11,66.6
				c-5.9,30.7-14.7,60.7-25.3,90c-13.3,36.6-27.8,72.7-47.6,106.3c-11.1,18.9-21.9,38.1-33.8,56.4c-15.6,24-32.6,46.9-51.8,68.1
				c-16.5,18.3-32.6,37-50.4,53.9c-19.2,18.3-40,34.9-60.5,51.8c-26.2,21.6-54.6,40.1-83.9,57.2c-29.5,17.3-59.1,34.7-90.6,48.2
				c-21.7,9.3-43.1,19.4-64.9,28.2c-31.1,12.6-62.9,23.3-95.3,32c-26.2,7-52.7,13.4-79.2,19.2c-18.1,3.9-36.5,6.4-54.8,9
				c-20,2.9-40,5.5-60,7.7c-11.9,1.3-23.8,1.7-35.8,2.2c-15.9,0.8-31.8,1.3-47.8,2.2c-2.1,0.1-4,1.8-6,2.8
				c-1.1-9.6-2.2-19.1-3.2-28.7c-3-29.8-5.9-59.6-8.8-89.4c-3-30.5-6.1-60.9-9.2-91.4c-3.1-30.5-6.2-60.9-9.2-91.4
				c-2.3-22.9-5.5-45.7-6.6-68.6c-3.1-65.9-5.4-131.8-7.9-197.7c-2.3-59.9-4.5-119.8-6.7-179.7c6.3-2.5,12.5-4.9,18.8-7.4
				c3.6,7.8,6.9,15.8,10.8,23.5c5.8,11.4,16.9,14,26.8,6.6c6.7-4.9,13.4-9.8,20-14.7c4.8-3.6,9.5-7.2,14.1-11
				c2.5-2.1,5.6-4.8,2.9-8.4c-2.4-3.3-4.8-7.5-10.4-5.8c-1.7,0.5-3.6,0.4-6.7,0.7c0-6,0.5-11.3-0.1-16.5c-1.2-11.1-3.9-13-13.6-12.8
				c-6.7,0.1-13.3,0-19.9,0c0.2-10.6,0.5-21.2,0.7-31.9c5.6-3.4,11.2-6.8,16.9-10.3c3.3,2.2,6.5,4.3,9.8,6.4
				c3.9,2.5,7.2,2.1,10.1-1.8c2.3-3.1,5.2-5.7,7.8-8.6c17.9,4.8,14.9,8,30.2-9.1c0.4-0.5,0.9-1,1.3-1.5
				c61.1-71,103.2-152.2,131.1-241.2c1.9-6.2-0.2-10.2-3-14.7c-33.4-54.5-66.8-108.9-100.2-163.4c-26.3-42.8-53.1-85.3-78.4-128.7
				c-14.1-24.2-32.5-40.4-60.7-44.9c-18.7-3-37.2-7.1-55.8-10.7c-4.5-8.7-12.4-11.6-21.3-14c-13.7-3.6-27.2-8.1-40.8-12.2
				c1.2-6,2.4-11.9,3.6-17.8c11.7-9.5,17.4-21.9,18.8-36.9c0.8-9.1,3.4-18.1,5.2-27.1c1,0.1,2,0.2,2.9,0.2
				c9.9,0.1,10.2,0.2,12.3-9.8c2-9.6,3.8-19.3,4.9-29c0.4-3.7-1.3-7.6-2-11.4c6.3-15.8,12.6-31.5,18.7-47.3c3.5-8.9,4-18.1,3.3-27.5
				c-0.8-10.5-6.2-17.6-16.3-20.4c-7.3-2-14.9-4-22.5-4.3c-12.1-0.6-21.6-5.2-30-13.6c-9.6-9.7-19.5-19.2-29.9-28
				c-20.4-17.4-46-9.3-52.7,16.5c-2.2,8.5-6,15.4-13.2,20.5c-1.3,0.9-2.3,2-3.5,3c1.5,2.3,2.6,4.2,3.8,6.1c-0.7-0.5-1.5-1-2.2-1.5
				c-2.8,3.8-5.5,7.6-8.3,11.4c-6,8-7.4,16.2-2,25.1c2.4,4,4.8,8,7.2,12c-2,10.7-0.8,22.5-10.3,30.7c-0.9,0.8-1.3,2.3-1.5,3.6
				c-1.6,12-3.1,24-4.6,36.1c-2.1,3.3-4.3,6.7-6.4,10c-8.5,13.6-15.6,27.7-15.4,44.4c0.3,18.6,9.2,32.3,26.4,39.5
				c5.2,2.1,10.4,3.9,15.7,5.9c-0.9,4.7-1.8,9.4-2.7,14.2c-1.3,0.8-2.6,1.6-3.9,2.4c-6.6,2-13.3,3.9-19.8,5.9
				c-16.6,5.2-33.2,10.5-49.8,15.8c-7.7,3.1-15.7,5.4-22.9,9.3c-15.7,8.7-29.3,19.4-39.6,35c-21.4,32.1-44.2,63.3-66.9,94.5
				c-17.1,23.4-34.8,46.2-52.7,69c-5.7,7.3-12.3,14-19,20.4c-7.2,6.9-8.2,6.8-16.2,1.3c-7.2-4.8-14.3-9.7-21.2-15
				c-60.4-47-120.7-94.1-181.1-141.2c-2.3-1.8-4.6-3.3-6.8-4.9c-3.1,2.8-5.5,5-7.9,7.2c-3.1-3-6.8-5.5-9-9c-2.9-4.7-6-5.6-10.7-3.2
				c-1.1,0.6-2.6,0.3-3.9,0.4c-4.1-3.3-4.8-7.7-3.7-12.6c0.9-4.2,2.2-8.3,2.8-12.6c1.6-12.6,2.3-24.8-6.8-35.8
				c-7.8-9.4-14.5-19.7-21.7-29.6c-5.3-7.2-10.4-14.5-16.1-21.4c-1.6-1.9-4.9-2.5-7.4-3.7c-1.1,2.6-3.1,5.1-3.1,7.7
				c0,3.5,0.6,7.4,2.3,10.4c4.4,7.8,9.5,15.1,14.3,22.6c2,3,4.7,5.8,2.2,9.8c-4.1,2.4-6.8-0.5-9.9-2.3c-8.5-5-17.1-9.8-25.7-14.7
				c0.3-1.3,0.3-2.7,0.9-3.9c13-27.7,26.2-55.4,39.1-83.2c2.4-5.2,5.9-5.5,10.5-4.6c11.7,2.3,23.5,4.6,35.3,6.8
				c6.4,1.2,12.9,2.1,20.3,3.3c9.5-47.7,18.7-94.5,28.1-141.6c-2.8-1-5-2-7.2-2.5c-40.8-9.3-81.7-18.6-122.5-27.9
				c-14.6-3.3-29.2-6.8-43.8-9.9c-2.8-0.6-6.5-3.3-8.6,1.5c-1.6-0.2-3.3-0.3-4.9-0.8c-23.1-7.2-46.6-13.4-69.2-22
				c-29.8-11.3-59.1-23.8-88.1-37c-18.4-8.4-35.9-18.8-53.7-28.5c-31.2-17.1-60.5-37.1-89.2-58.2c-2.8-2-5.8-3.7-9.6-6.1
				c-10.9,54.2-21.7,106.6-31.9,159.2c-10.2,52.7-21.3,105.3-31.1,159.6c4.3-0.8,6.8-1.2,9.3-1.7c30.1-6.2,60.1-13.1,90.4-18.2
				c20.2-3.4,40.7-4.5,61.2-6.4c17.8-1.6,35.6-3.6,53.5-3.8c25.6-0.2,51.1,1,76.7,1.9c8.6,0.3,17.1,1.5,25.7,2.4
				c10.8,1.1,21.7,2.4,32.5,3.6c2.4,1.3,4.7,3.4,7.3,3.9c14.9,3,29.9,5.5,44.8,8.4c4.4,0.8,8.7,2,14.4,3.4
				c-12.2,25.5-23.9,50-35.6,74.4c-2-1-4-2-6-3.1c-3.1-1.8-6.1-3.8-9.2-5.6c-2.9-1.7-6.3-2-7.6,1.3c-0.9,2.2-0.1,5.6,1.1,8
				c0.9,1.8,3.8,2.6,5.2,4.3c3.2,3.6,6,7.5,9,11.3c-1.4,2.8-2.8,5.5-4.2,8.3c-5.8-2.3-11.5-4.9-17.4-6.8c-3.3-1.1-7.1-1.6-10.5-1.2
				c-3.9,0.4-5.8,5.1-3,7.3c7.4,5.8,15.3,11,22.9,16.4c-3.6,8.5-7.2,17-10.9,25.4c-2.6,6-5.3,11.8-8,18c17.4,9.6,33.5,19.5,52.3,6
				c0.2,0.3,0.3,0.7,0.6,0.8c22.4,11.1,44.8,22.4,67.4,33.2c4.2,2,6.6,3.9,6.4,8.5c-4,4.2-7.9,8.4-12.6,13.4c2.2,3.2,4.6,6.7,7,10.2
				c4.4,6.2,8.9,12.3,13.3,18.4c-7.8,9.4-15.5,18.8-23.4,28.3c1.3,1.4,2.1,2.5,3.1,3.4c61.3,56.9,123.6,112.7,189.5,164.2
				c25.2,19.7,51.1,38.4,78.8,54.4c20.2,11.7,40.1,11.5,59.6,0c12.6-7.4,25.1-15.4,35.8-25.2c23.8-21.8,46.4-44.9,69.5-67.5
				c2.5-2.4,5-4.8,9-8.6c-1.5,128.9-2.9,255.7-4.3,382.2c4.5,2.8,8.2,5,11.8,7.4c6.6,4.4,13.1,9,19.6,13.5
				c-0.2,3.7-0.6,7.3-0.7,10.9c-1,55.2-2.1,110.5-2.8,165.7c-0.4,28.3,0,56.6-0.1,84.8c-0.1,22.6,1.9,45.2-2.5,67.7
				c-0.9,4.5-0.4,9.3-0.2,13.9c2.9,55.8,6.1,111.7,8.9,167.5c2.8,54.8,5.4,109.7,8,164.5c0.7,13.6,0.9,27.2,1.4,40.9
				c-4.8-1-9.8-1.6-14.5-3c-51.3-15.3-101.6-33.2-150.6-54.6c-40.8-17.8-81.1-37-120.7-57.3c-38.4-19.7-75.6-41.7-112-64.9
				c-41.7-26.6-82.4-54.7-121.7-84.7c-18.4-14.1-36.7-28.5-54.2-43.6c-25.4-21.8-50.1-44.5-75.1-66.8c-7.4-6.6-15-13.1-22.5-19.6
				c10.7-5.2,21.8-9.7,32.1-15.6c37.5-21.3,65.3-50.5,75.2-94c0.7-0.1,1.4,0,2-0.2c38.4-13.6,72-34.3,98.2-66
				c41-49.7,41.6-115.9,1.7-166.4c-20.9-26.5-47.5-45.4-77.8-59.4c-8.1-3.7-16.3-7.1-25-10.8c0-25.6,0-50.7,0-75.8
				c-0.6-0.2-1.1-0.4-1.7-0.6c-16.5,21.5-32.9,43.1-49.3,64.6c-27.3-3.6-54.1-4.5-81.1-1.7c-37.8,4.1-73.7,14-107.2,32.3
				c-21.3,11.6-40,26.3-56.1,44.4c-18.9,21.2-30.1,46-35.1,73.8c-1.6-1.1-3.8-1.8-4.7-3.3c-14-23-28.3-45.8-41.7-69.1
				c-12.6-21.9-25.1-43.9-36.2-66.6c-21.9-44.8-42.3-90.2-59.3-137.2c-19.1-52.8-35.5-106.4-48.7-161c-7.1-29.6-12.9-59.5-18.4-89.5
				c-3.1-16.9-4.3-34.1-6.6-51.2c-3.1-23-4.5-46.1-6.4-69.2c-2.4-30.6-1.8-61.2-1-91.7c0.6-24.4,4.6-48.7,7.1-73
				c2.9-29.1,9.8-57.4,16.3-85.8c0.4-1.6,0.2-3.3,0.3-5c9.9-1.2,19.7-2.6,29.6-3.7c18.8-2.1,37.7-3.9,56.5-6.1
				c7-0.8,10.4-5.3,9.7-11.5c-0.6-5.8-5.5-9.9-12-9.4c-6.6,0.5-13.2,1.6-19.8,2.2c-18.2,1.7-36.4,3.4-54.6,5.1
				c4.1-13.2,7.6-26.6,12.3-39.7c4.9-13.7,10.8-27,16.2-40.5c7.3,2.3,14.5,4.7,21.8,6.9c8.2,2.5,13.4,0.4,15.5-6.1
				c1.9-6.1-0.6-10.4-8.3-13.5c-5.8-2.4-11.7-4.6-17.5-6.9c8.2-15.2,16-30.5,24.6-45.4c5.4-9.4,12.1-18.1,18.2-27.2
				c9.3,9,18.5,18.1,27.8,27c2.1,2,4.4,4,7,5.5c4.5,2.5,8.6,0.8,11.6-2.6c3-3.4,4.3-7.6,1.4-11.9c-1.5-2.2-3.4-4-5.3-5.9
				c-9.7-10-19.4-20-29.1-29.9c3.3-4.9,6.3-10.1,10.1-14.6c9.9-11.7,19.9-23.1,30.2-34.5c8.7-9.6,17.2-19.5,26.6-28.3
				c27.6-25.9,56.2-50.6,87.1-72.7c38.6-27.5,79.1-51.6,122-71.7c38.6-18,78-33.9,119.4-44.5c19-4.8,37.8-10.1,57-14
				c20.1-4.1,40.4-6.8,60.7-9.9c38.6-5.7,77.4-6.8,116.3-5.8c14.9,0.4,29.7,2.2,44.5,3.8c16.1,1.7,32.3,3.2,48.2,6.2
				c23.4,4.3,47,8.7,69.9,15.2c26.2,7.5,51.8,16.7,77.3,26.3c33.7,12.7,65.6,29.1,97.2,46.4c32.1,17.6,63.3,36.7,93.1,57.9
				c31.1,22.1,61.7,45,91.8,68.4c26.4,20.6,52.1,42.2,77.8,63.7c18.6,15.5,36.8,31.5,55.3,47.2c20,16.9,40.1,33.7,60.2,50.6
				c16.8,14.1,33.6,28.1,50.3,42.3c22.6,19.2,47.1,35.9,72.3,51.2c30.1,18.2,61.4,34.6,92.4,51.4c3.6,2,8.1,2.3,12.2,3.3
				c0.1,12.7,0.2,25.3,0.2,38c0,63-0.1,126,0.1,189c0.1,23.9,15,38.5,38.8,38.7c2.7,0,5.3-0.1,8,0c3.5,0.1,7,0.4,11.1,0.6
				c0,14.8,0,28.4,0,42c0.1,13.3-0.3,26.7,1.4,40.5c3.3-2.1,5.3-4.8,7.6-7.3c21.6-22.7,43.3-45.3,64.6-68.2
				c5.2-5.5,10.5-7.9,18.2-7.8c82.3,0.3,164.6,0,246.9,0.3C2163.2,821.7,2175.7,818.7,2185.8,808z"/>
			<path class="st2" d="M1471.7,1412c2.2,59.9,4.4,119.8,6.7,179.7c2.5,65.9,4.8,131.8,7.9,197.7c1.1,22.9,4.3,45.7,6.6,68.6
				c3,30.5,6.1,60.9,9.2,91.4c3.1,30.5,6.1,60.9,9.2,91.4c3,29.8,5.9,59.6,8.8,89.4c1,9.6,2.1,19.1,3.2,28.7
				c4.7,49.1,9.4,98.1,14.2,147.8c-1.3,1.1-3,2.4-5.8,4.7c10.9,5.8,20.9,11.7,31.4,16.4c14.6,6.5,29.5,12.1,44.3,18.1
				c3.7,1.5,7.6,2.6,11.3,4.1c10.5,4.3,10.8,4.8,8.8,16.9c-1.8,0.2-3.7,0.8-5.5,0.7c-35.6-1.9-71.2-3.7-106.8-6.2
				c-5.2-0.4-10.1-4.1-16-6.6c-4,6.5-11.1,5.4-18,4.9c-10.6-0.7-21.2-1.4-32.7-2.2c-1.2-8.2-2.5-16.3-3.8-24.8
				c-2.3-0.4-4.4-0.7-7.4-1.1c-2.3-13.1-4.8-26.5-7.1-39.8c-7.6-44.6-15.1-89.3-22.7-133.9c-0.4-2.6-1.2-5.2-1.8-7.8
				c0.1-0.7,0.2-1.4,0.1-2c-7.6-49-15.6-97.9-22.7-146.9c-5.7-39.2-10.2-78.5-15.3-117.8c-1.9-14.8-3.5-29.7-6.2-44.4
				c-2.6-14-6.7-27.8-9.8-41.7c-13.6-60.4-24.3-121.3-34.1-182.4c-1.5-9.2-3.1-18.4-5.1-29.7c-1.3,3.1-1.8,3.9-1.9,4.8
				c-1.6,15.2-3,30.5-4.6,45.7c-3,27.4-6.1,54.9-9.4,82.3c-1.8,15.2-5.1,30.3-6.1,45.5c-1.5,24.6-1.7,49.2-2.4,73.9
				c-0.3,12-0.3,24-1,35.9c-2.3,38.2-4.6,76.4-7.3,114.6c-2.1,28.9-4.8,57.7-7.2,86.6c-1.5,18.6-3,37.1-4.5,55.7
				c-2.8,26.1-5.5,52.1-8.3,78.2c-2.8,25.7-5.6,51.5-8.4,77.2c-0.4,3.9-0.6,8.3-6.2,8.6c-14.5-0.2-29.1-0.3-43.6-0.5
				c-5.8-0.6-11.6-1.1-17.3-1.7c-1.6,0-3.3,0-5.7,0c-0.8-12.5-1.7-24.7-2.2-36.8c-2.3-48.4-4.4-96.7-6.7-145.1
				c-0.1-2-0.5-3.9-0.7-5.9c-0.5-13.6-0.8-27.2-1.4-40.9c-2.6-54.8-5.2-109.7-8-164.5c-2.9-55.8-6-111.7-8.9-167.5
				c-0.2-4.6-0.7-9.5,0.2-13.9c4.4-22.4,2.5-45.1,2.5-67.7c0.1-28.3-0.3-56.6,0.1-84.8c0.7-55.3,1.8-110.5,2.8-165.7
				c0.1-3.7,0.4-7.3,0.7-10.9c1.9,0.5,4,0.7,5.6,1.6c12.9,8,25.7,16.3,38.6,24.3c6.3,4,12.7,7.7,20.9,12.7c0-52.3,0-102.6,0-152.9
				c10.9-0.6,21.8-1.3,32.7-1.6c48.4-1.6,96.7-3.1,145.1-4.6c2,14.7,4.2,29.3,6.1,44c1.7,13.4,2.8,26.9,4.4,40.3
				c1.8,15.4,3.7,30.8,5.7,46.1c1.4,10.4,3,20.8,4.7,32.5C1438.4,1424.1,1455,1418.1,1471.7,1412z"/>
			<path class="st1" d="M1268.2,2130.1c1.5-18.6,2.9-37.1,4.5-55.7c2.4-28.9,5.1-57.7,7.2-86.6c2.7-38.2,5-76.4,7.3-114.6
				c0.7-12,0.6-24,1-35.9c0.7-24.6,0.9-49.3,2.4-73.9c0.9-15.2,4.3-30.3,6.1-45.5c3.3-27.4,6.3-54.9,9.4-82.3
				c1.7-15.2,3.1-30.5,4.6-45.7c0.1-0.9,0.7-1.7,1.9-4.8c1.9,11.3,3.6,20.5,5.1,29.7c9.8,61.1,20.5,122,34.1,182.4
				c3.1,13.9,7.2,27.7,9.8,41.7c2.7,14.7,4.3,29.6,6.2,44.4c5.1,39.3,9.6,78.6,15.3,117.8c7.1,49.1,15.1,98,22.7,146.9
				c0.1,0.6-0.1,1.3-0.1,2c-16.4-1.9-32.9-3.6-49.3-5.8c-18.7-2.5-37.3-5.4-55.9-8.4C1289.7,2134.2,1279,2132,1268.2,2130.1z"/>
			<path class="st2" d="M1218.2,2297c8.3,2.2,16.6,4.7,25.1,6.4c5.6,1.2,8,4.7,8.3,9.7c0.4,7.6,0.2,15.3-0.1,22.9
				c-0.3,8.2-5.3,12.4-12.8,14.2c-1.8,0.4-4,0.7-5.3,1.9c-10.9,10.6-24.1,14.6-39,14.6c-21.9-0.1-43.7-1.8-65.2-5.1
				c-3.2-9.5-0.2-15.8,7.5-20.9c9.5-6.2,18.9-12.4,27.8-19.4c7.6-5.9,14.5-12.7,21.3-19.5c3.4-3.5,6.8-6.3,11.8-6.4
				C1204.4,2296,1211.3,2296.5,1218.2,2297z"/>
			<path class="st3" d="M1218.2,2297c-6.9-0.5-13.7-1.1-20.6-1.6c-0.6-0.3-0.7-0.7-0.4-1.3c1.5-0.2,3-0.4,4.5-0.6
				c14.6,0.2,29.1,0.3,43.6,0.5c-4.8,0.6-9.7,1.3-14.5,1.8C1226.6,2296.3,1222.4,2296.6,1218.2,2297z"/>
			<path class="st2" d="M1201.7,2293.5c-1.5,0.2-3,0.4-4.5,0.6c-4.3-0.8-8.6-1.5-12.8-2.3C1190.1,2292.4,1195.9,2293,1201.7,2293.5z
				"/>
			<path class="st3" d="M1471.7,1412c-16.7,6.1-33.3,12.1-50.9,18.6c-1.7-11.7-3.4-22.1-4.7-32.5c-2-15.3-3.9-30.7-5.7-46.1
				c-1.6-13.4-2.7-26.9-4.4-40.3c-1.8-14.7-4-29.3-6.1-44c-0.3-4.3-0.4-8.6-0.9-12.8c-3.9-34.2-9.7-68.2-7.9-102.8
				c1-1.5,2.5-2.9,2.9-4.6c2.6-12.6,4.8-25.3,7.3-37.9c6.9-35,13.9-70,20.8-105c5.8-29.2,11.6-58.3,17.3-87.5
				c5.8-29.8,11.3-59.7,17.3-89.5c0.7-3.4,0.3-5.6-1.7-8.1c-4.8-5.9-9.3-12-14.3-17.8c-3-3.5-3.2-6.4,0.2-9.4
				c1.7-1.5,3.7-2.8,5.4-4.4c4.8-4.4,9.4-8.9,14-13.2c-2.1-3.5-3.6-5.7-4.8-8c-7.9-15-15.8-30-23.5-45c-2.7-5.2-5.1-10.6-7.7-15.9
				c18.6,3.6,37.1,7.7,55.8,10.7c28.2,4.5,46.6,20.7,60.7,44.9c25.3,43.4,52.2,85.9,78.4,128.7c33.4,54.5,66.8,109,100.2,163.4
				c2.8,4.6,4.9,8.6,3,14.7c-27.8,89.1-70,170.3-131.1,241.2c-0.4,0.5-0.9,1-1.3,1.5c-15.3,17.2-12.3,13.9-30.2,9.1
				c-12.5-9.1-25-18.2-37.5-27.2c-1.7-1.2-3.5-2.2-6.1-3.8c0,9.1,0,17,0,24.9c-0.3,6.8-0.6,13.6-0.9,20.3
				c-0.2,10.6-0.5,21.2-0.7,31.9c-0.6,9.9-1.2,19.7-1.8,29.2c-8,3.4-15.1,6.3-22.1,9.3C1484.2,1407,1477.9,1409.5,1471.7,1412z
				 M1526.3,976c-0.7,1.5-1.4,2.4-1.4,3.3c-2.4,89.5-4.8,179-7.1,268.6c0,0.2,0.3,0.5,0.5,0.6c0.3,0.1,0.7,0.1,1.1,0.1
				c0.5-0.8,1.1-1.6,1.4-2.5c24.8-57.1,49.4-114.2,74.4-171.2c2.3-5.2,0.9-8.6-2.2-12.6c-20.9-27.2-41.7-54.5-62.6-81.7
				C1529.3,979,1527.9,977.7,1526.3,976z"/>
			<path class="st3" d="M1222,1273.9c0,50.3,0,100.6,0,152.9c-8.2-4.9-14.6-8.7-20.9-12.7c-12.9-8.1-25.7-16.3-38.6-24.3
				c-1.6-1-3.7-1.1-5.6-1.6c-6.5-4.5-13-9.1-19.6-13.5c-3.6-2.4-7.3-4.6-11.8-7.4c1.4-126.5,2.9-253.2,4.3-382.2
				c-4,3.8-6.5,6.2-9,8.6c-23.1,22.6-45.7,45.7-69.5,67.5c-10.7,9.8-23.3,17.8-35.8,25.2c-19.5,11.5-39.4,11.7-59.6,0
				c-27.8-16.1-53.7-34.8-78.8-54.4C811.3,980.3,749,924.6,687.7,867.6c-1-0.9-1.8-1.9-3.1-3.4c7.8-9.5,15.6-18.9,23.4-28.3
				c4.8-5,9.7-9.9,14.2-15.1c10.6-12.2,21.1-24.6,31.6-37c2.4-2.2,4.8-4.4,7.9-7.2c2.2,1.5,4.5,3.1,6.8,4.9
				c60.3,47.1,120.7,94.2,181.1,141.2c6.8,5.3,14,10.2,21.2,15c8,5.4,9.1,5.5,16.2-1.3c6.7-6.4,13.3-13.1,19-20.4
				c17.8-22.8,35.6-45.7,52.7-69c22.8-31.2,45.6-62.3,66.9-94.5c10.4-15.6,23.9-26.4,39.6-35c7.2-3.9,15.2-6.3,22.9-9.3
				c3.4,2.7,0.9,5.4,0,8.1c-6,18.3-12.1,36.5-18.1,54.8c-2.7,8.1-2.5,8,4.1,13.1c6.7,5.2,13.1,10.8,20.3,16.8
				c-7.2,5.1-13,9.4-19.1,13.4c-4.1,2.7-5.9,6-5.2,10.9c3.4,22.2,6.7,44.4,10.2,66.6c4.5,29,9.2,58,13.6,87.1
				c3.6,23.5,5.6,47.3,10.7,70.5c4.6,20.4,2.6,40.9,5,61.3c2.4,20.3,1.7,41.1,2.5,61.6c0.1,1.6,1,3.1,1.5,4.7
				c1.9-2.7,2.3-5.2,2.4-7.7c0.7-31.9,1.4-63.7,2.1-95.6c0-1.7-0.2-3.4,0.3-4.9c0.3-1.1,1.7-1.8,2.6-2.7c0.2,4,0.4,8,0.4,12
				C1221.6,1143.2,1221.8,1208.6,1222,1273.9z"/>
			<path class="st4" d="M581,572c-10.8-1.2-21.7-2.4-32.5-3.6c-8.6-0.9-17.1-2.1-25.7-2.4c-25.6-0.9-51.1-2.1-76.7-1.9
				c-17.8,0.1-35.7,2.2-53.5,3.8c-20.4,1.8-41,2.9-61.2,6.4c-30.3,5.2-60.3,12.1-90.4,18.2c-2.5,0.5-4.9,0.9-9.3,1.7
				c9.8-54.3,20.9-106.9,31.1-159.6c10.2-52.6,21-105,31.9-159.2c3.8,2.4,6.9,4.1,9.6,6.1c28.6,21.1,57.9,41.1,89.2,58.2
				c17.8,9.7,35.3,20.1,53.7,28.5c29,13.2,58.4,25.7,88.1,37c22.6,8.6,46.1,14.8,69.2,22c1.6,0.5,3.3,0.5,4.9,0.8
				C600,476,590.5,524,581,572z"/>
			<path class="st5" d="M581,572c9.5-48,19-96,28.5-144.1c2.1-4.8,5.9-2.1,8.6-1.5c14.6,3.1,29.2,6.5,43.8,9.9
				c40.8,9.3,81.7,18.6,122.5,27.9c2.2,0.5,4.3,1.5,7.2,2.5c-9.3,47.1-18.6,93.9-28.1,141.6c-7.4-1.2-13.9-2.1-20.3-3.3
				c-11.8-2.2-23.5-4.5-35.3-6.8c-4.6-0.9-8.1-0.6-10.5,4.6c-12.9,27.8-26,55.5-39.1,83.2c-0.5,1.2-0.6,2.6-0.9,3.9
				c-1.2,1.9-2.6,3.7-3.6,5.7c-9.4,18.6-18.7,37.2-28,55.8c-18.8,13.5-35,3.6-52.3-6c2.7-6.1,5.4-12,8-18c3.7-8.5,7.3-17,10.9-25.4
				c2.7-5.2,5.3-10.5,8-15.7c1.4-2.8,2.8-5.5,4.2-8.3c2.5-5.3,5-10.7,7.5-16c11.7-24.4,23.4-48.8,35.6-74.4
				c-5.8-1.4-10.1-2.6-14.4-3.4c-14.9-2.8-29.9-5.4-44.8-8.4C585.7,575.4,583.4,573.4,581,572z"/>
			<path class="st2" d="M1424.2,705.7c2.6,5.3,5,10.7,7.7,15.9c7.8,15,15.7,30,23.5,45c1.2,2.3,2.7,4.5,4.8,8
				c-4.5,4.3-9.2,8.8-14,13.2c-1.7,1.6-3.7,2.8-5.4,4.4c-3.4,3-3.2,6-0.2,9.4c5,5.7,9.5,11.9,14.3,17.8c2,2.5,2.4,4.7,1.7,8.1
				c-6,29.8-11.5,59.7-17.3,89.5c-5.7,29.2-11.5,58.3-17.3,87.5c-6.9,35-13.9,70-20.8,105c-2.5,12.6-4.8,25.3-7.3,37.9
				c-0.3,1.7-1.9,3.1-2.9,4.6c0.2-14,0.5-28,0.6-42c0.8-105.3,1.3-210.6,2.6-315.9c0.3-19.8-2.2-38-12.1-55.4
				c-5.7-10.1-9.5-21.3-14.2-31.9c-1.1-2.4-2.4-4.6-3.7-6.9c-1.4-4.7-2.8-9.4-4.2-14.1c0.7-2,1.4-4.1,2-6.1
				c13.6,4.1,27.1,8.6,40.8,12.2C1411.8,694.1,1419.7,697,1424.2,705.7z"/>
			<path class="st2" d="M1221,1066c-0.9,0.9-2.2,1.6-2.6,2.7c-0.5,1.5-0.3,3.3-0.3,4.9c-0.7,31.9-1.3,63.7-2.1,95.6
				c-0.1,2.5-0.5,5-2.4,7.7c-0.5-1.6-1.4-3.1-1.5-4.7c-0.8-20.6-0.1-41.3-2.5-61.6c-2.4-20.4-0.4-40.9-5-61.3
				c-5.2-23.1-7.1-47-10.7-70.5c-4.4-29-9.1-58-13.6-87.1c-3.4-22.2-6.7-44.4-10.2-66.6c-0.8-4.9,1.1-8.2,5.2-10.9
				c6-4,11.9-8.3,19.1-13.4c-7.3-6-13.6-11.6-20.3-16.8c-6.6-5.2-6.8-5-4.1-13.1c6-18.3,12.1-36.5,18.1-54.8c0.9-2.6,3.4-5.4,0-8.1
				c16.6-5.3,33.2-10.6,49.8-15.8c6.6-2.1,13.2-4,19.8-5.9c-0.3,1.6-0.4,3.3-0.8,4.8c-5.5,21.6-11,43.3-16.4,64.9
				c-7.2,23.6-14.2,47.2-12.8,72.3c0.3,5-0.3,10-0.4,15c-2.3,70.5-6.8,141-6,211.7C1221.3,1058.7,1221.1,1062.3,1221,1066z"/>
			<path class="st6" d="M1243.9,569.9c1.5-12,3-24.1,4.6-36.1c0.2-1.3,0.6-2.8,1.5-3.6c9.5-8.2,8.3-20,10.3-30.7
				c1.6-7.3,3.6-14.6,4.7-22c0.9-6,3.9-9.2,9.3-11.7c5.8-2.7,10.7-2.1,15.9,1.2c17.4,11.2,36.7,12.3,56.6,10.7
				c12.2-1,24.5-1.4,36.7-1.6c3.8,0,7.8,1.3,11.6,2.5c4.6,1.5,7.1,5,7,9.8c-0.2,6.6-0.3,13.3-1.1,19.8c-1.3,12.1-3.1,24.1-4.8,37.5
				c4.2,0.7,8,1.3,11.7,2c0.7,3.8,2.4,7.7,2,11.4c-1.1,9.7-2.9,19.4-4.9,29c-2.1,10-2.3,9.9-12.3,9.8c-1,0-2-0.1-2.9-0.2
				c0.8-7.3,1.6-14.6,2.5-21.9c-3,2.2-4.1,4.9-5.8,7.2c-4.5,6.1-8.9,12.4-14.2,17.9c-6,6.2-13.6,7-21,2.7c-5.1-3-9.7-6.9-14.6-10.3
				c-7.3-5.1-14.2-11.3-22.2-14.9c-13.9-6.3-28.7-11.6-44.3-6.3c-7.4,2.5-14.3,6.5-22.2,10.3c0.6-5,1.1-10,1.8-15.7
				C1247.2,568,1245.6,569,1243.9,569.9z M1392.8,569.4c-0.1,0.2-0.2,0.5-0.3,0.7c0.3,0,0.6,0.1,0.9,0.1c0-0.3,0-0.5-0.1-0.7
				C1393.2,569.4,1392.9,569.5,1392.8,569.4z"/>
			<path class="st5" d="M1243.9,569.9c1.7-1,3.3-1.9,5.6-3.2c-0.7,5.7-1.2,10.7-1.8,15.7c8-3.8,14.8-7.8,22.2-10.3
				c15.6-5.2,30.3,0,44.3,6.3c8,3.6,14.9,9.8,22.2,14.9c4.9,3.4,9.5,7.3,14.6,10.3c7.5,4.3,15.1,3.5,21-2.7
				c5.3-5.4,9.6-11.8,14.2-17.9c1.7-2.3,2.8-5.1,5.8-7.2c-0.8,7.3-1.6,14.6-2.5,21.9c-1.8,9-4.4,18-5.2,27.1
				c-1.4,15-7.1,27.3-18.8,36.9c-1.2,0.5-2.6,0.8-3.7,1.4c-18.9,9.9-39.4,11.5-60.1,10.5c-12.6-0.6-25.1-2.6-37.6-3.9
				c-5.2-2-10.5-3.7-15.7-5.9c-17.2-7.2-26.2-20.9-26.4-39.5c-0.2-16.7,6.8-30.8,15.4-44.4C1239.7,576.6,1241.8,573.3,1243.9,569.9z
				 M1264.8,594.4c-0.6,7.4,2.8,10.4,8.3,11.3c8.7,1.5,17.5,2.8,26.3,4c1.6,0.2,3.4,0.3,4.9-0.3c3.3-1.2,6.2-3.6,5.1-7.3
				c-0.5-1.8-3.7-3.4-5.9-3.8c-8.1-1.6-16.2-2.9-24.3-3.8C1274.7,593.9,1270.1,594.4,1264.8,594.4z"/>
			<path class="st5" d="M1407.8,547.8c-3.8-0.6-7.5-1.3-11.7-2c1.8-13.3,3.5-25.4,4.8-37.5c0.7-6.6,0.9-13.2,1.1-19.8
				c0.1-4.8-2.4-8.3-7-9.8c-3.8-1.2-7.7-2.6-11.6-2.5c-12.2,0.2-24.5,0.6-36.7,1.6c-19.9,1.6-39.2,0.4-56.6-10.7
				c-5.2-3.3-10.1-3.9-15.9-1.2c-5.3,2.5-8.4,5.7-9.3,11.7c-1.1,7.4-3.1,14.7-4.7,22c-2.4-4-4.8-8-7.2-12c-5.4-8.9-3.9-17.1,2-25.1
				c2.8-3.8,5.6-7.6,8.3-11.4c0.7,0.5,1.5,1,2.2,1.5c-1.2-1.9-2.3-3.7-3.8-6.1c1.1-1,2.2-2.1,3.5-3c7.2-5,11-12,13.2-20.5
				c6.7-25.8,32.3-33.8,52.7-16.5c10.4,8.9,20.2,18.4,29.9,28c8.4,8.4,18,13,30,13.6c7.6,0.4,15.1,2.3,22.5,4.3
				c10.1,2.8,15.4,9.9,16.3,20.4c0.7,9.4,0.2,18.7-3.3,27.5C1420.4,516.3,1414,532,1407.8,547.8z"/>
			<path class="st7" d="M625.8,751.5c9.3-18.6,18.6-37.3,28-55.8c1-2,2.4-3.8,3.6-5.7c8.6,4.9,17.2,9.7,25.7,14.7
				c3.1,1.8,5.8,4.8,9.9,2.3c2.5-4-0.3-6.8-2.2-9.8c-4.8-7.5-9.9-14.9-14.3-22.6c-1.7-3-2.4-6.9-2.3-10.4c0-2.6,2-5.1,3.1-7.7
				c2.5,1.2,5.8,1.8,7.4,3.7c5.7,6.9,10.8,14.2,16.1,21.4c7.2,9.9,13.9,20.3,21.7,29.6c9.2,10.9,8.4,23.2,6.8,35.8
				c-0.5,4.2-1.8,8.4-2.8,12.6c-1.1,4.9-0.4,9.2,3.7,12.6c-0.3,0.9-0.2,2.3-0.8,2.8c-9.1,7.3-17.8,15.2-29.2,19.1
				c0.2-4.6-2.2-6.5-6.4-8.5c-22.6-10.7-45-22-67.4-33.2C626.1,752.2,626,751.8,625.8,751.5z"/>
			<path class="st8" d="M1264.3,669.7c12.5,1.3,25,3.3,37.6,3.9c20.7,1.1,41.2-0.6,60.1-10.5c1.2-0.6,2.5-0.9,3.7-1.4
				c-1.2,5.9-2.4,11.9-3.6,17.8c-0.7,2-1.4,4.1-2,6.1c-8.4,9.4-19.3,14.9-30.7,19.3c-11.3,4.3-23.2,7.3-34.8,11
				c-6.2,1.9-12.3,4-18.5,6c-4.6,0.7-9.2,1.3-13.8,2c-1.4-3.5-4.1-7.2-3.9-10.6c0.5-9.9,2.2-19.7,3.3-29.5
				C1262.5,679.1,1263.4,674.4,1264.3,669.7z"/>
			<path class="st9" d="M1490.4,1404.6c7-2.9,14.1-5.9,22.1-9.3c0.6-9.5,1.2-19.3,1.8-29.2c6.7,0,13.3,0.1,19.9,0
				c9.7-0.2,12.4,1.8,13.6,12.8c0.6,5.2,0.1,10.5,0.1,16.5c3.1-0.3,5-0.2,6.7-0.7c5.6-1.7,7.9,2.5,10.4,5.8c2.7,3.6-0.4,6.3-2.9,8.4
				c-4.5,3.9-9.3,7.4-14.1,11c-6.6,5-13.3,9.8-20,14.7c-10,7.3-21.1,4.8-26.8-6.6C1497.3,1420.4,1494,1412.4,1490.4,1404.6z"/>
			<path class="st10" d="M700.2,794c11.3-3.9,20.1-11.8,29.2-19.1c0.6-0.5,0.5-1.8,0.8-2.8c1.3-0.1,2.8,0.1,3.9-0.4
				c4.7-2.4,7.7-1.5,10.7,3.2c2.2,3.5,6,6,9,9c-10.5,12.3-21,24.7-31.6,37c-4.5,5.2-9.5,10.1-14.2,15.1c-4.5-6.1-8.9-12.3-13.3-18.4
				c-2.5-3.4-4.8-6.9-7-10.2C692.3,802.4,696.3,798.2,700.2,794z"/>
			<path class="st11" d="M1516,1313.9c0-7.9,0-15.8,0-24.9c2.6,1.6,4.4,2.6,6.1,3.8c12.5,9.1,25,18.1,37.5,27.2
				c-2.6,2.8-5.5,5.5-7.8,8.6c-2.9,3.9-6.2,4.4-10.1,1.8c-3.3-2.1-6.5-4.3-9.8-6.4C1526.6,1320.6,1521.3,1317.2,1516,1313.9z"/>
			<path class="st12" d="M1261.6,683.9c-1.2,9.8-2.9,19.6-3.3,29.5c-0.2,3.5,2.5,7.1,3.9,10.6c-1.9,6.6-3.8,13.2-5.7,19.9
				c-1.8,1.2-3.6,2.4-5.3,3.7c-3.6,2.8-7,5.6-10.6,8.5c5.5-21.6,11-43.3,16.4-64.9c0.4-1.6,0.5-3.2,0.8-4.8
				C1259,685.5,1260.3,684.7,1261.6,683.9z"/>
			<path class="st9" d="M600.3,686.4c-2.7,5.2-5.3,10.5-8,15.7c-7.7-5.4-15.5-10.6-22.9-16.4c-2.8-2.2-0.9-6.8,3-7.3
				c3.4-0.4,7.2,0.1,10.5,1.2C588.8,681.5,594.5,684.1,600.3,686.4z"/>
			<path class="st9" d="M612,662.1c-2.5,5.3-5,10.7-7.5,16c-3-3.8-5.8-7.7-9-11.3c-1.5-1.7-4.3-2.4-5.2-4.3c-1.1-2.3-2-5.8-1.1-8
				c1.3-3.3,4.8-2.9,7.6-1.3c3.1,1.8,6.1,3.8,9.2,5.6C607.9,660.1,610,661.1,612,662.1z"/>
			<path class="st9" d="M1516,1313.9c5.3,3.4,10.6,6.7,15.9,10.1c-5.6,3.4-11.3,6.8-16.9,10.3
				C1515.3,1327.4,1515.6,1320.7,1516,1313.9z"/>
			<path class="st13" d="M1240.5,756c3.5-2.8,7-5.7,10.6-8.5c1.7-1.3,3.6-2.5,5.3-3.7c-0.7,2.9-1.5,5.8-1.9,8.8
				c-0.2,1.8-0.3,4.6,0.8,5.5c4.4,3.5,2.6,7.9,2.1,12c-2.3,19.1-5.6,38.2-7,57.4c-2.5,34.8-4.7,69.7-5.7,104.6
				c-1.4,46.3-0.2,92.6,3.1,138.7c3,42.4,6.6,84.9,10.1,127.3c1.3,16.1,11.5,27.8,29,32.7c6.2-7.6,12.5-15.7,19.2-23.4
				c3.3-3.8,4.7-7.7,4.2-12.7c-1.2-11.3-1.8-22.6-2.8-33.8c-2.4-25.5-5-50.9-7.2-76.5c-1.8-21.2-3.1-42.5-4.7-63.7
				c-2.4-32.5-5.1-65-7.3-97.5c-1.6-23.6-3-47.2-3.9-70.8c-1.2-29.9-1.8-59.9-2.6-89.9c-0.1-2-0.7-4.5,0.3-5.9
				c4-5.9,1.1-11.5-0.3-17.2c-0.8-3.2-1.6-6.5-2.4-9.7c1.6,1,3.7,1.5,4.8,2.9c4.2,5.1,8.1,10.5,12.1,15.8c6.8,9.3,9.9,9.4,17.5,0.5
				c5.2-6,10.5-11.9,15.9-17.8c2.4-2.7,5-5.3,7.5-8c6.3-6.8,12.4-13.8,19-20.3c1.9-1.8,5.3-2.1,8-3.1c1.2,2.3,2.6,4.5,3.7,6.9
				c4.7,10.6,8.5,21.8,14.2,31.9c9.9,17.4,12.3,35.6,12.1,55.4c-1.3,105.3-1.8,210.6-2.6,315.9c-0.1,14-0.4,28-0.6,42
				c-1.8,34.6,4,68.6,7.9,102.8c0.5,4.3,0.6,8.6,0.9,12.8c-48.4,1.5-96.7,3-145.1,4.6c-10.9,0.4-21.8,1.1-32.7,1.6
				c-0.2-65.3-0.4-130.6-0.6-195.9c0-4-0.3-8-0.4-12c0.1-3.7,0.4-7.3,0.3-11c-0.8-70.6,3.7-141.1,6-211.7c0.2-5,0.7-10,0.4-15
				C1226.3,803.2,1233.3,779.6,1240.5,756z"/>
			<path class="st1" d="M1526.3,976c1.6,1.7,3,3,4.2,4.5c20.9,27.2,41.6,54.5,62.6,81.7c3.1,4,4.4,7.4,2.2,12.6
				c-24.9,57-49.6,114.1-74.4,171.2c-0.4,0.9-1,1.7-1.4,2.5c-0.4,0-0.8,0-1.1-0.1c-0.2-0.1-0.5-0.4-0.5-0.6
				c2.3-89.5,4.7-179,7.1-268.6C1524.9,978.4,1525.7,977.5,1526.3,976z"/>
			<path class="st4" d="M1364.3,699.8c-2.7,1-6.1,1.3-8,3.1c-6.6,6.5-12.7,13.5-19,20.3c-2.5,2.7-5.1,5.3-7.5,8
				c-5.3,5.9-10.7,11.8-15.9,17.8c-7.6,8.9-10.7,8.8-17.5-0.5c-3.9-5.3-7.9-10.7-12.1-15.8c-1.1-1.4-3.2-2-4.8-2.9
				c-1.2-2.7-2.3-5.3-3.4-7.9c6.2-2,12.3-4.1,18.5-6c11.6-3.7,23.5-6.7,34.8-11c11.4-4.3,22.3-9.9,30.7-19.3
				C1361.4,690.4,1362.9,695.1,1364.3,699.8z"/>
			<path class="st14" d="M1392.8,569.4c0.2,0,0.5,0,0.5,0.1c0.1,0.2,0.1,0.5,0.1,0.7c-0.3,0-0.6-0.1-0.9-0.1
				C1392.6,569.9,1392.7,569.7,1392.8,569.4z"/>
			<path class="st15" d="M1264.8,594.4c5.3,0,9.9-0.4,14.4,0.1c8.2,0.9,16.3,2.2,24.3,3.8c2.2,0.4,5.4,2.1,5.9,3.8
				c1.1,3.7-1.8,6.1-5.1,7.3c-1.5,0.5-3.3,0.5-4.9,0.3c-8.8-1.3-17.6-2.5-26.3-4C1267.6,604.8,1264.2,601.8,1264.8,594.4z"/>
			<path class="st5" d="M1276,722c1.2,2.7,2.3,5.3,3.4,7.9c0.8,3.2,1.6,6.5,2.4,9.7c1.4,5.7,4.3,11.2,0.3,17.2
				c-0.9,1.4-0.3,3.9-0.3,5.9c0.8,30,1.4,59.9,2.6,89.9c0.9,23.6,2.3,47.2,3.9,70.8c2.2,32.5,4.8,65,7.3,97.5
				c1.6,21.2,2.9,42.5,4.7,63.7c2.2,25.5,4.9,51,7.2,76.5c1,11.3,1.7,22.6,2.8,33.8c0.5,5-0.9,8.9-4.2,12.7
				c-6.7,7.7-13.1,15.8-19.2,23.4c-17.4-4.9-27.7-16.6-29-32.7c-3.5-42.4-7.1-84.8-10.1-127.3c-3.3-46.2-4.5-92.5-3.1-138.7
				c1.1-34.9,3.2-69.8,5.7-104.6c1.4-19.2,4.7-38.3,7-57.4c0.5-4.1,2.3-8.5-2.1-12c-1.1-0.9-1-3.7-0.8-5.5c0.3-3,1.2-5.8,1.9-8.8
				c1.9-6.6,3.8-13.2,5.7-19.9C1266.8,723.3,1271.4,722.7,1276,722z"/>
		</g>
	</g>
</g>
<g id="chatOrange">
	<path class="st5" d="M2192.8,671.9c-0.2-4-0.6-7.9-0.6-11.9c0-58.3,0-116.5-0.1-174.8c0-4.6,0.1-9.5-1.1-13.9
		c-4-13.9-13-23-27.6-25.7c-4.5-0.8-9.3-1-13.9-1c-74.6-0.1-149.2,0-223.8-0.1c-4,0-8-0.2-12-0.4c0-37-0.1-74-0.1-111
		c0-22.1,13.3-36.4,35.2-38.3c2-0.2,4-0.1,6-0.1c119.6,0,239.3,0,358.9,0.1c4.6,0,9.4,0.4,13.8,1.5c13.8,3.6,22.4,12.6,25.8,26.4
		c1.1,4.8,1.5,9.9,1.6,14.9c0.1,97,0.1,194,0,291c0,4.3-0.5,8.6-1.2,12.9c-3,18.3-16.6,30-35.3,30.5c-6.6,0.2-13.2,0-21.3,0
		c-0.6,27.7,0,54.8-0.4,84.2c-4.3-4.1-6.8-6.2-9-8.5c-21.7-22.6-43.6-45-64.9-67.9c-5.5-5.9-11.2-8.9-19.1-7.8
		C2200.2,672.4,2196.4,671.9,2192.8,671.9z"/>
</g>
<g id="chatBlue">
	<path class="st16" d="M2186,807.6c-10.1,10.7-22.6,13.8-37,13.7c-82.3-0.3-164.6,0-246.9-0.3c-7.7,0-13,2.3-18.2,7.8
		c-21.3,22.9-43.1,45.5-64.6,68.2c-2.3,2.4-4.3,5.1-7.6,7.3c-1.7-13.7-1.3-27.1-1.4-40.5c-0.1-13.6,0-27.2,0-42
		c-4.1-0.2-7.6-0.5-11.1-0.6c-2.7-0.1-5.3,0-8,0c-23.8-0.2-38.8-14.8-38.8-38.7c-0.1-63,0-126-0.1-189c0-12.7-0.2-25.3-0.2-38
		c0.1-24.3,0.2-48.5,0.2-72.7c0-8.6,1.9-16.4,6.9-23.5c7.7-11.1,18.8-15.3,31.8-15.3c29.2,0,58.5,0,87.7,0c11.9,0,23.9-0.3,35.8-0.4
		c4,0.1,8,0.4,12,0.4c74.6,0,149.2,0,223.7,0.1c4.6,0,9.4,0.2,13.9,1c14.6,2.7,23.6,11.8,27.6,25.7c1.3,4.4,1.1,9.2,1.1,13.9
		c0.1,58.3,0,116.5,0.1,174.8c0,4,0.4,7.9,0.6,11.9c-0.2,3.6-0.7,7.3-0.7,10.9c-0.1,31.9-0.3,63.8,0.1,95.8
		C2192.9,788.6,2191.5,798.5,2186,807.6z"/>
</g>
<g id="chatYellow">
	<path class="st5" d="M605.1,1600.3c-9.9,43.5-37.7,72.7-75.2,94c-10.3,5.9-21.4,10.4-32.1,15.6c-5.7,1.7-11.4,3.3-17.7,5.2
		c0,25.6,0,50.7,0,78.3c-3.6-4.2-5.8-6.5-7.7-9.1c-13.5-17.7-27.1-35.4-40.3-53.4c-3.8-5.2-7.8-7-14.2-6.7
		c-37,1.7-72.9-4.1-107.3-18.1c-31-12.7-58-31-78.3-58.3c-31.6-42.6-30.1-97.1,3.4-138.5c11.5-14.2,25.2-25.4,39.9-35.9
		c8.2-4.3,16.3-9,24.7-12.9c52.1-23.7,106.3-28.2,162-17.4c33.8,6.6,65,19.5,92,41.2C591.4,1514.2,612,1551.3,605.1,1600.3z"/>
</g>
<g id="chatCyan">
	<path class="st16" d="M604.9,1599.9c6.8-48.9-13.7-86.1-50.6-115.8c-27-21.7-58.3-34.7-92-41.2c-55.7-10.9-110-6.3-162,17.4
		c-8.5,3.8-16.5,8.6-24.7,12.9c-0.7-9.4-1.5-18.9-2-28.3c-0.2-3.6-0.1-7.2-0.1-10.8c5-27.8,16.3-52.6,35.1-73.8
		c16.1-18.1,34.9-32.8,56.1-44.4c33.5-18.2,69.4-28.2,107.2-32.3c27-2.9,53.7-1.9,81.1,1.7c16.4-21.5,32.8-43,49.3-64.6
		c0.6,0.2,1.1,0.4,1.7,0.6c0,25.1,0,50.2,0,75.8c8.7,3.7,16.9,7.1,25,10.8c30.3,14,56.9,32.9,77.8,59.4
		c39.9,50.4,39.3,116.7-1.7,166.4c-26.2,31.7-59.8,52.4-98.2,66C606.3,1599.9,605.6,1599.9,604.9,1599.9z"/>
</g>
<g id="voiceLine">
	<path class="st5" d="M123.6,408.5c5.9,2.3,11.7,4.5,17.5,6.9c7.6,3.1,10.2,7.4,8.3,13.5c-2,6.4-7.3,8.5-15.5,6.1
		c-7.3-2.2-14.5-4.6-21.8-6.9c-10.9-4-21.7-8.1-32.6-12c-19.4-6.8-38.8-13.5-58.2-20.2c-2.2-0.8-4.4-1.5-6.4-2.6
		c-4.6-2.7-6.5-7.2-5.2-11.8c1.4-5.2,5.6-8.2,11.3-7.5c3.2,0.4,6.4,1.5,9.6,2.6c28.5,9.9,57,19.9,85.4,29.8
		C118.4,407.2,121,407.8,123.6,408.5z"/>
	<path class="st5" d="M83.7,508.2c18.2-1.7,36.4-3.3,54.6-5.1c6.6-0.6,13.2-1.7,19.8-2.2c6.4-0.5,11.3,3.6,12,9.4
		c0.7,6.2-2.7,10.6-9.7,11.5c-18.8,2.2-37.7,4-56.5,6.1c-9.9,1.1-19.7,2.4-29.6,3.7c-12.6,1.2-25.2,2.3-37.7,3.5
		c-9,0.8-14.5-4.8-12.6-13.2c1.2-5.5,5.4-7.3,10.3-7.9c12.9-1.4,25.8-2.7,38.7-4.1C76.5,509.6,80.1,508.8,83.7,508.2z"/>
	<path class="st5" d="M179.8,318c9.7,10,19.4,19.9,29.1,29.9c1.8,1.9,3.8,3.8,5.3,5.9c2.9,4.3,1.6,8.5-1.4,11.9
		c-3.1,3.4-7.1,5.1-11.6,2.6c-2.6-1.4-4.8-3.4-7-5.5c-9.3-8.9-18.6-18-27.8-27c-17.7-18-35.4-36-53.2-53.9c-2.1-2.1-4.4-4.1-6.2-6.5
		c-3.4-4.6-2.9-9.8,0.8-13.6c3.8-3.8,8.9-4.3,13.6-1c2.4,1.7,4.4,4,6.5,6.1C145.2,284,162.5,301,179.8,318z"/>
</g>
</svg>
