<?xml version="1.0" encoding="utf-8"?>
<!-- Generator: Adobe Illustrator 23.0.5, SVG Export Plug-In . SVG Version: 6.00 Build 0)  -->
<svg version="1.1" id="Layer_1" xmlns="http://www.w3.org/2000/svg" xmlns:xlink="http://www.w3.org/1999/xlink" x="0px" y="0px"
	 viewBox="0 0 1647 1682" style="enable-background:new 0 0 1647 1682;" xml:space="preserve">
<style type="text/css">
	.st0{fill:#62987C;}
	.st1{fill:#FEFEFE;}
	.st2{fill:#DEA912;}
	.st3{fill:#606061;}
	.st4{fill:#F6F6F6;}
	.st5{fill:#00594C;}
	.st6{fill:#F4F5F5;}
	.st7{fill:#F4F4F4;}
	.st8{fill:#FBD1B0;}
	.st9{fill:#FAD1B0;}
	.st10{fill:#5B7671;}
	.st11{fill:#FDE1C8;}
	.st12{fill:#2B3E3B;}
	.st13{fill:#D3D3D3;}
	.st14{fill:#E7F2FD;}
</style>
<g>
	<g>
		<path class="st0" d="M922,1c60,0,120,0,180,0c9.44,1.32,18.89,2.6,28.33,3.98c20.95,3.05,42.02,5.51,62.82,9.4
			c26.86,5.03,53.62,10.74,80.22,17.01c42.23,9.95,83.82,22.2,124.39,37.69c36.93,14.1,72.39,31.24,105.52,52.86
			c28.93,18.88,55.09,41,77.15,67.84c18.64,22.69,33.63,47.41,43.62,75.03c13.02,36.01,18.87,73.13,15.9,111.41
			c-1.23,15.83-2.62,31.69-4.99,47.37c-5.54,36.78-16.68,72.07-30.1,106.66c-13.13,33.85-28.52,66.67-45.82,98.58
			c-7.68,14.17-15.15,28.52-23.78,42.11c-24.31,38.29-49.25,76.18-73.79,114.32c-17.08,26.54-32.51,53.75-35.85,86.12
			c-1.93,18.71,2.15,36.03,10.9,52.26c8.89,16.49,21.12,30.56,34.38,43.69c10.52,10.43,21.64,20.27,31.8,31.03
			c17.78,18.83,35.67,37.63,52.35,57.43c25.1,29.79,43.16,63.79,55.87,100.56c8.14,23.56,14.68,47.58,17.19,72.47
			c2.23,22.06,4.42,44.15,5.72,66.28c0.71,12.07-0.22,24.26-0.88,36.37c-0.65,11.9-1.69,23.78-2.94,35.63
			c-2.32,22.06-9.39,42.79-18.97,62.61c-14.22,29.41-34.43,54.23-58.91,75.84c-23.34,20.6-48.98,37.76-76.73,51.5
			c-21.28,10.53-43.24,19.77-65.3,28.59c-14.3,5.72-29.32,9.64-44.02,14.37c-1.3-5.66-2.6-11.31-3.9-16.97
			c-0.7-22.78-1.37-45.56-2.13-68.34c-0.57-16.96-1.26-33.91-1.9-50.86c-1.34-35.74-2.64-71.48-4.03-107.22
			c-0.92-23.6-1.92-47.2-2.98-70.79c-1.71-38.05-3.44-76.1-5.29-114.15c-0.6-12.29-1.61-24.56-2.44-36.83
			c-1.46-21.55-3.56-43.09-4.19-64.66c-0.47-16.09,1.45-32.25,1.38-48.37c-0.12-26.11-0.48-52.25-1.72-78.33
			c-1.2-25.35-5.82-50.21-14.94-74.03c-5.88-15.34-13.38-29.77-26.01-40.87c8.29-2.27,8.84-3.16,5.89-9.59
			c11.69-5.2,22.63-11.58,32.16-20.2c11.6,1.89,23.18,3.92,34.81,5.63c13.55,1.99,27.2,2.48,40.42-1.57
			c12.27-3.75,20.89-10.09,19.72-25.99c-0.66-9-2.26-18.14-4.93-26.75c-6.84-22.16-17.35-42.78-28.33-63.14
			c-3.94-7.3-7.79-14.64-11.69-21.96c2.36-2.19,4.97-4.17,7.04-6.6c10.96-12.88,21.82-25.85,32.65-38.84
			c10.82-12.99,21.53-26.08,32.35-39.06c10.83-12.99,21.76-25.9,32.61-38.87c13.2-15.76,26.06-31.81,39.66-47.21
			c7.85-8.89,7.63-23.39-0.68-29.4c-3.08-2.23-5.66-5.14-8.71-7.43c-7.02-5.27-20.33-5.56-26.32,2.2
			c-5.16,6.69-10.89,12.94-16.31,19.43c-9.14,10.94-18.23,21.92-27.34,32.89c-10.49,12.63-20.96,25.26-31.48,37.86
			c-0.64,0.77-1.7,1.18-3.56,2.43c0.65-1.7,0.74-2.33,1.08-2.78c23.64-32.04,47.28-64.07,70.96-96.08
			c5.13-6.93,4.12-19.8-2.36-25.12c-4.1-3.36-8.48-6.41-12.95-9.26c-6.48-4.14-16.56-3.2-21.62,2.51c-5.6,6.31-10.7,13.1-15.71,19.9
			c-25.19,34.18-50.29,68.44-75.42,102.67c-3.09-5.48-6.3-10.91-9.26-16.46c-12.68-23.7-21.98-48.37-22.05-75.77
			c-0.05-19.8-5.25-37.77-19.58-52.27c7.07-27.13,8.15-54.65,3.74-82.19c-8.31-51.88-31.85-95.83-71.77-130.14
			c-52.4-45.04-113.38-61.9-180.95-48.04c-75.26,15.44-128.08,59.94-158.07,130.98c-1.97,4.68-3.48,9.55-5.34,14.71
			c68.36,21.44,135.98,42.65,204.21,64.05c-37.97,57.53-75.37,114.21-112.78,170.89c-1.34-0.86-2.99-1.47-3.96-2.64
			c-5.18-6.27-10.25-12.64-15.22-19.08c-0.95-1.23-1.31-2.91-1.93-4.39c26.91-41.16,53.82-82.31,81.14-124.09
			c-70.51-21.56-140.05-42.83-210.07-64.24c-14.66,49.96-12.79,98.54,6.28,146.22c16.98,42.45,44.92,76.13,83.36,101.79
			c5.01-7.52,9.7-14.56,14.38-21.6c0.68,0.7,1.48,1.32,2.01,2.11c11.06,16.36,21.89,32.88,33.18,49.09
			c10.09,14.48,23.64,24.34,40.66,29.73c29.15,9.24,59.16,12.97,89.47,15.14c6.09,0.44,12.17,1.16,18.25,1.75
			c-1.66,4.16-3.33,8.32-4.96,12.49c-7.51,19.24-7.57,38.2,3.75,55.95c7.55,11.83,10.88,24.39,10.81,38.22
			c-0.13,25.65-0.04,51.3-0.04,76.94c0,10.07,2.06,12.83,11.66,15.68c-0.6,1.89-1.3,3.75-1.77,5.67
			c-18.17,74.63-36.31,149.27-54.47,223.91c-18.63,76.58-37.25,153.15-55.91,229.72c-20.75,85.13-41.53,170.25-62.29,255.38
			c-3.14,12.86-6.2,25.75-9.38,38.95c2.28,0.17,4.08,0.31,5.87,0.44c-2.22,6.31-4.44,12.62-6.65,18.93
			c-10.49,0.01-20.98,0.02-31.46,0.03c-21.32-43.81-42.67-87.6-63.94-131.44c-40.29-83.06-80.52-166.16-120.79-249.24
			c-33.6-69.3-67.22-138.59-100.82-207.89c-0.82-1.7-1.45-3.5-2.45-5.94c103.86,0,206.93,0,309.98,0c0-17.25,0-34,0-51.04
			c-17.43,0-34.56,0-51.69,0c-0.33-18.12-0.66-36.23-1.01-54.35c-0.32-16.62-0.66-33.24-1-49.85c-0.33-16.12-0.67-32.24-1-48.35
			c-0.34-16.95-0.92-33.9-0.85-50.85c0.02-5.24-1.57-6.28-6.48-6.27c-91.12,0.14-182.24,0.11-273.36,0.11
			c-0.83,0-1.67,0.07-2.5-0.01c-2.74-0.26-3.81,0.86-3.86,3.7c-0.2,10.29-0.64,20.58-0.94,30.86c-0.36,11.95-0.68,23.91-1,35.86
			c-0.67,25.07-1.41,50.14-1.98,75.22c-0.48,21.28-0.76,42.56-1.13,63.84c-13.28-0.11-26.56-0.21-39.85-0.32
			c-0.35-16.62-0.78-33.25-1.02-49.87c-0.4-27.62-0.68-55.25-1.02-82.87c-0.32-25.79-0.67-51.58-0.99-77.37
			c-0.35-27.79-0.7-55.58-0.99-83.37c-0.1-10.16-0.02-20.33-0.02-30.5c0-12.5,0-25,0-37.5c0-3.9,0-7.8,0-11.69
			c12.24,1.04,24.42,1.63,36.63-0.93c20.53-4.31,38.22-13.15,50.66-30.62c17.36-24.39,16.39-50.76,7.05-77.44
			c-9.94-28.41-27.67-52.09-47.89-73.89c-13.68-14.75-24.13-31.28-30.56-50.26c-7.24-21.37-11.16-43.29-8.84-65.94
			c1.23-12,2.02-24.15,4.63-35.88c10.85-48.7,36-89.65,70.26-125.25c8.95-9.3,18.9-17.7,28.84-25.97
			c30.28-25.19,64.42-43.87,100.72-58.78c25.55-10.49,51.83-18.8,78.83-24.55c17.14-3.65,34.48-6.41,51.73-9.51
			C910.02,2.89,916.02,1.98,922,1z"/>
		<path class="st1" d="M922,1c-5.98,0.98-11.98,1.89-17.94,2.96c-17.26,3.1-34.59,5.86-51.73,9.51
			c-27.01,5.75-53.29,14.06-78.83,24.55c-36.3,14.91-70.44,33.59-100.72,58.78c-9.94,8.27-19.89,16.67-28.84,25.97
			c-34.26,35.6-59.41,76.55-70.26,125.25c-2.61,11.72-3.41,23.88-4.63,35.88c-2.31,22.65,1.6,44.57,8.84,65.94
			c6.43,18.98,16.88,35.51,30.56,50.26c20.22,21.8,37.95,45.49,47.89,73.89c9.34,26.68,10.31,53.05-7.05,77.44
			c-12.43,17.46-30.13,26.31-50.66,30.62c-12.21,2.56-24.39,1.97-36.63,0.93c-0.33-7.46-0.79-14.91-0.97-22.37
			c-0.21-8.39,0.83-7.61-7.42-7.61C445.81,553,338.02,553,230.22,553c-1.17,0-2.34,0.08-3.5-0.01c-3.4-0.27-4.73,1.18-4.77,4.65
			c-0.23,19.45-0.62,38.91-0.95,58.36c-0.77,0.28-1.66,0.4-2.28,0.88c-15.19,11.79-31.13,22.76-45.36,35.62
			c-27.86,25.16-51.66,53.93-71.92,85.64c-21.32,33.38-38.1,68.91-51.34,106.15C38.63,876.57,30,909.65,24.21,943.4
			c-3.24,18.91-5.84,37.94-8.06,57c-1.61,13.81-2.64,27.73-3.01,41.63c-0.51,18.91-0.4,37.84-0.07,56.76
			c0.29,16.26,1.16,32.51,1.97,48.76c0.51,10.26,0.86,20.57,2.15,30.74c2.6,20.51,5.63,40.96,8.79,61.39
			c5.11,33.02,13.22,65.34,23.5,97.1c11.5,35.52,26.33,69.58,44.82,102.1c15.01,26.41,32.46,51.04,52.8,73.44
			c22.75,25.05,47.98,47.45,76.98,65.26c1.91,1.17,4.22,1.68,6.35,2.5c-7.46,15.31-14.92,30.61-22.38,45.92
			c-1.95,0.33-3.93,0.56-5.86,1.01c-13.22,3.06-26.47,6-39.59,9.44c-2.15,0.56-4.98,3.26-5.17,5.2c-0.17,1.76,2.64,4.04,4.5,5.68
			c1.17,1.04,2.96,1.57,4.55,1.9c17.81,3.62,35.53,7.97,53.5,10.5c22.74,3.2,45.68,5.09,68.57,7.17c18.13,1.65,36.3,2.86,54.47,4.04
			c18.02,1.16,36.06,2.08,54.1,3.02c14.07,0.74,28.15,1.39,42.23,2c16.41,0.71,32.81,1.42,49.22,1.99
			c21.4,0.74,42.8,1.55,64.21,1.97c27.27,0.54,54.54,0.72,81.81,1.06c1.67,0.02,3.37-0.2,4.98,0.11c0.9,0.18,1.62,1.23,2.42,1.89
			c-213.63,0-427.27,0-640.95,0c0-560.55,0-1121.1,0-1682C308,1,615,1,922,1z"/>
		<path class="st0" d="M642,1683c-0.8-0.66-1.52-1.71-2.42-1.89c-1.6-0.32-3.31-0.09-4.98-0.11c-27.27-0.33-54.55-0.52-81.81-1.06
			c-21.41-0.42-42.81-1.23-64.21-1.97c-16.41-0.57-32.82-1.28-49.22-1.99c-14.08-0.61-28.16-1.27-42.23-2
			c-18.04-0.94-36.07-1.86-54.1-3.02c-18.17-1.17-36.34-2.39-54.47-4.04c-22.89-2.08-45.82-3.97-68.57-7.17
			c-17.97-2.53-35.69-6.88-53.5-10.5c-1.6-0.32-3.38-0.86-4.55-1.9c-1.86-1.64-4.67-3.92-4.5-5.68c0.19-1.94,3.02-4.64,5.17-5.2
			c13.12-3.44,26.37-6.38,39.59-9.44c1.93-0.45,3.9-0.68,5.86-1.01c-3.34,7.3-6.67,14.6-10.44,22.84c13.12,0,25.38-0.17,37.64,0.11
			c3.66,0.08,5.27-1.37,6.69-4.39c3.73-7.96,7.73-15.8,11.62-23.69c18.77-1.69,37.53-3.37,55.44-4.98
			c-14.58-5.48-29.73-11.17-44.87-16.87c7.84-16.33,15.63-32.69,23.52-48.99c29.93-61.82,59.89-123.63,89.85-185.44
			c29.38-60.61,58.78-121.21,88.09-181.85c1.29-2.68,2.63-3.99,5.89-3.99c69.14,0.11,138.29,0.1,207.43,0.03
			c2.84,0,4.48,0.73,5.77,3.42c17.25,35.81,34.62,71.56,51.96,107.32c41.71,86.05,83.42,172.1,125.1,258.16
			c8.55,17.65,16.95,35.37,25.42,53.06c-1.7,0.41-3.41,1.21-5.1,1.17c-7.63-0.18-15.25-0.92-22.87-0.87
			c-34.45,0.2-68.9,0.61-103.35,0.93c-36.95,0.34-73.9,0.61-110.85,1.03c-14.79,0.17-29.58,0.62-44.37,0.97
			c-27.25,0.65-54.49,1.26-81.73,2.03c-18.58,0.53-37.17,1.23-55.74,1.98c-23.04,0.93-46.08,1.99-69.12,2.99
			c-15.42,0.67-30.83,1.32-46.24,2.03c-4.96,0.23-9.93,0.56-14.87,1.01c-4.44,0.4-8.86,1.02-13.29,1.54c3.23,1.43,6.42,2,9.62,2.4
			c13.95,1.77,27.9,3.47,41.85,5.22c15.26,1.91,30.49,4,45.77,5.74c13.81,1.57,27.66,2.72,41.49,4.15
			c18.59,1.92,37.16,4.08,55.76,5.85c13.52,1.28,27.08,2.01,40.62,3.11c19.47,1.59,38.91,3.4,58.38,4.9
			c15.19,1.17,30.41,2.13,45.62,3c19.37,1.11,38.74,2.11,58.12,3.01c16.74,0.78,33.49,1.43,50.24,1.99
			c13.62,0.46,27.24,0.86,40.87,0.99c17.49,0.17,34.99,0.05,52.48,0.06c1.84,0.38,3.69,1.1,5.53,1.1
			c49.19,0.06,98.38,0.05,147.57,0.05c1.65,0,3.29,0,5.11,0c-0.24-1.61-0.44-2.89-0.63-4.16c8.12-0.37,16.25-0.55,24.35-1.14
			c16.34-1.18,32.66-2.56,48.98-3.87c12.7-1.02,25.43-1.81,38.09-3.17c15.77-1.69,31.5-3.78,47.23-5.84
			c15.24-2,30.53-3.78,45.67-6.38c22.49-3.87,44.88-8.33,67.3-12.66c5.77-1.11,11.47-2.65,17.2-3.99
			c-15.42-1.76-30.6-2.94-45.8-3.92c-12.24-0.79-24.48-1.41-36.73-2c-14.91-0.73-29.81-1.39-44.72-2.02
			c-16.57-0.7-33.14-1.54-49.72-1.96c-32.06-0.82-64.12-1.35-96.18-2.09c-4.96-0.11-9.91-0.66-14.86-1
			c1.24-6.76,2.49-13.52,3.74-20.28c0.22-1.18,0.43-2.37,0.65-3.55c0.18-0.43,0.36-0.86,0.54-1.28c0.99-3.18,1.85-6.4,2.99-9.52
			c24.7-67.5,49.51-134.96,74.13-202.48c23.94-65.66,47.93-131.3,71.47-197.1c13.61-38.05,26.35-76.42,39.49-114.64
			c0.39-1.13,0.94-2.2,1.75-4.08c26.87,178.18,53.59,355.39,80.41,533.2c7.88,0,15.35,0,22.81,0c0.33,2.61,0.41,5.28,1.04,7.81
			c3.4,13.57,3.08,26.15-8.86,35.91c-14.25,3.02-28.66,5.43-42.69,9.25c-10.5,2.85-20.61,7.26-30.67,11.49
			c-3.67,1.54-7.2,4.16-7.67,9.21c52.72,0,105.2,0,158.54,0c-5.32-9.33-10.32-18.08-15.32-26.84c-0.37-3.02-0.74-6.04-1.1-9.06
			c4.13,0.33,8.28,0.47,12.37,1.02c19.67,2.63,39.4,4.94,58.95,8.27c8.39,1.43,16.46,4.94,24.55,7.86c1.55,0.56,3.49,2.84,3.43,4.26
			c-0.06,1.45-2.13,3.14-3.7,4.15c-1.92,1.25-4.17,2.09-6.37,2.79c-23.2,7.37-47.32,9.62-71.29,12.56
			c-15.27,1.88-30.66,2.83-45.99,4.14c-19.79,1.68-39.58,3.49-59.39,4.89c-17.86,1.26-35.75,2.1-53.63,3.04
			c-14.25,0.75-28.5,1.4-42.75,2.01c-16.58,0.71-33.17,1.41-49.75,1.99c-21.41,0.74-42.83,1.54-64.25,1.97
			c-26.78,0.54-53.58,0.72-80.36,1.06c-1.67,0.02-3.38-0.23-4.98,0.1c-1.06,0.22-1.95,1.24-2.92,1.9c-4.33,0-8.67,0-13,0
			c-1.39-0.33-2.78-0.95-4.17-0.96c-18.55-0.06-37.1-0.06-55.66,0c-1.39,0-2.78,0.62-4.18,0.95c-62.67,0-125.33,0-188,0
			c-1.39-0.33-2.78-0.95-4.18-0.95c-18.55-0.07-37.1-0.07-55.66,0c-1.39,0-2.78,0.62-4.17,0.96C650.67,1683,646.33,1683,642,1683z"
			/>
		<path class="st1" d="M984,1683c0.97-0.66,1.86-1.69,2.92-1.9c1.6-0.33,3.32-0.08,4.98-0.1c26.79-0.33,53.58-0.52,80.36-1.06
			c21.42-0.43,42.84-1.23,64.25-1.97c16.59-0.57,33.17-1.27,49.75-1.99c14.25-0.61,28.51-1.26,42.75-2.01
			c17.88-0.94,35.77-1.77,53.63-3.04c19.81-1.4,39.6-3.21,59.39-4.89c15.34-1.3,30.72-2.26,45.99-4.14
			c23.96-2.95,48.09-5.2,71.29-12.56c2.21-0.7,4.45-1.54,6.37-2.79c1.56-1.01,3.64-2.69,3.7-4.15c0.06-1.42-1.88-3.7-3.43-4.26
			c-8.09-2.92-16.16-6.43-24.55-7.86c-19.55-3.34-39.28-5.64-58.95-8.27c-4.1-0.55-8.25-0.69-12.37-1.02
			c-1.34-6.99-2.68-13.99-4.02-20.98c14.7-4.73,29.72-8.65,44.02-14.37c22.06-8.82,44.02-18.06,65.3-28.59
			c27.75-13.74,53.4-30.89,76.73-51.5c24.48-21.61,44.7-46.42,58.91-75.84c9.58-19.82,16.65-40.55,18.97-62.61
			c1.24-11.85,2.28-23.74,2.94-35.63c0.66-12.11,1.59-24.3,0.88-36.37c-1.3-22.13-3.49-44.22-5.72-66.28
			c-2.51-24.89-9.05-48.91-17.19-72.47c-12.71-36.78-30.77-70.78-55.87-100.56c-16.68-19.8-34.57-38.59-52.35-57.43
			c-10.16-10.76-21.28-20.6-31.8-31.03c-13.25-13.14-25.49-27.2-34.38-43.69c-8.74-16.22-12.82-33.55-10.9-52.26
			c3.33-32.37,18.77-59.58,35.85-86.12c24.54-38.14,49.48-76.03,73.79-114.32c8.63-13.59,16.09-27.94,23.78-42.11
			c17.3-31.91,32.7-64.73,45.82-98.58c13.42-34.59,24.56-69.88,30.1-106.66c2.36-15.69,3.76-31.54,4.99-47.37
			c2.97-38.28-2.87-75.41-15.9-111.41c-9.99-27.62-24.97-52.34-43.62-75.03c-22.06-26.84-48.22-48.96-77.15-67.84
			c-33.13-21.62-68.6-38.76-105.52-52.86c-40.57-15.49-82.16-27.74-124.39-37.69c-26.6-6.27-53.35-11.99-80.22-17.01
			c-20.8-3.89-41.87-6.35-62.82-9.4C1120.89,3.6,1111.44,2.32,1102,1c181.97,0,363.94,0,545.94,0c0,560.67,0,1121.33,0,1682
			C1426.59,1683,1205.29,1683,984,1683z"/>
		<path class="st1" d="M655,1683c1.39-0.33,2.78-0.95,4.17-0.96c18.55-0.06,37.1-0.06,55.66,0c1.39,0,2.78,0.62,4.18,0.95
			C697.67,1683,676.33,1683,655,1683z"/>
		<path class="st1" d="M907,1683c1.39-0.33,2.78-0.95,4.18-0.95c18.55-0.07,37.1-0.07,55.66,0c1.39,0,2.78,0.62,4.17,0.96
			C949.67,1683,928.33,1683,907,1683z"/>
		<path class="st2" d="M1316.83,1583.22c-7.47,0-14.93,0-22.81,0c-26.81-177.81-53.54-355.02-80.41-533.2
			c-0.81,1.88-1.36,2.95-1.75,4.08c-13.14,38.22-25.88,76.58-39.49,114.64c-23.53,65.8-47.52,131.45-71.47,197.1
			c-24.63,67.52-49.43,134.98-74.13,202.48c-1.14,3.12-2,6.34-2.99,9.52c-0.18,0.43-0.36,0.86-0.54,1.28
			c-0.22,1.18-0.43,2.37-0.65,3.55c-2.15,0.11-4.3,0.29-6.45,0.3c-15.77,0.08-31.54,0.12-47.3,0.17c-1.79-0.14-3.59-0.27-5.87-0.44
			c3.18-13.2,6.24-26.08,9.38-38.95c20.76-85.13,41.55-170.25,62.29-255.38c18.66-76.57,37.28-153.15,55.91-229.72
			c18.16-74.64,36.3-149.28,54.47-223.91c0.47-1.92,1.18-3.78,1.77-5.67c5.31-0.05,10.63-0.12,15.95-0.13
			c33.07-0.05,66.13-0.08,99.2-0.12c11.99-0.08,23.99-0.16,35.98-0.24c12.63,11.1,20.13,25.53,26.01,40.87
			c9.13,23.81,13.75,48.68,14.94,74.03c1.23,26.08,1.6,52.21,1.72,78.33c0.07,16.12-1.85,32.27-1.38,48.37
			c0.64,21.58,2.73,43.11,4.19,64.66c0.83,12.28,1.85,24.55,2.44,36.83c1.85,38.05,3.58,76.1,5.29,114.15
			c1.06,23.6,2.06,47.19,2.98,70.79c1.39,35.74,2.69,71.48,4.03,107.22c0.64,16.95,1.33,33.9,1.9,50.86
			c0.76,22.78,1.42,45.56,2.13,68.33C1347.05,1583.1,1331.94,1583.16,1316.83,1583.22z"/>
		<path class="st2" d="M988,520.01c37.41-56.68,74.81-113.36,112.78-170.89c-68.23-21.4-135.85-42.61-204.21-64.05
			c1.86-5.16,3.36-10.04,5.34-14.71c29.99-71.04,82.81-115.54,158.07-130.98c67.57-13.87,128.56,3,180.95,48.04
			c39.92,34.31,63.46,78.27,71.77,130.14c4.41,27.54,3.34,55.06-3.74,82.19c-18.76-16.49-40.76-21.62-64.93-17.62
			c-19.1,3.16-34.31,13.58-47.33,27.54c-11.14,11.94-12.63,20.74-5.77,35.16c-8.63,17.46-16.38,35.21-17.8,55
			c-1.15,16.02,4.39,25.4,17.84,30.25c-1.18,4.95-2.36,9.91-3.53,14.86c-1.26,0.41-2.55,0.73-3.77,1.23
			c-50.73,20.89-102.07,22.59-153.93,4.67c-9.08-3.14-17.84-7.21-26.75-10.85c-4.35-5.05-8.78-10.03-12.99-15.19
			C988.95,523.51,988.65,521.62,988,520.01z"/>
		<path class="st3" d="M253.55,1620.88c-3.89,7.89-7.89,15.73-11.62,23.69c-1.41,3.02-3.03,4.47-6.69,4.39
			c-12.25-0.28-24.52-0.11-37.64-0.11c3.76-8.23,7.1-15.54,10.44-22.84c7.46-15.31,14.92-30.61,22.38-45.92
			c0.43-0.7,0.93-1.37,1.29-2.11c36.12-74.55,72.22-149.1,108.35-223.64c52.1-107.48,104.22-214.94,156.32-322.42
			c3.8-7.83,7.54-15.68,11.64-24.21c-103.9,0-206.84,0-310.11,0c0-17.1,0-33.81,0-50.84c5.2-0.24,10.13-0.48,15.06-0.71
			c1.02,0,2.05,0,3.07,0.01c1.81,0.13,3.63,0.38,5.44,0.38c113.21,0.02,226.42,0.02,339.63,0c1.64,0,3.29-0.25,4.93-0.39
			c13.28,0.11,26.56,0.21,39.85,0.32c1.65,0.12,3.29,0.35,4.94,0.35c95.07,0.02,190.14,0.02,285.21,0c1.66,0,3.31-0.17,4.97-0.25
			c17.13,0,34.26,0,51.69,0c0,17.04,0,33.79,0,51.04c-103.05,0-206.11,0-309.98,0c1,2.44,1.63,4.24,2.45,5.94
			c33.6,69.3,67.22,138.59,100.82,207.89c40.27,83.07,80.5,166.17,120.79,249.24c21.26,43.84,42.62,87.63,63.94,131.44
			c3.82,8.27,7.65,16.53,11.47,24.8c-12.95,2.66-25.9,5.33-38.86,7.99c-5.39-11.38-10.78-22.76-16.17-34.15
			c-8.47-17.69-16.87-35.41-25.42-53.06c-41.68-86.06-83.39-172.11-125.1-258.16c-17.33-35.77-34.71-71.52-51.96-107.32
			c-1.3-2.69-2.94-3.43-5.77-3.42c-69.14,0.07-138.29,0.08-207.43-0.03c-3.27-0.01-4.6,1.31-5.89,3.99
			c-29.32,60.64-58.72,121.24-88.09,181.85c-29.96,61.81-59.92,123.62-89.85,185.44c-7.89,16.3-15.68,32.66-23.52,48.99
			C260.6,1606.31,257.08,1613.6,253.55,1620.88z M668.24,1148.83c-0.7-1.58-1.07-2.48-1.5-3.36
			c-21.66-44.75-43.36-89.49-64.94-134.29c-1.31-2.72-3-3.42-5.81-3.4c-13.49,0.12-27,0.25-40.48-0.07
			c-4.02-0.09-5.83,1.34-7.47,4.76c-16.78,34.92-33.72,69.77-50.6,104.65c-5.05,10.43-10.06,20.88-15.28,31.7
			C544.41,1148.83,606,1148.83,668.24,1148.83z"/>
		<path class="st4" d="M566.04,956.16c-1.64,0.14-3.29,0.39-4.93,0.39c-113.21,0.02-226.42,0.02-339.63,0
			c-1.81,0-3.63-0.25-5.44-0.38c-0.02-4.39-0.03-8.78-0.05-13.17c0.33-12.78,0.73-25.55,0.99-38.33c0.39-19.1,0.69-38.21,1.01-57.31
			c0.35-20.6,0.66-41.2,1.01-61.8c0.32-19.44,0.67-38.87,0.99-58.31c0.34-20.6,0.77-41.2,0.97-61.81
			c0.16-16.48,0.03-32.96,0.03-49.44c0.33-19.45,0.73-38.91,0.95-58.36c0.04-3.47,1.37-4.92,4.77-4.65c1.16,0.09,2.33,0.01,3.5,0.01
			c107.8,0,215.6,0,323.39,0.01c8.25,0,7.21-0.78,7.42,7.61c0.18,7.46,0.64,14.91,0.97,22.37c0,3.9,0,7.79,0,11.69
			c0,12.5,0,25,0,37.5c0,10.17-0.09,20.33,0.02,30.5c0.29,27.79,0.64,55.58,0.99,83.37c0.32,25.79,0.67,51.58,0.99,77.37
			c0.34,27.62,0.62,55.25,1.02,82.87C565.27,922.92,565.7,939.54,566.04,956.16z M526.91,754.88c-0.45-30.24-10.55-56.92-31.42-78.7
			c-37.67-39.29-83.88-51.18-136.41-39.55c-20.2,4.47-38.5,13.44-54.18,27.25c-1.2,0.88-2.49,1.66-3.58,2.66
			c-26.17,23.85-40.8,53.11-40.62,88.88c0.17,33.58,13.4,61.66,37.59,84.66c23.35,22.2,51.51,33.88,83.33,36.63
			c17.83,1.54,35.56,0.23,52.71-5.62c9.23-3.58,19.05-6.12,27.54-10.99c13.94-8,26.66-17.76,37.15-30.39
			C517.12,807.9,526.42,783.1,526.91,754.88z M306.76,893.28c-14.15,0-28.11,0.02-42.07-0.01c-3.88-0.01-3.37,1.93-2.26,4.46
			c14.01,0,27.81-0.06,41.62,0.04C307.17,897.79,307.92,896.61,306.76,893.28z M307.67,915.32c-0.41-0.43-0.83-0.86-1.24-1.29
			c-14.77,0-29.53,0-44.3,0c-0.27,0.43-0.54,0.86-0.82,1.29c1.16,0.84,2.31,2.39,3.47,2.41c13.14,0.17,26.29,0.17,39.43,0
			C305.38,917.71,306.52,916.16,307.67,915.32z M306.47,937.88c0.39-0.5,0.78-1,1.17-1.5c-1.17-0.79-2.33-2.26-3.51-2.27
			c-13.14-0.16-26.28-0.05-39.41-0.14c-3.52-0.02-3.23,1.59-2.33,3.91C277.26,937.88,291.86,937.88,306.47,937.88z M255.31,901.44
			c0-4.36,0-8.08,0-11.8c-4.14,0-7.86,0-11.71,0c0,4.09,0,7.81,0,11.8C247.64,901.44,251.36,901.44,255.31,901.44z M255.34,910.11
			c-4.22,0-7.8,0-11.6,0c0,3.96,0,7.65,0,11.38c4.05,0,7.74,0,11.6,0C255.34,917.56,255.34,914,255.34,910.11z"/>
		<path class="st5" d="M1187.44,544.94c1.18-4.95,2.36-9.91,3.53-14.86c6.91-14.64,14.16-29.13,20.57-43.98
			c2.76-6.39,3.89-13.51,5.56-20.35c0.73-2.99-0.76-4.6-3.71-5.85c-8.4-3.57-16.51-7.76-22.46-15.06
			c-6.87-14.42-5.37-23.22,5.77-35.16c13.02-13.96,28.23-24.38,47.33-27.54c24.17-4,46.17,1.13,64.93,17.62
			c14.32,14.5,19.53,32.46,19.58,52.27c0.07,27.4,9.37,52.08,22.05,75.77c2.97,5.55,6.17,10.97,9.26,16.46
			c7.37,15.46,7.31,31.44,3.32,47.68c-2.1,8.53-4.31,17.03-6.47,25.55c-4.84,14.31-7.82,28.87-4.76,43.98
			c2.33,11.53,5.32,22.92,7.74,34.44c3.48,16.58,2.96,33.33,1.44,50.08c-1.13,5.31-2.26,10.63-3.39,15.94
			c-4.62,13.85-11.71,26.26-21.78,36.89c-9.53,8.62-20.47,15.01-32.16,20.2c-3.15,1.01-6.24,2.28-9.46,2.99
			c-10.78,2.39-21.6,4.58-32.41,6.84c-33.07,0.04-66.13,0.07-99.2,0.12c-5.32,0.01-10.64,0.09-15.95,0.13
			c-9.6-2.84-11.66-5.61-11.66-15.68c0-25.65-0.09-51.3,0.04-76.94c0.07-13.83-3.27-26.39-10.81-38.22
			c-11.32-17.75-11.26-36.71-3.75-55.95c1.63-4.17,3.31-8.33,4.96-12.49c6.14,0.16,12.28,0.24,18.42,0.48
			c8.03,0.31,15.06-2.17,21.03-7.47c10.86-9.64,15.86-22.08,15.68-36.3c-0.13-9.67-2.99-18.49-13.62-22.08c6.23,0,12.46,0,18.6,0
			C1186.3,557.39,1186.87,551.16,1187.44,544.94z"/>
		<path class="st6" d="M901.01,956.58c-1.66,0.09-3.31,0.25-4.97,0.25c-95.07,0.01-190.14,0.01-285.21,0
			c-1.65,0-3.29-0.23-4.94-0.35c0.37-21.28,0.65-42.56,1.13-63.84c0.57-25.08,1.31-50.15,1.98-75.22c0.32-11.95,0.64-23.91,1-35.86
			c0.31-10.29,0.75-20.57,0.94-30.86c0.05-2.85,1.12-3.96,3.86-3.7c0.83,0.08,1.66,0.01,2.5,0.01c91.12,0,182.24,0.04,273.36-0.11
			c4.92-0.01,6.51,1.03,6.48,6.27c-0.07,16.95,0.51,33.9,0.85,50.85c0.32,16.12,0.67,32.24,1,48.35c0.34,16.62,0.68,33.24,1,49.85
			C900.35,920.34,900.67,938.46,901.01,956.58z M795.93,931.15c-7.24,0.41-14.48,0.81-22.31,1.25c0-36.78,0-72.85,0-109.13
			c-11.14,0-21.7,0-32.76,0c0,36.15,0,72.03,0,107.83c-7.72,0-14.94,0-22.63,0c0-41.01,0-81.59,0-122.34c-10.92,0-21.34,0-32.29,0
			c0,40.95,0,81.67,0,122.49c-8.13,0-15.72,0-23.77,0c0-2.07,0-3.86,0-5.65c0-46.83,0-93.66,0-140.48c0-1.33,0.18-2.71-0.1-3.98
			c-0.16-0.72-1.07-1.28-1.65-1.91c-0.52,0.68-1.28,1.3-1.5,2.07c-0.27,0.92-0.08,1.98-0.08,2.98c0,48.33,0,96.66,0,144.98
			c0,1.61,0,3.23,0,4.77c17.74,2.07,212.52,0.82,215.92-2.26c-15.99-0.2-30.95-0.4-45.92-0.59c0-45.89,0-91.77,0-137.97
			c-11.07,0-21.61,0-32.73,0c0,2.08,0,3.87,0,5.66c0,24.13,0.02,48.26-0.01,72.39C796.08,891.22,795.99,911.19,795.93,931.15z"/>
		<path class="st2" d="M941.99,531.98c-4.69,7.04-9.38,14.08-14.38,21.6c-38.44-25.66-66.38-59.33-83.36-101.79
			c-19.07-47.68-20.94-96.25-6.28-146.22c70.02,21.41,139.55,42.68,210.07,64.24c-27.32,41.78-54.23,82.94-81.14,124.09
			c-1.52-1.14-3.37-2.02-4.52-3.46c-14.27-17.71-28.35-35.58-42.7-53.24c-4.81-5.92-5.9-11.87-2.87-18.94
			c1.81-4.24,3.04-8.79,3.96-13.32c1.58-7.75-0.59-14.06-6.02-17.09c-2.49,5.32-4.96,10.59-7.46,15.94
			c-4.53-4-7.32-11.09-9.47-19.59c-1.38-5.48-3.62-11.04-6.71-15.74c-5.93-9.02-21.23-8.96-25.56,0.3
			c-2.46,5.28-3.96,12.19-2.82,17.74c3.14,15.32,9.93,29.19,21.5,40.29c1.52,1.46,2.69,3.36,3.7,5.24
			c14.07,26.04,28.07,52.11,42.11,78.16C933.96,517.49,938,524.72,941.99,531.98z"/>
		<path class="st7" d="M1356.71,617.47c2.16-8.51,4.37-17.02,6.47-25.55c4-16.24,4.05-32.22-3.32-47.68
			c25.13-34.23,50.23-68.49,75.42-102.67c5.01-6.8,10.11-13.59,15.71-19.9c5.06-5.71,15.15-6.64,21.62-2.51
			c4.47,2.86,8.86,5.9,12.95,9.26c6.48,5.32,7.49,18.19,2.36,25.12c-23.68,32.01-47.32,64.04-70.96,96.08
			c-0.33,0.45-0.43,1.07-1.08,2.78c1.86-1.25,2.92-1.66,3.56-2.43c10.53-12.59,21-25.23,31.48-37.86
			c9.11-10.97,18.2-21.95,27.34-32.89c5.42-6.49,11.15-12.74,16.31-19.43c5.99-7.76,19.3-7.47,26.32-2.2
			c3.04,2.29,5.63,5.2,8.71,7.43c8.31,6.01,8.53,20.51,0.68,29.4c-13.6,15.4-26.47,31.45-39.66,47.21
			c-10.86,12.97-21.78,25.88-32.61,38.87c-10.82,12.99-21.53,26.07-32.35,39.06c-10.83,12.99-21.69,25.96-32.65,38.84
			c-2.07,2.43-4.68,4.41-7.04,6.6c-1.04-1.49-2.18-2.92-3.12-4.47C1374.12,646.2,1365.42,631.84,1356.71,617.47z M1460.04,419.83
			c-0.93,0.63-3.05,1.3-3.33,2.42c-0.42,1.68-0.13,4.09,0.86,5.48c6.42,8.99,15.15,14.7,26,16.88c1.53,0.31,3.98-0.27,4.84-1.36
			c0.85-1.07,0.91-3.77,0.12-4.97C1481.93,428.23,1472.61,422.11,1460.04,419.83z M1506.73,457.72c-0.22,0.42-0.43,0.84-0.65,1.25
			c-4.97-0.02-6.7,2.7-3.99,6.94c1.67,2.61,3.97,4.91,6.33,6.95c5.81,5.03,12.09,9.36,20.04,10.06c1.62,0.14,4.48-0.46,4.77-1.36
			c0.57-1.77,0.4-4.48-0.66-5.93c-2.3-3.16-4.94-6.39-8.17-8.46C1518.8,463.57,1512.65,460.82,1506.73,457.72z M1415.7,553.92
			c-0.24-0.22-0.48-0.45-0.71-0.67c-0.56,0.6-1.13,1.2-1.69,1.8c0.24,0.22,0.47,0.45,0.71,0.67
			C1414.57,555.12,1415.13,554.52,1415.7,553.92z"/>
		<path class="st8" d="M941.99,531.98c-3.99-7.26-8.03-14.49-11.96-21.78c-14.05-26.05-28.05-52.12-42.11-78.16
			c-1.01-1.87-2.18-3.78-3.7-5.24c-11.57-11.1-18.35-24.97-21.5-40.29c-1.14-5.55,0.36-12.46,2.82-17.74
			c4.33-9.26,19.63-9.32,25.56-0.3c3.09,4.71,5.33,10.26,6.71,15.74c2.15,8.5,4.94,15.59,9.47,19.59
			c2.51-5.35,4.97-10.63,7.46-15.94c5.43,3.03,7.61,9.34,6.02,17.09c-0.92,4.53-2.15,9.09-3.96,13.32
			c-3.03,7.08-1.95,13.02,2.87,18.94c14.34,17.65,28.43,35.52,42.7,53.24c1.16,1.44,3,2.32,4.52,3.46c0.63,1.47,0.99,3.16,1.93,4.39
			c4.97,6.44,10.04,12.81,15.22,19.08c0.97,1.17,2.62,1.77,3.96,2.64c0.64,1.61,0.94,3.5,1.99,4.78c4.2,5.17,8.64,10.14,12.99,15.19
			c4.86,6.44,9.97,12.72,14.5,19.38c2.47,3.63,5.27,4.73,9.52,4.72c44.54-0.14,89.09-0.09,133.63-0.07c2.14,0,4.29,0.27,6.43,0.41
			c10.64,3.59,13.5,12.41,13.62,22.08c0.18,14.22-4.82,26.66-15.68,36.3c-5.97,5.3-13,7.79-21.03,7.47
			c-6.14-0.24-12.29-0.32-18.42-0.48c-6.08-0.6-12.15-1.32-18.25-1.76c-30.31-2.17-60.32-5.9-89.47-15.14
			c-17.01-5.39-30.57-15.25-40.66-29.73c-11.29-16.2-22.12-32.72-33.18-49.09C943.47,533.3,942.67,532.68,941.99,531.98z"/>
		<path class="st9" d="M1356.71,617.47c8.71,14.36,17.41,28.73,26.14,43.07c0.94,1.55,2.08,2.98,3.12,4.47
			c3.89,7.32,7.75,14.66,11.69,21.96c10.98,20.36,21.49,40.98,28.33,63.14c2.66,8.62,4.26,17.75,4.93,26.75
			c1.17,15.9-7.45,22.24-19.72,25.99c-13.22,4.04-26.87,3.56-40.42,1.57c-11.63-1.71-23.21-3.74-34.81-5.63
			c10.08-10.63,17.16-23.04,21.78-36.89c4.19,0.45,8.38,0.89,14.27,1.52c-4.19-6.73-7.54-12.1-10.88-17.46
			c1.52-16.75,2.04-33.49-1.44-50.08c-2.42-11.51-5.41-22.91-7.74-34.44C1348.89,646.35,1351.87,631.78,1356.71,617.47z"/>
		<path class="st9" d="M968.84,1583.16c15.77-0.05,31.54-0.09,47.3-0.17c2.15-0.01,4.3-0.2,6.45-0.3
			c-1.25,6.76-2.49,13.52-3.74,20.28c-2.42,10.1-4.84,20.19-7.26,30.29c-1.46-1.03-2.86-2.83-4.39-2.96
			c-7.45-0.62-14.94-0.75-22.41-1.15c-13.26-0.7-26.52-1.46-39.79-2.2c9.75-5.51,15.66-13.66,17.17-24.86
			C964.4,1595.78,966.62,1589.47,968.84,1583.16z"/>
		<path class="st8" d="M1316.83,1583.22c15.11-0.06,30.22-0.13,45.33-0.19c1.3,5.66,2.6,11.31,3.9,16.97
			c1.34,6.99,2.68,13.99,4.02,20.98c0.37,3.02,0.74,6.04,1.1,9.06c-20.73-1.04-41.45-2.07-62.18-3.11
			c11.94-9.76,12.25-22.34,8.86-35.91C1317.24,1588.5,1317.16,1585.83,1316.83,1583.22z"/>
		<path class="st0" d="M962.19,1602.09c-1.51,11.2-7.43,19.35-17.17,24.86c-0.94-0.01-1.88-0.01-2.82-0.02
			c-3.82-8.27-7.65-16.53-11.47-24.8C941.21,1602.11,951.7,1602.1,962.19,1602.09z"/>
		<path class="st10" d="M1261.93,828.84c10.81-2.27,21.63-4.45,32.41-6.84c3.22-0.71,6.31-1.98,9.46-2.99
			c2.95,6.43,2.41,7.32-5.89,9.59C1285.92,828.67,1273.93,828.75,1261.93,828.84z"/>
		<path class="st0" d="M221,616c0,16.48,0.13,32.96-0.03,49.44c-0.2,20.6-0.63,41.2-0.97,61.81c-0.32,19.44-0.67,38.87-0.99,58.31
			c-0.34,20.6-0.66,41.2-1.01,61.8c-0.32,19.1-0.62,38.21-1.01,57.31c-0.26,12.78-0.66,25.56-0.99,38.33
			c-1,1.63-2.54,3.16-2.86,4.91c-0.5,2.67-0.15,5.49-0.16,8.25c-4.93,0.23-9.87,0.46-15.06,0.71c0,17.03,0,33.74,0,50.84
			c103.27,0,206.21,0,310.11,0c-4.1,8.52-7.84,16.38-11.64,24.21c-52.1,107.47-104.23,214.94-156.32,322.42
			c-36.13,74.54-72.23,149.1-108.35,223.64c-0.36,0.74-0.85,1.41-1.29,2.11c-2.12-0.82-4.44-1.33-6.35-2.5
			c-28.99-17.81-54.23-40.2-76.98-65.26c-20.34-22.4-37.79-47.04-52.8-73.44c-18.49-32.52-33.32-66.58-44.82-102.1
			c-10.28-31.76-18.39-64.09-23.5-97.1c-3.16-20.43-6.19-40.89-8.79-61.39c-1.29-10.18-1.64-20.48-2.15-30.74
			c-0.8-16.25-1.68-32.5-1.97-48.76c-0.33-18.91-0.44-37.85,0.07-56.76c0.37-13.9,1.4-27.82,3.01-41.63
			c2.22-19.05,4.81-38.09,8.06-57c5.79-33.75,14.42-66.83,25.89-99.11c13.23-37.24,30.01-72.77,51.34-106.15
			c20.26-31.71,44.06-60.48,71.92-85.64c14.23-12.86,30.17-23.83,45.36-35.62C219.34,616.4,220.23,616.28,221,616z"/>
		<path class="st0" d="M887.16,1600.76c5.39,11.38,10.78,22.76,16.17,34.15c-10.79,3.7-21.8,6.88-32.25,11.35
			c-4.17,1.78-7.12,6.41-10.62,9.75c-17.49-0.01-34.99,0.11-52.48-0.06c-13.62-0.13-27.25-0.54-40.87-0.99
			c-16.75-0.56-33.5-1.21-50.24-1.99c-19.38-0.9-38.75-1.9-58.12-3.01c-15.22-0.87-30.43-1.83-45.62-3
			c-19.47-1.51-38.92-3.32-58.38-4.9c-13.53-1.1-27.1-1.83-40.62-3.11c-18.61-1.76-37.17-3.93-55.76-5.85
			c-13.83-1.43-27.68-2.58-41.49-4.15c-15.28-1.74-30.51-3.83-45.77-5.74c-13.95-1.75-27.91-3.46-41.85-5.22
			c-3.2-0.41-6.39-0.98-9.62-2.4c4.43-0.52,8.85-1.14,13.29-1.54c4.95-0.44,9.91-0.78,14.87-1.01c15.41-0.72,30.83-1.36,46.24-2.03
			c23.04-1,46.08-2.06,69.12-2.99c18.58-0.75,37.16-1.45,55.74-1.98c27.24-0.77,54.49-1.37,81.73-2.03
			c14.79-0.35,29.58-0.8,44.37-0.97c36.95-0.42,73.9-0.69,110.85-1.03c34.45-0.32,68.9-0.73,103.35-0.93
			c7.62-0.05,15.25,0.69,22.87,0.87C883.75,1601.97,885.46,1601.18,887.16,1600.76z"/>
		<path class="st0" d="M1011.6,1633.25c2.42-10.1,4.84-20.19,7.26-30.29c4.95,0.35,9.9,0.89,14.86,1
			c32.06,0.73,64.12,1.27,96.18,2.09c16.58,0.42,33.15,1.26,49.72,1.96c14.91,0.63,29.82,1.29,44.72,2.02
			c12.25,0.6,24.49,1.21,36.73,2c15.2,0.98,30.38,2.16,45.8,3.92c-5.73,1.34-11.42,2.88-17.2,3.99c-22.41,4.32-44.8,8.79-67.3,12.66
			c-15.14,2.6-30.43,4.38-45.67,6.38c-15.73,2.06-31.46,4.15-47.23,5.84c-12.67,1.36-25.39,2.15-38.09,3.17
			c-16.33,1.31-32.65,2.69-48.98,3.87c-8.1,0.58-16.23,0.77-24.35,1.14C1015.9,1646.42,1013.75,1639.83,1011.6,1633.25z"/>
		<path class="st5" d="M1011.6,1633.25c2.15,6.58,4.29,13.17,6.44,19.75c0.19,1.28,0.39,2.55,0.63,4.16c-1.82,0-3.46,0-5.11,0
			c-49.19,0-98.38,0.01-147.57-0.05c-1.85,0-3.69-0.72-5.53-1.1c3.5-3.33,6.45-7.97,10.62-9.75c10.46-4.47,21.46-7.65,32.25-11.35
			c12.95-2.66,25.91-5.33,38.86-7.99c0.94,0.01,1.88,0.01,2.82,0.02c13.26,0.74,26.52,1.5,39.79,2.2
			c7.47,0.39,14.96,0.52,22.41,1.15C1008.75,1630.42,1010.14,1632.22,1011.6,1633.25z"/>
		<path class="st5" d="M1309.02,1626.94c20.72,1.04,41.45,2.07,62.18,3.11c5,8.76,10,17.51,15.32,26.84c-53.34,0-105.81,0-158.54,0
			c0.47-5.05,4.01-7.67,7.67-9.21c10.07-4.23,20.18-8.64,30.67-11.49C1280.36,1632.37,1294.77,1629.96,1309.02,1626.94z"/>
		<path class="st1" d="M253.55,1620.88c3.52-7.28,7.05-14.57,10.57-21.85c15.14,5.69,30.29,11.39,44.87,16.87
			C291.08,1617.51,272.32,1619.19,253.55,1620.88z"/>
		<path class="st9" d="M1023.24,1579.13c0.18-0.43,0.36-0.85,0.54-1.28C1023.6,1578.28,1023.42,1578.71,1023.24,1579.13z"/>
		<path class="st11" d="M1190.94,444.82c5.95,7.3,14.05,11.49,22.46,15.06c2.96,1.26,4.44,2.86,3.71,5.85
			c-1.67,6.84-2.8,13.95-5.56,20.35c-6.41,14.85-13.66,29.34-20.57,43.98c-13.44-4.85-18.99-14.23-17.84-30.25
			C1174.56,480.04,1182.31,462.29,1190.94,444.82z"/>
		<path class="st0" d="M1167.06,564.44c-2.14-0.14-4.29-0.41-6.43-0.41c-44.54-0.02-89.09-0.07-133.63,0.07
			c-4.25,0.01-7.05-1.09-9.52-4.72c-4.53-6.67-9.63-12.94-14.5-19.38c8.91,3.64,17.67,7.71,26.75,10.85
			c51.87,17.92,103.21,16.22,153.93-4.67c1.22-0.5,2.51-0.83,3.77-1.23c-0.57,6.23-1.13,12.45-1.77,19.5
			C1179.52,564.44,1173.29,564.44,1167.06,564.44z"/>
		<path class="st0" d="M668.24,1148.83c-62.24,0-123.83,0-186.08,0c5.22-10.83,10.23-21.27,15.28-31.7
			c16.88-34.87,33.82-69.72,50.6-104.65c1.64-3.42,3.45-4.85,7.47-4.76c13.49,0.32,26.99,0.19,40.48,0.07
			c2.81-0.03,4.5,0.67,5.81,3.4c21.58,44.79,43.28,89.53,64.94,134.29C667.17,1146.35,667.54,1147.25,668.24,1148.83z"/>
		<path class="st0" d="M212.97,956.16c0.01-2.76-0.34-5.58,0.16-8.25c0.33-1.75,1.87-3.28,2.86-4.91c0.02,4.39,0.03,8.78,0.05,13.17
			C215.02,956.17,213.99,956.17,212.97,956.16z"/>
		<path class="st5" d="M434.32,871.08c-17.14,5.86-34.87,7.16-52.71,5.62c-31.83-2.75-59.99-14.43-83.33-36.63
			c-24.19-23-37.42-51.08-37.59-84.66c-0.18-35.77,14.45-65.03,40.62-88.88c1.09-1,2.38-1.78,3.58-2.66c3,3.1,5.99,6.2,9,9.28
			c10.08,10.35,20.15,20.72,30.25,31.05c16.6,16.98,33.23,33.93,49.84,50.89c0.22,0.96,0.34,1.95,0.67,2.87
			c9.28,26.1,18.63,52.17,27.85,78.29C426.58,847.83,430.39,859.48,434.32,871.08z"/>
		<path class="st12" d="M393.99,755.1c-16.62-16.96-33.24-33.92-49.84-50.89c-10.1-10.33-20.17-20.69-30.25-31.05
			c-3.01-3.09-6-6.19-9-9.28c15.68-13.81,33.98-22.78,54.18-27.25c52.53-11.63,98.74,0.26,136.41,39.55
			c20.87,21.77,30.97,48.46,31.42,78.7c-2.13,0.19-4.26,0.55-6.39,0.55C478.34,755.34,436.16,755.22,393.99,755.1z"/>
		<path class="st10" d="M393.99,755.1c42.17,0.11,84.35,0.24,126.52,0.32c2.13,0,4.26-0.36,6.39-0.55
			c-0.49,28.22-9.78,53.02-27.89,74.82c-10.49,12.63-23.21,22.4-37.15,30.39c-8.49,4.87-18.32,7.4-27.54,10.99
			c-3.93-11.61-7.74-23.25-11.82-34.81c-9.22-26.12-18.57-52.19-27.85-78.29C394.33,757.06,394.21,756.06,393.99,755.1z"/>
		<path class="st10" d="M306.76,893.28c1.16,3.33,0.41,4.51-2.7,4.49c-13.8-0.1-27.61-0.04-41.62-0.04
			c-1.11-2.53-1.63-4.47,2.26-4.46C278.65,893.3,292.61,893.28,306.76,893.28z"/>
		<path class="st10" d="M307.67,915.32c-1.15,0.84-2.29,2.39-3.46,2.4c-13.14,0.17-26.29,0.17-39.43,0
			c-1.17-0.02-2.32-1.57-3.47-2.41c0.27-0.43,0.54-0.86,0.82-1.29c14.77,0,29.53,0,44.3,0
			C306.84,914.46,307.26,914.89,307.67,915.32z"/>
		<path class="st10" d="M306.47,937.88c-14.61,0-29.22,0-44.08,0c-0.9-2.32-1.2-3.93,2.33-3.91c13.14,0.09,26.28-0.03,39.41,0.14
			c1.18,0.01,2.34,1.48,3.51,2.27C307.25,936.88,306.86,937.38,306.47,937.88z"/>
		<path class="st12" d="M255.31,901.44c-3.95,0-7.67,0-11.71,0c0-3.99,0-7.71,0-11.8c3.85,0,7.57,0,11.71,0
			C255.31,893.36,255.31,897.08,255.31,901.44z"/>
		<path class="st5" d="M255.34,910.11c0,3.89,0,7.45,0,11.38c-3.86,0-7.55,0-11.6,0c0-3.73,0-7.42,0-11.38
			C247.54,910.11,251.12,910.11,255.34,910.11z"/>
		<path class="st0" d="M1361.13,745.97c3.34,5.37,6.69,10.73,10.88,17.46c-5.88-0.63-10.08-1.07-14.27-1.52
			C1358.87,756.59,1360,751.28,1361.13,745.97z"/>
		<path class="st5" d="M828.84,931.17c14.96,0.19,29.93,0.38,45.92,0.59c-3.4,3.08-198.18,4.33-215.92,2.26c0-1.54,0-3.15,0-4.77
			c0-48.33,0-96.66,0-144.98c0-1-0.19-2.06,0.08-2.98c0.22-0.77,0.98-1.39,1.5-2.07c0.57,0.63,1.49,1.19,1.65,1.91
			c0.28,1.27,0.1,2.65,0.1,3.98c0,46.83,0,93.66,0,140.48c0,1.79,0,3.58,0,5.65c8.05,0,15.64,0,23.77,0c0-40.82,0-81.54,0-122.49
			c10.95,0,21.37,0,32.29,0c0,40.75,0,81.33,0,122.34c7.69,0,14.91,0,22.63,0c0-35.8,0-71.68,0-107.83c11.06,0,21.63,0,32.76,0
			c0,36.28,0,72.36,0,109.13c7.83-0.44,15.07-0.84,22.31-1.25C806.9,931.16,817.87,931.17,828.84,931.17z"/>
		<path class="st2" d="M828.84,931.17c-10.97-0.01-21.94-0.01-32.92-0.02c0.06-19.97,0.15-39.93,0.18-59.9
			c0.03-24.13,0.01-48.26,0.01-72.39c0-1.79,0-3.58,0-5.66c11.12,0,21.65,0,32.73,0C828.84,839.4,828.84,885.29,828.84,931.17z"/>
		<path class="st13" d="M1460.04,419.83c12.58,2.28,21.89,8.4,28.49,18.46c0.79,1.2,0.73,3.9-0.12,4.97
			c-0.86,1.09-3.31,1.67-4.84,1.36c-10.85-2.18-19.58-7.89-26-16.88c-0.99-1.39-1.29-3.8-0.86-5.48
			C1456.99,421.12,1459.11,420.46,1460.04,419.83z"/>
		<path class="st13" d="M1506.73,457.72c5.92,3.1,12.07,5.85,17.67,9.45c3.23,2.07,5.88,5.3,8.17,8.46
			c1.06,1.45,1.23,4.16,0.66,5.93c-0.29,0.9-3.15,1.5-4.77,1.36c-7.96-0.7-14.24-5.03-20.04-10.06c-2.36-2.04-4.66-4.35-6.33-6.95
			c-2.71-4.24-0.98-6.96,3.99-6.94C1506.3,458.55,1506.52,458.14,1506.73,457.72z"/>
		<path class="st14" d="M1415.7,553.92c-0.57,0.6-1.13,1.2-1.7,1.79c-0.24-0.22-0.47-0.45-0.71-0.67c0.56-0.6,1.13-1.2,1.69-1.8
			C1415.22,553.47,1415.46,553.7,1415.7,553.92z"/>
	</g>
</g>
</svg>
