<?xml version="1.0" encoding="utf-8"?>
<!-- Generator: Adobe Illustrator 23.0.5, SVG Export Plug-In . SVG Version: 6.00 Build 0)  -->
<svg version="1.1" id="Layer_1" xmlns="http://www.w3.org/2000/svg" xmlns:xlink="http://www.w3.org/1999/xlink" x="0px" y="0px"
	 viewBox="0 0 1454 1091" style="enable-background:new 0 0 1454 1091;" xml:space="preserve">
<style type="text/css">
	.st0{fill:#62987C;}
	.st1{fill:#00594C;}
	.st2{fill:#DEA912;}
	.st3{fill:#5B7671;}
	.st4{fill:#D2D2D2;}
	.st5{fill:#F6F6F6;}
	.st6{fill:#B87A59;}
	.st7{fill:#2B3E3B;}
	.st8{fill:#B4795A;}
	.st9{fill:#3F5768;}
	.st10{fill:#FDBD55;}
	.st11{fill:#E9A440;}
	.st12{fill:#DCE0E4;}
	.st13{fill:#D4D3D2;}
</style>
<g>
	<g>
		<path class="st0" d="M283,1001.9c7.3,2,14.4,4.4,21.8,6c20.7,4.4,41.3,8.8,62.1,12.5c20.6,3.7,41.4,6.5,62.1,9.7
			c0.4-2.8,0.8-5.6,1-8.4c3.5-38.7,6.9-77.3,10.4-116c4.2-46.8,8.4-93.6,12.7-140.4c1.5-16.4,3.1-32.8,4.7-49.2
			c0.3-5,0.5-10,0.8-14.9c-18.1,0-36.2,0-54.3,0c0-8.5,0-16.6,0-24.9c2.4,0,4.3,0,6.3,0c28.1-0.1,56.3-0.1,84.4-0.2
			c-0.8-0.4-1.6-0.9-2.5-1c-10.5-2.1-17.6-8.4-19.8-18.7c-1.7-8-1.6-16.4-2.3-24.8c2.9-0.3,4.3-0.4,5.8-0.5c-0.2-1.5-0.4-3-0.5-4.4
			c-0.8-8.8-1.9-17.5-2.3-26.3c-0.1-2.2,1.6-5.6,3.4-6.5c1.8-0.9,5.5-0.1,7.2,1.3c3.9,3.1,7.2,6.9,10.4,10.7
			c2.5,2.9,4.5,6.2,7.3,10.2c0.3-2.4,0.4-3.7,0.5-5c-1.6-36.1-2.3-72.1,1.9-108.1c2.1-17.7,9.7-31.5,27.3-37.6
			c6.7-2.3,13.9-3.5,20.9-4.1c18.3-1.5,36.5,1.4,54.6,4.1c1.8-3.5,3.5-6.9,5.3-10.4c-0.7-10.4-1.5-20.8-2.2-31.3
			c-4.8-6.1-8.2-12.8-9.3-20.5c-6.9-7-7.3-10.8-2-17.7c-0.1-3.8-0.3-7.6-0.4-11.5c-0.4-17,7.8-28,23.4-33.9c2.5-0.9,5-2,7.5-2.7
			c17.1-4.6,33.4-3.8,47.5,8.3c3,2.5,4.8,6.4,7.2,9.7c0.2,4.9,0.4,9.8,0.7,14.7c3.9,0.8,8.3,0.8,9.7,5.7c0.2,0,0.4-0.2,0.5-0.4
			c0.4,0.5,0.8,1,1.2,1.4c0.1,0.4,0.2,0.9,0.3,1.3L696,378c5.2,6.7,5.2,15,0,19.1l0.1-0.1c-1.2,6-6.6,6.4-10.9,8.2
			c0,6.5,0.1,12.9-0.1,19.4c-0.3,9.7-5.1,16.6-13.8,20.7c-2.5,1.2-5.3,1.9-7.9,2.8c-0.1,1.6-0.3,3.3-0.4,4.9
			c-0.1,1.9-0.2,3.9-0.2,5.8c1.1,6,2.2,12,3.4,18c10.7,2.1,18.5,8.9,24.9,17.1c11.4,14.5,22.1,29.4,33.4,43.9
			c10,12.8,20.3,25.3,30.8,37.7c5.8,6.8,12.1,13.3,18.5,19.5c5.8,5.6,12.2,9.7,20.8,10.2c13.9,0.7,27.6,2.7,41.5,3.8
			c19.3,1.5,38.6,2.7,58,4c7.4-23.4,14.8-46.8,22-70.3c1.8-5.7,2.7-6.5,8.4-5.5c2.3,0.4,4.6,0.7,6.9,0.7c36.5,0,73,0,109.5,0
			c3.2,0,6.5-0.4,10.5-0.7c-0.6,2.5-1,4.6-1.6,6.5c-10.7,31.5-21.5,62.9-32.1,94.4c-4.3,12.6-8.3,25.2-12.5,37.8c2,0.1,4,0.2,6,0.2
			c49.6,0,99.3,0,148.9,0c1.9,0,3.8,0,5.8,0c0,8.7,0,16.6,0,24.9c-19.9,0-39.5,0-59.1,0c0.8,6,1.5,11.9,2.3,17.9
			c2.2,13.1,4.4,26.3,6.5,39.4c10.9,68.5,21.8,137,32.7,205.5c2.8,17.7,5.8,35.4,8.8,53.1c11.3-1.5,22.6-2.8,33.9-4.5
			c17-2.4,33.9-5,50.9-7.6c17.1-2.7,34.2-5.5,51.3-8.5c4.4-0.8,8.8-2.1,13.2-3.2c-9.8-2.3-19.6-4.6-29.4-6.9
			c-6.1,0.1-10.5-3.2-14.6-7.3c-0.4-0.4-0.8-0.8-1.1-1.2l0.1,0.1c-1.5-0.5-3.1-0.9-4.5-1.7c-42.8-25.3-59.4-66.2-50.9-113
			c4.2-23.2,10.3-46.1,13.6-69.4c3-20.8,2.3-42-4.5-62.2c-3.1-9.2-7.7-17.8-11.8-26.9c33.6,16.7,62.5,39.5,85.1,70
			c3.6-4.1,7-8.4,10.8-12.3c16.3-16.6,32.7-33,49-49.5c-2.8-6.1-5.9-12.1-8.5-18.3c-9.2-21.8-19.7-43-33-62.6
			c-15.1-22.4-30.9-44.4-47.2-65.9c-9.9-13.1-21.1-25.2-32.1-37.4c-19-21.1-38.4-41.9-57.7-62.8c-11.4-12.4-22.9-24.5-34-37.1
			c-18.3-20.7-34.6-43-48-67.1c-15.4-27.6-30.1-55.6-44.8-83.5c-17.5-33.1-34-66.7-55.8-97.2c-11.1-15.5-23.4-30.1-35.9-44.5
			c-21.5-24.8-46.9-45-74.4-62.8c-23.8-15.4-49.2-27.7-76-37.1c-23.9-8.4-48.3-14.8-73.4-17.3c-21.8-2.1-43.9-3.1-65.7-2
			c-39.5,2-77.7,11.5-114.1,27.1c-28.5,12.2-56.1,26.7-78.8,48.1c-13.8,13-25.4,28.4-37,43.5c-13.3,17.2-25.1,35.5-38.3,52.8
			C379.3,207.4,362,223,345,238.9c-14.1,13.1-27.2,27.4-40.7,41.2c-5.6,5.7-11.2,11.4-16.4,17.5c-18.6,21.7-37.3,43.2-55.3,65.3
			c-23.7,29-44.5,60.1-63.1,92.5c-25.2,43.8-45.9,89.6-58.7,138.7c-5.3,20.4-9.8,40.9-11.8,61.9c-0.1,1.5-0.7,2.9-1,4.4
			c42.1,22.8,77.4,53.2,104.4,93c10-21.8,20.1-43.5,29.9-65.4c7.5-16.9,13.1-34.5,15.4-53c0.5-4.5,0.7-8.9,1.1-14.3
			c13.5,15,24.2,30.7,33.5,47.3c24,42.7,37.4,88.4,38.7,137.5c0.8,29.8-3.6,59-11.5,87.8c2.6-1.5,5.2-2.9,7.7-4.6
			c23.3-16.2,38.6-38.7,50-64.1c1.5-3.2,2.8-6.5,4.8-11c2.5,21.2,3.6,40.9,2.2,60.7c-1.5,20.7-4.7,41-12.2,60.4
			c-10.3,26.9-27,48.1-54.4,59.2C299.5,996.9,291.2,999.2,283,1001.9z"/>
		<path class="st0" d="M894.5,1044c18.3-1.3,36.7-2.6,55-3.9c9.4-0.7,18.8-1.3,28.3-2.1c12.4-1.1,24.7-2.5,37-3.7
			c10.9-1.1,21.8-2.1,32.6-3.3c13-1.4,25.9-3.1,38.9-4.6c9.4-1.1,18.7-2.2,28.1-3.4c2.1-0.3,4.3-0.6,6.4-1c-0.2-1-0.3-2-0.6-2.9
			c-19.2-70.7-38.5-141.3-57.7-212c-8.2-30-16.2-60.1-24.3-90.1c-1.6-5.3-3.1-10.6-4.7-15.9c-39.2,0-78.3,0-117.5,0
			c2,9.9,4.6,19.8,5.9,29.8c4.1,31.8,3.6,63.8,2.8,95.8c-1.6,60.2-6.3,120.1-12,180c-1,10.4-2.2,20.8-3.3,31.4
			c-5-0.4-9.6-0.7-14.2-1.1C894.9,1039.8,894.7,1041.9,894.5,1044z"/>
		<path class="st1" d="M894.5,1044c0.2-2.1,0.4-4.3,0.7-7.1c4.7,0.4,9.2,0.7,14.2,1.1c1.1-10.6,2.3-21,3.3-31.4
			c5.6-59.9,10.4-119.8,12-180c0.8-32,1.3-64-2.8-95.8c-1.3-10-3.9-19.8-5.9-29.8c-55.1,0-110.2-0.1-165.4,0c-1.2,0-2.5,0.6-3.7,0.9
			c1.9,0.7,3.8,1.3,5.6,2.1c6.5,2.6,13,5.2,19.4,8c1.1,0.5,1.6,2.2,2.5,3.3c-1.2,0.6-2.5,1.7-3.7,1.7c-1.8,0.1-3.6-0.5-5.3-0.9
			c-5.2-1.2-10.3-2.6-15.5-3.7c-1.6-0.3-3.3,0-4.9,0c-0.1,0.5-0.1,0.9-0.2,1.4c1.5,0.9,3,2,4.6,2.6c7.2,2.7,14.5,5,21.6,7.8
			c1.8,0.7,3.2,2.3,4.8,3.5c-2,0.8-4,1.7-6,2.2c-0.9,0.2-2-0.2-2.9-0.5c-6.7-2-13.4-4-20.1-5.9c-1.8-0.5-3.6-1-5.3-1.5
			c-0.2,0.5-0.4,1-0.6,1.5c1.4,0.8,2.8,1.6,4.3,2.2c6.1,2.5,12.4,4.8,18.4,7.6c1.8,0.8,2.9,2.9,4.3,4.5c-0.4,0.7-0.8,1.4-1.3,2.1
			c-9.6-3.1-19.1-6.3-28.7-9.4c-0.2,0.5-0.4,1-0.6,1.5c4.8,4.9,13.2,5,16.3,12.4c-15.6-2.5-27.9-11.7-40.9-19.5
			c-1,2.9-2.7,2-4.5,0.8c-8.5-5.2-17.1-10.4-25.7-15.5c-1.7-1-3.6-1.5-5.4-2.3c-4.6,0-9.3,0.6-13.9-0.1c-13.9-1.9-27.7-4.3-41.6-6.5
			c-11,0-22,0-33,0c-3.5,13.6-6.3,27.3-4.5,41.3c3.5,27.1,14.6,49.5,40.9,61.6c2.1,0.2,4.2,0.5,6.3,0.6c4.7,0.4,9.4,0.7,14.2,1
			c2.1-0.8,4.2-1.9,6.4-2.3c56.3-10.5,111.9-25,168.8-32.3c2.7-0.1,5.3-0.2,8-0.2c6.3,0,8.8,2,9.4,8.3c1.2,14,2.8,28,2.9,42
			c0.2,30.4-0.5,60.8-0.9,91.2c0,0.3,0,0.7-0.1,1c-1.5,38.8-2.9,77.6-4.4,116.9c3.7,0.4,7.4,0.9,11.5,1.3c-0.7,5.4-1.3,10.3-2,15.3
			c-0.6,7.3-1.2,14.6-1.8,21.8c11.2,4.4,77.3,10.4,84.4,7.2c-5.1-4.8-11.3-6.5-17.2-8.8c-5.9-2.3-11.9-4.3-18.3-6.5
			C893,1055.1,893.7,1049.6,894.5,1044z"/>
		<path class="st2" d="M309.4,893.1c7.9-28.7,12.3-57.9,11.5-87.8c-1.3-49.1-14.7-94.8-38.7-137.5c-9.3-16.6-19.9-32.3-33.5-47.3
			c-0.4,5.4-0.6,9.9-1.1,14.3c-2.3,18.5-7.8,36.1-15.4,53c-9.7,21.9-19.9,43.6-29.9,65.4c-4.6,11.6-9.1,23.2-13.8,34.8
			c-14.1,35.1-19.7,71-11.6,108.5c8.1,37.9,20.9,73.6,48.1,102.4c2.7,1.9,5.4,4,8.2,5.7c7.8,4.7,15.4,4.7,22.4-1.7
			c2.2-3.2,4.4-6.3,6.5-9.5C282.6,962.2,298.6,928.9,309.4,893.1z"/>
		<path class="st3" d="M1347.9,713c-16.3,16.5-32.7,33-49,49.5c-3.8,3.9-7.3,8.2-10.8,12.3c-7.7,11.6-16.7,22.6-22.9,34.9
			c-15.9,31.8-20.9,66-20.1,101.3c0.6,23.4,3.2,46.5,16,67l-0.1-0.1c0.4,0.4,0.8,0.8,1.1,1.2c4.1,4,8.5,7.3,14.6,7.3
			c3.7-1.5,7.8-2.4,10.9-4.7c14.4-10.7,29-21.3,42.5-33c18-15.6,34.4-32.8,48.3-52.3c27-36.1,44.6-76.3,52.3-120.7
			c8.3-47.9,5.2-95.2-9.4-141.6c-0.6-2-1.4-4-2.4-6.8C1403,663.2,1375.1,687.8,1347.9,713z"/>
		<path class="st3" d="M225.1,999c-27.3-28.9-40-64.5-48.1-102.4c-8-37.5-2.5-73.4,11.6-108.5c4.6-11.6,9.2-23.2,13.8-34.8
			c-27-39.8-62.3-70.2-104.4-93c-20.5-10.1-41.4-19-63.6-24.8c-8.5-2.2-17.1-4-26.2-5.1c1.9,1.5,3.8,2.9,5.6,4.4
			c15.8,13,27.4,29.5,37.3,47.2c20.2,36.1,32.2,75.1,40.9,115.3c5,23.1,8.4,46.6,14.3,69.4c9.4,37,26.3,70,54.6,96.5
			c17.7,16.5,38.2,28.3,61.4,35.2C223.1,998.7,224.1,998.8,225.1,999z"/>
		<path class="st1" d="M1038.2,717c8.1,30,16.2,60.1,24.3,90.1c19.2,70.7,38.5,141.3,57.7,212c0.3,1,0.4,1.9,0.6,2.9
			c4.5,16.4,9.2,32.7,13.5,49.1c1.1,4.2,2.6,5.9,7.3,5.6c7.9-0.6,15.9-0.2,24.2-0.2c-3.1-20.4-6-40-9-59.5
			c-2.9-17.7-5.9-35.4-8.8-53.1c-10.9-68.5-21.8-137-32.7-205.5c-2.1-13.1-4.3-26.3-6.5-39.4c-6.8-0.3-13.6-0.8-20.4-1
			C1071.7,717.6,1054.9,717.3,1038.2,717z"/>
		<path class="st1" d="M457.8,716c-1.6,16.4-3.2,32.8-4.7,49.2c-4.3,46.8-8.5,93.6-12.7,140.4c-3.5,38.7-6.9,77.3-10.4,116
			c-0.3,2.8-0.7,5.6-1,8.4c-1.4,16.6-2.8,33.1-4.1,49.7c-0.1,1.3,0,2.6,0,4c9.1,0,18,0,27.5,0c3.4-16.2,6.9-32.5,10.3-48.9
			c0.2-1.5,0.3-3,0.6-4.4c10-49.4,20-98.9,30-148.3c7.3-36,14.7-72.1,22.1-108.1c0.1-0.7,0.1-1.3,0.2-2c3.5-18,7.1-36,10.6-54
			C503.3,717.4,480.5,716.7,457.8,716z"/>
		<path class="st4" d="M618,1048c0.2,6.5,0.3,12.9,0.8,19.4c0.2,2.8,5.6,5.5,9.3,4.3c1.4-0.5,2.6-3.3,2.8-5.2
			c0.4-5.8,0.2-11.7,0.3-17.5c0.6-13.8,1.4-27.5,1.9-41.3c0.5-16.8,0.7-33.6,1.1-50.4c0.1-5,0.9-10.1,1.3-15
			c15.8,0.9,31,1.7,46.2,2.7c8.6,0.5,17.2,1.1,25.8,2.1c1.6,0.2,3.8,2,4.3,3.5c3,9.1,5.7,18.4,8.4,27.6c1.5,5.2,2.7,10.6,4,15.8
			c1.3,3.5,2.5,7.1,3.8,10.6c2.7,8.9,5.5,17.7,8.1,26.6c1.8,6.2,3.4,12.4,5.1,18.7c1.9,5.6,3.9,11.1,5.7,16.7
			c2.6,8.2,2.6,8.2,11.9,6.8c-1.6-7.8-3.1-15.7-4.7-23.5c-2.3-10-4.6-20-7-29.9c-4.7-21-9.5-42.1-14.2-63.1
			c-0.2-0.3-0.5-0.5-0.6-0.8c-5-22.4-10.1-44.8-15.1-67.2c-4.4-19.7-8.8-39.4-13.2-59c-9.3-0.2-18.7-0.5-28-0.7
			c0.3,1.8,0.3,3.7,0.8,5.4c6.8,22.7,13.7,45.4,20.6,68.1c2.5,8.2,4.9,16.4,7.6,25.5c-3.6-0.5-6.5-1-9.4-1.2
			c-18.4-1.1-36.7-2.2-55.1-3c-3.4-0.2-4.7-1-4.5-4.6c0.5-10.1,0.7-20.2,1.1-30.4c0.7-20.6,1.4-41.2,2.1-61.7
			c-8.4-0.3-16.8-0.7-25.2-1c0.5,32,0.9,64,1.4,96.8c-23.4-1.3-46.7-2.5-70.1-3.8c0-1.6-0.1-2.2,0-2.6c5.5-18.6,11.1-37.2,16.6-55.8
			c3.5-11.9,6.8-23.9,10.2-35.8c-8.7,0-17.4,0.1-26.1,0.1c0,1.3,0.1,2.7-0.2,4c-8.5,37.9-17.1,75.8-25.6,113.7
			c-4.5,19.8-8.8,39.7-13.3,59.6c-2.8,12.2-5.9,24.4-8.8,36.5c-1.8,8.9-3.6,17.8-5.4,26.7c-0.5,2.2-0.8,4.5-1.3,6.7
			c7.9,1.4,7.8,1.3,9.9-5.6c2.8-9,5.8-17.9,8.6-26.8c0.1-1,0-2,0.3-3c9.4-32.3,18.8-64.7,28.5-96.9c0.4-1.3,2.7-2.9,4.1-2.9
			c5.8,0,11.6,0.6,17.4,0.8c14.4,0.7,28.8,1.3,43.3,2.1c4.1,0.2,8.1,1,12.1,1.5c0.5,10.6,1.2,20.8,1.4,31.1
			C617.4,997.8,617.6,1022.9,618,1048z"/>
		<path class="st0" d="M618,1048c-0.3-25.1-0.6-50.3-1-75.4c-0.2-10.3-0.9-20.5-1.4-31.1c-4-0.5-8-1.2-12.1-1.5
			c-14.4-0.8-28.8-1.4-43.3-2.1c-5.8-0.3-11.6-0.9-17.4-0.8c-1.4,0-3.8,1.6-4.1,2.9c-9.6,32.3-19,64.6-28.5,96.9
			c-0.3,0.9-0.2,2-0.3,3c5.1,0.7,10.1,1.6,15.2,2c20.4,1.5,40.8,2.8,61.3,4.1C596.9,1046.7,607.4,1047.3,618,1048z"/>
		<path class="st0" d="M724,994.1c-1.3-5.3-2.5-10.6-4-15.8c-2.7-9.3-5.4-18.5-8.4-27.6c-0.5-1.5-2.7-3.3-4.3-3.5
			c-8.5-1-17.2-1.5-25.8-2.1c-15.2-1-30.4-1.8-46.2-2.7c-0.5,5-1.2,10-1.3,15c-0.5,16.8-0.6,33.6-1.1,50.4
			c-0.4,13.8-1.2,27.5-1.9,41.3c36.7,0.3,73.3,0.6,110,0.9c-1.7-6.2-3.3-12.5-5.1-18.7c-2.6-8.9-5.4-17.7-8.1-26.6
			c-2.4-1.9-4.8-3.7-7.2-5.6C722,997.1,723,995.6,724,994.1z"/>
		<path class="st0" d="M498,1039c3-12.2,6-24.3,8.8-36.5c4.5-19.8,8.8-39.7,13.3-59.6c8.5-37.9,17.1-75.8,25.6-113.7
			c0.3-1.3,0.1-2.6,0.2-4c-2.7,0.1-5.3,0-7.9,0.4c-8.9,1.2-9.6,0.8-12.9-7.5c-0.5-1.2-0.9-2.5-1.2-3.8c-2.9-13.4-5.7-26.9-8.6-40.3
			c-7.4,36-14.7,72.1-22,108.1c-10,49.4-20,98.8-30,148.3c-0.3,1.5-0.4,3-0.6,4.4C474.4,1036.2,486.2,1037.6,498,1039z"/>
		<path class="st1" d="M309.4,893.1c-10.7,35.8-26.7,69.1-47.3,100.3c-2.1,3.2-4.3,6.3-6.5,9.5c7.7-0.1,15.3-0.2,22.9-0.4
			c1.5,0,2.9-0.4,4.4-0.6c8.2-2.7,16.5-5,24.5-8.3c27.4-11.1,44.1-32.3,54.4-59.2c7.5-19.4,10.7-39.7,12.2-60.4
			c1.4-19.8,0.3-39.5-2.2-60.7c-2,4.5-3.3,7.8-4.8,11c-11.5,25.4-26.7,47.9-50,64.1C314.6,890.2,311.9,891.6,309.4,893.1z"/>
		<path class="st1" d="M1378.3,896.4c-13.9,19.5-30.3,36.8-48.3,52.3c-13.6,11.7-28.1,22.3-42.5,33c-3.1,2.3-7.2,3.1-10.9,4.7
			c9.8,2.3,19.6,4.6,29.4,6.9c11.9-0.6,24.1,0.1,35.7-2.2c25.2-5,44-20.7,59.6-40.3c23.1-29,37.1-62.5,46.5-98.1
			c0.1-0.3-0.1-0.7-0.2-2.4c-3,3.3-5.2,6-7.8,8.5c-16.2,15.9-34.5,28.7-56,36.7C1382.2,896.2,1380.2,896.1,1378.3,896.4z"/>
		<path class="st0" d="M747,1020c2.3,10,4.6,20,7,29.9c19-0.3,37.9-0.5,56.8-1.1c11.4-0.3,22.8-1.3,34.2-1.9c0.6-4.9,1.3-9.8,2-15.3
			c-4.1-0.5-7.8-0.9-11.5-1.3c1.5-39.3,2.9-78.1,4.4-116.9c-1.1,1.4-2.3,2.8-3.2,4.3c-15.2,27.5-30.4,55.1-45.6,82.7
			c-0.8,1.5-1.8,3-2.7,4.6c-3-1.6-5.6-3-8.5-4.5c-4.2,5.5-8.3,10.7-12.5,16c7.8,10.2,17.3,19,22.1,31.3c-3.9-1-7.2-2.5-10.1-4.5
			C768.6,1035.7,757.8,1027.8,747,1020z"/>
		<path class="st5" d="M894,613.1c-19.3-1.3-38.7-2.5-58-4c-13.8-1.1-27.6-3.1-41.5-3.8c-8.7-0.5-15.1-4.6-20.8-10.2
			c-6.4-6.3-12.7-12.7-18.5-19.5c-10.5-12.4-20.8-24.9-30.8-37.7c-11.3-14.5-22.1-29.4-33.4-43.9c-6.4-8.2-14.2-14.9-24.9-17
			c-3.5,0.6-7,1.1-10.5,1.9c-3,0.7-4.9,0.2-4.5-3.4c-2.3-0.1-4.7-0.2-7-0.3c0.3,2.9-0.6,4.4-3.8,4.1c-10.8-1.1-21.6-2.1-32.4-3.4
			c-1.4-0.2-2.6-2.2-3.8-3.4c-21.6,5.3-31.2,15.2-34,36.9c-1.3,10.2-0.7,20.6-0.9,30.9c5.6,4.8,4.9,11.6,5.9,17.9
			c2.8,17.7,4.9,35.4,8.4,52.9c1.9,9.3,5,18.7,9.3,27.2c5.7,11.3,15.8,19,25.4,27.1c4.1,3.5,8,7.2,12,10.8c25.7,0,51.3,0.1,77,0.1
			c-10.1-7.2-20.2-14.5-30.4-21.6c-13.5-9.5-26.1-20.2-35.7-33.8c-13.3-19-19-40.7-20.9-63.6c-0.7-7.6-1.4-15.2-1.8-22.8
			c-0.3-4.9,0-9.8,0-14.6c0.5,0,0.9,0,1.4,0.1c0.2,0.5,0.4,0.9,0.5,1.4c2,16.6,3.5,33.3,6.2,49.7c3.8,22.9,12.5,44,29.7,60.2
			c11,10.5,23.5,19.4,35.3,29.1c6.3,5.2,12.6,10.5,18.9,15.8c5.3,0,10.6,0,16,0.1c-3.9-12.9-8.3-25.8-11.7-38.9
			c-3.3-12.6-5.6-25.4-8.3-38.1c-5.5-16.5-5.5-33.8-6.5-50.9c1.6,7.7,2.5,15.5,3.5,23.3c0.9,6.8,2,13.7,3,20.5c1,0.9,2.1,1.6,3,2.6
			c11.6,12.5,22.9,25.3,34.8,37.6c9.1,9.4,20,16.8,33.3,18.6c20.1,2.6,40.3,4.8,60.6,6.1c14.1,0.9,28.3,0.2,42.4,0.2
			C884.7,642.4,889.3,627.7,894,613.1z"/>
		<path class="st1" d="M726,676c-5.3,0-10.6,0-16-0.1c-1,0-2,0.1-3,0.1c-25.7,0-51.3-0.1-77-0.1c-5.7,0-11.4,0.1-17,0.1
			c-8.2,0-16.4,0-24.6,0c-27.5,0-55,0-82.5,0.1c-3.7,0-7.3,0-11-0.1c-28.1,0.1-56.3,0.1-84.4,0.2c-2,0-4,0-6.3,0
			c0,8.3,0,16.4,0,24.9c18.1,0,36.2,0,54.3,0c23.6,0,47.2,0,70.8,0c0.9,0.1,1.9,0.2,2.8,0.3c18.3,0,36.6-0.1,55-0.1
			c0.3-0.2,0.6-0.2,0.9,0.1c0.2,0,0.5-0.1,0.7-0.2c11,0,22,0,33,0c16.2,0,32.3,0.1,48.5,0.1c17,0,34,0,50.9-0.1
			c8.7,0.2,17.3,0.4,26,0.6c1.2-0.3,2.5-0.9,3.7-0.9c55.1,0,110.2,0,165.4,0c39.2,0,78.3,0,117.4,0c24.4,0,48.7,0,73.1,0
			c19.6,0,39.2,0,59.1,0c0-8.4,0-16.3,0-24.9c-2,0-3.9,0-5.8,0c-49.6,0-99.3,0-148.9,0c-2,0-4-0.1-6-0.2c-1.5,0.1-3,0.3-4.5,0.3
			c-68.7,0-137.4,0-206.1,0c-1.5,0-3-0.2-4.5-0.3C768.6,676,747.3,676,726,676z"/>
		<path class="st4" d="M797.3,669c13.6-0.3,27.2-0.6,40.7-1c10.4-0.3,20.8-0.7,31.3-1c8.4-0.2,10-1.6,10.8-9.9
			c4.6-14.7,9.3-29.3,13.9-44c7.4-23.4,14.8-46.8,22-70.3c1.8-5.7,2.7-6.5,8.4-5.5c2.3,0.4,4.6,0.7,6.9,0.7c36.5,0,73,0,109.5,0
			c3.2,0,6.5-0.4,10.5-0.7c-0.6,2.5-1,4.6-1.6,6.5c-10.7,31.5-21.5,62.9-32.1,94.4c-4.3,12.6-8.3,25.2-12.5,37.8
			c-1.5,0.1-3,0.3-4.5,0.3c-68.7,0-137.4,0-206.1,0c-1.5,0-3-0.2-4.5-0.3C790.1,669,790.1,669.1,797.3,669z M963.5,617
			c5.1,0,9.3-4.8,9.5-10.8c0.1-5-3.6-10-7.7-10.2c-4.5-0.2-9.3,5.8-9.3,11.8C956,613.5,958.9,617,963.5,617z"/>
		<path class="st2" d="M508,675c21.7-3.3,29.1-18.3,27.8-37.5c-0.1-2-0.6-3.9-1-6.3c-2.7-0.1-5.3-0.3-8-0.4
			c3.2-22.5,6.5-45,9.6-67.6c0.6-4.1,0.6-8.3,0.5-12.5c-0.3-7.5-3.7-11.4-10.9-13.6c2.6-12.2,5.2-24.3,7.8-36.5
			c-5.8,11.7-10.7,23.7-10.9,37.2c-5.7,3-7.8,8.2-9,14.1c-3.6,18.7-7.3,37.3-11,56c-0.2,1-0.6,1.9-0.9,2.8
			c-1.6-36.1-2.3-72.1,1.9-108.1c2.1-17.7,9.7-31.5,27.3-37.6c6.7-2.3,13.9-3.5,20.9-4.1c18.3-1.5,36.5,1.4,54.6,4.1
			c-1,2.4-1.9,4.7-2.9,7c-21.6,5.3-31.2,15.2-34,36.9c-1.3,10.2-0.7,20.6-0.9,30.9c1.4,13.2,2.4,26.4,4.2,39.6
			c2.7,19.7,5.8,39.3,8.8,59c0.1,0.5,0.3,0.9,0.5,1.4c1.9,12,3.9,24,5.8,36c-27.5,0-55,0-82.5,0.1C506.6,675.7,507.3,675.1,508,675z
			 M562.7,595.3c0.4-0.2,0.9-0.4,1.3-0.6c-0.9-1.9-1.4-4.8-2.9-5.3c-2.1-0.8-6.1-0.8-7,0.5c-1.8,2.6-3.4,6.7-2.6,9.4
			c1,3,4.4,5.6,7.4,7.3c1.3,0.7,4.7-1.2,6.2-2.8c1.2-1.4,1-4.1,1.6-6.8c-3.2,2.2-5,4-7.2,4.6c-0.8,0.2-3.1-2.6-3.4-4.2
			c-0.3-1.6,1.1-3.6,2-6C560.4,593.2,561.6,594.3,562.7,595.3z"/>
		<path class="st2" d="M1261,978c-12.8-20.6-15.4-43.6-16-67c-0.8-35.2,4.2-69.5,20.1-101.3c6.2-12.4,15.2-23.3,22.9-34.9
			c-22.6-30.5-51.5-53.3-85.1-70c4,9.1,8.7,17.7,11.8,26.9c6.8,20.3,7.5,41.4,4.5,62.2c-3.4,23.3-9.5,46.2-13.6,69.4
			c-8.4,46.8,8.2,87.7,50.9,113C1257.9,977.2,1259.5,977.5,1261,978z"/>
		<path class="st6" d="M644,475c2.3,0.1,4.7,0.2,7,0.3c0-1.5,0.1-3,0.1-4.4c0-11.1,0-11.1,11.5-12c0.1-1.9,0.2-3.9,0.2-5.8
			c-13,0-23.5-4.9-24.2-10.8c8.1,1.9,16.3,3.9,24.6,5.9c2.7-0.9,5.4-1.6,7.9-2.8c8.7-4.1,13.5-11,13.8-20.7
			c0.2-6.5,0.1-12.9,0.1-19.4c-4.4-0.4-9.3,0.9-12.1-4.2l0,0c-0.7-0.3-1.4-0.7-2-1l0,0c-0.3-0.7-0.7-1.4-1-2l0,0
			c-1.2-1.5-2.4-3.1-3.7-4.6c-0.8-0.9-2.1-2.5-2.8-2.4c-1.2,0.3-2.4,1.6-3.3,2.7c-1.2,1.6-2.1,3.5-3.2,5.2l0,0c-1.7,1.3-3.4,2.7-5,4
			l0,0c-3.9,5-12.4,5-18,0l0,0c-2.1-2.3-5.1-4.3-6.2-7c-1.4-3.6-3.4-4.3-6.6-3.9c-1.8,0.3-3.5,0.6-5.3,0.9c0,2.1,0,4.2,0,6.3
			c-7.8-0.3-7.8-0.3-7.9-6.5c-0.2-7.7-1.3-8.6-9.4-7.5c-5.3,6.9-4.9,10.7,2,17.7c2,0.9,5.4,1.3,5.7,2.6c1.7,5.8,2.5,11.9,3.6,17.9
			c0.7,10.4,1.5,20.8,2.2,31.3c7.4,1.4,14.9,2.9,22.3,4.3c8,1.5,8,1.5,8.7,9.5C643.4,470.7,643.7,472.8,644,475z"/>
		<path class="st7" d="M526.9,630.8c3.2-22.5,6.5-45,9.6-67.6c0.6-4.1,0.6-8.3,0.5-12.5c-0.3-7.5-3.7-11.4-10.9-13.6
			c-1,0.2-2.1,0.4-3.1,0.7c-5.7,3-7.8,8.2-9,14.1c-3.6,18.7-7.3,37.3-11,56c-0.2,1-0.6,1.9-0.9,2.8c-0.1,1.3-0.3,2.6-0.5,5
			c-2.8-3.9-4.8-7.3-7.3-10.2c-3.2-3.8-6.5-7.6-10.4-10.7c-1.8-1.4-5.4-2.2-7.2-1.3c-1.8,0.9-3.5,4.3-3.4,6.5
			c0.4,8.8,1.4,17.5,2.3,26.3c0.1,1.5,0.4,3,0.5,4.4C493,630.8,509.9,630.8,526.9,630.8z"/>
		<path class="st6" d="M685.1,403c-0.5,0.4-2.7,2.1-6,1.8c-3.9-0.4-5.9-3.5-6.1-3.9l0,0c-0.7-0.3-1.4-0.7-2-1l0,0
			c-0.3-0.7-0.7-1.4-1-2c0,0,0,0,0,0c-1-1.2-2.4-3.2-3.3-5.9c-1.5-4.6-0.8-8.5-0.4-10.3c0.2-0.2,0.4-0.3,0.7-0.5
			c-0.5,1.8-0.9,3.7-1.7,5.4c-0.4,0.9-1.5,2.2-2,2.1c-1-0.2-2-1.1-2.6-2.1c-1.6-2.6-2.9-5.4-4.4-8c-0.3-0.3-0.7-0.7-1-1
			c-0.3-0.3-0.7-0.7-1-1c-0.5-0.5-1-1.1-1.5-1.6c-0.2,0.2-0.4,0.4-0.6,0.5c0.5,0.5,1.1,1,1.7,1.5c0.3,0.3,0.7,0.7,1,1
			c0.3,0.3,0.7,0.7,1,1c4.5,6.4,3.3,13.1,1.1,19.9l0,0c-1.7,1.3-3.4,2.7-5,4l0,0c-6,2.9-12,1.8-18,0l0,0c-0.4-0.8-0.7-1.8-1.3-2.5
			c-5-5.8-5.6-8.1-4.8-18.1c-0.8,2.5-1.6,5-2.4,7.8c-3.3,0.2-6.8,0.5-10.4,0.7c-0.6-3.8-1.3-7.5-1.9-11.3
			c-1.6-11.7,6.8-23.2,18.6-23.7c17.3-0.8,34.6-0.4,51.9-0.5c0.2,4.9,0.4,9.8,0.7,14.7C684.6,373.9,684.8,382.7,685.1,403z
			 M668.6,379.8c0.2-0.2,0.4-0.5,0.6-0.7c0.1-0.3,0.2-0.6,0.3-1c-0.2,0.2-0.4,0.4-0.6,0.6C668.7,379.1,668.7,379.5,668.6,379.8z
			 M670.4,376.5c0.2-0.2,0.4-0.3,0.6-0.5c0.2-0.1,0.5-0.2,0.7-0.3c-0.3,0.1-0.5,0.2-0.7,0.3C670.8,376.2,670.6,376.3,670.4,376.5z
			 M650.2,374.5c-3.5-2.2-7.2-3.4-11.5-0.9C642.8,373.9,646.5,374.2,650.2,374.5z M636.2,374.9c0.1,0,0-0.2,0-0.3
			c-0.2,0.1-0.5,0.1-0.7,0.2c0,0,0,0.3,0,0.4C635.8,375,636,375,636.2,374.9z M673.7,374.8c0.3,0,0.5-0.2,0.8-0.3
			c-0.1-0.1-0.2-0.3-0.3-0.3c-0.3,0-0.5,0.2-0.8,0.3C673.5,374.6,673.7,374.8,673.7,374.8z M629.6,380.7l0-0.3l-0.3,0.2L629.6,380.7
			z"/>
		<path class="st3" d="M526.9,630.8c-17,0-33.9,0-50.9,0c-1.5,0.1-2.9,0.3-5.8,0.5c0.7,8.5,0.6,16.9,2.3,24.8
			c2.2,10.3,9.3,16.6,19.8,18.7c0.9,0.2,1.7,0.7,2.5,1c3.7,0,7.3,0,11,0.1c0.7-0.4,1.3-1,2-1.1c21.7-3.3,29.1-18.3,27.8-37.5
			c-0.1-2-0.6-3.9-1-6.3C532.1,631,529.5,630.9,526.9,630.8z"/>
		<path class="st1" d="M615.1,390.9c-0.6-3.8-1.3-7.5-1.9-11.3c-1.6-11.7,6.8-23.2,18.6-23.7c17.3-0.8,34.6-0.4,51.9-0.5
			c-2.4-3.3-4.2-7.1-7.2-9.7c-14.1-12.1-30.4-12.9-47.5-8.3c-2.6,0.7-5,1.7-7.5,2.7c-15.6,5.9-23.8,16.9-23.4,33.9
			c0.1,3.8,0.3,7.6,0.4,11.5c8.1-1.1,9.3-0.2,9.4,7.5c0.1,6.2,0.1,6.2,7.9,6.5c0-2.1,0-4.2,0-6.3
			C615.6,392.3,615.4,391.6,615.1,390.9z"/>
		<path class="st7" d="M1106.6,701.1c-24.4,0-48.7,0-73.1,0c1.6,5.3,3.1,10.6,4.7,15.9c16.8,0.3,33.6,0.6,50.3,1
			c6.8,0.2,13.6,0.6,20.4,1C1108.1,713,1107.3,707.1,1106.6,701.1z"/>
		<path class="st7" d="M529.3,701.1c-23.6,0-47.2,0-70.8,0c-0.3,5-0.5,10-0.8,14.9c22.8,0.7,45.6,1.3,68.4,2c0.7-2.7,1.3-5.3,2-8
			C528.5,707.1,528.9,704.1,529.3,701.1z"/>
		<path class="st4" d="M644,475c-0.3-2.1-0.7-4.2-0.8-6.4c-0.8-8-0.7-8-8.7-9.5c-7.4-1.4-14.9-2.9-22.3-4.3
			c-1.8,3.5-3.5,6.9-5.3,10.4c-1,2.4-1.9,4.7-2.9,7c1.3,1.2,2.4,3.2,3.8,3.4c10.8,1.3,21.6,2.3,32.4,3.4
			C643.4,479.4,644.3,477.8,644,475z"/>
		<path class="st0" d="M684.4,370c0.2,11,0.4,22,0.7,33.1c0.6,0.1,4,1,7.2-1.1c2.7-1.7,3.5-4.3,3.7-5L696,397
			c3.6-6.4,2.7-12.7,0-19.1l0.1,0.1c0-1.1,0-2.2,0-3.3c-0.3-0.8-1.1-2.9-3.4-4.3C689,368,684.8,369.8,684.4,370z"/>
		<path class="st4" d="M662.6,458.8c-11.5,0.9-11.5,0.9-11.5,12c0,1.5-0.1,3-0.1,4.4c-0.4,3.6,1.4,4.1,4.5,3.4
			c3.5-0.8,7-1.3,10.5-1.9C664.9,470.9,663.7,464.9,662.6,458.8z"/>
		<path class="st8" d="M663.3,448.1c-8.3-2-16.5-4-24.6-5.9c0.7,5.9,11.2,10.8,24.2,10.8C663,451.4,663.1,449.7,663.3,448.1z"/>
		<path class="st1" d="M610,423.5c-1.1-6-1.9-12.1-3.6-17.9c-0.4-1.3-3.8-1.8-5.7-2.6C601.8,410.8,605.1,417.5,610,423.5z"/>
		<path class="st1" d="M696,377.9c2.7,6.4,3.6,12.7,0,19.1C701.1,392.9,701.1,384.6,696,377.9z"/>
		<path class="st9" d="M694.1,375.7c0.6,0.8,1.3,1.5,1.9,2.3C696,377.6,694.3,375.7,694.1,375.7z"/>
		<path class="st10" d="M1262.1,979.1c-0.4-0.4-0.8-0.8-1.1-1.2C1261.3,978.4,1261.7,978.8,1262.1,979.1z"/>
		<path class="st7" d="M747,1020c10.8,7.8,21.6,15.6,32.5,23.3c2.9,2.1,6.2,3.5,10.1,4.5c-4.8-12.3-14.2-21.1-22.1-31.3
			c4.2-5.4,8.2-10.6,12.5-16c2.9,1.5,5.5,2.9,8.5,4.5c0.9-1.5,1.9-3,2.7-4.6c15.2-27.5,30.3-55.1,45.6-82.7c0.8-1.5,2.1-2.9,3.2-4.3
			c0-0.3,0.1-0.7,0.1-1c0.3-30.4,1.1-60.8,0.9-91.2c-0.1-14-1.7-28-2.9-42c-0.5-6.3-3.1-8.3-9.4-8.3c-2.7,0-5.3,0.1-8,0.2
			c-0.5,1.5-0.9,3.2-1.6,4.6c-16.7,35.2-33.3,70.3-50,105.5c-12,25.2-24.1,50.4-36.1,75.6C737.5,978,742.3,999,747,1020z"/>
		<path class="st2" d="M530,723.6c2.7,27.2,5.8,54.3,14.9,80.3c0.9,2.6,2,5.1,4,7.3c-1.1-4.4-2.6-8.7-3.3-13.1
			c-3-17.1-6.1-34.1-8.5-51.3c-2.1-15-3.4-30.2-5-45.3c18.3,0,36.6-0.1,55-0.1c0.3,0,0.6,0.1,0.9,0.1c0.2,0,0.5-0.1,0.7-0.2
			c-3.5,13.6-6.3,27.3-4.5,41.3c3.5,27.1,14.6,49.5,40.9,61.6c-2.4,0.3-4.8,0.7-7.3,0.8c-20.4,0.3-40.5,3.1-60.3,8.1
			c-0.9,0.2-1.7,0.8-2.3,2.2c6.4-0.5,12.7-0.9,19.1-1.5c9-0.8,18-2,27.1-2.7c15.7-1.2,31.4-2,47-3.2c1-0.1,1.8-1.4,2.7-2.1
			c11.6-0.5,23.2-1.3,34.8-1.5c21.8-0.4,43.6-0.1,65.1,3.9c5.6,1,11.2,2.1,13.1,8.9c1.5,5.2,0.3,8.2-5,9.3
			c-6.3,1.3-12.8,2.2-19.2,2.5c-12,0.6-23.9,0.7-35.9,1c-9.3-0.2-18.7-0.5-28-0.7c-12.3-0.6-24.5-1.2-36.8-1.8
			c-8.4-0.3-16.8-0.7-25.2-1c-14-0.4-27.9-0.8-41.8-1.3c-8.7,0-17.4,0.1-26.1,0.1c-2.7,0.1-5.3,0-7.9,0.4c-8.9,1.2-9.6,0.8-12.9-7.5
			c-0.5-1.2-0.9-2.5-1.2-3.8c-2.9-13.4-5.7-26.9-8.6-40.3c0.1-0.7,0.1-1.3,0.2-2c3.5-18,7.1-36,10.6-54c0.7-2.7,1.3-5.3,2-8
			C528.7,714.5,529.5,719.1,530,723.6z M549.3,813.8c0,0.1,0.1,0.3,0.1,0.4c0.1,0,0.3-0.1,0.3-0.1c0-0.1-0.1-0.3-0.1-0.4
			C549.5,813.8,549.3,813.8,549.3,813.8z"/>
		<path class="st0" d="M651,805.8c11.6-0.5,23.2-1.3,34.8-1.5c21.8-0.4,43.6-0.1,65.1,3.9c5.6,1,11.2,2.1,13.1,8.9
			c1.5,5.2,0.3,8.2-5,9.3c-6.3,1.3-12.8,2.2-19.2,2.5c-12,0.6-23.9,0.7-35.9,1c4.4,19.7,8.8,39.4,13.2,59
			c5,22.4,10.1,44.8,15.1,67.2c0.1,0.3,0.4,0.5,0.6,0.8c12-25.2,24.1-50.4,36.1-75.6c16.7-35.2,33.4-70.3,50-105.5
			c0.7-1.5,1.1-3.1,1.6-4.6c-56.9,7.3-112.5,21.8-168.8,32.3c-2.2,0.4-4.3,1.5-6.4,2.3c0.8,0,1.6,0,2.4,0c0.8,0,1.7,0,2.5,0
			C650.5,805.7,650.8,805.7,651,805.8z"/>
		<path class="st8" d="M747,701.9c-8.7-0.2-17.3-0.4-26-0.6c-2.8,7.8-5.6,15.7-8.4,23.5c13,7.8,25.3,17.1,40.9,19.5
			c-3.1-7.4-11.5-7.5-16.3-12.4c0.2-0.5,0.4-1,0.6-1.5c9.6,3.1,19.1,6.3,28.7,9.4c0.4-0.7,0.8-1.4,1.3-2.1c-1.4-1.5-2.6-3.6-4.3-4.5
			c-6-2.8-12.3-5.1-18.4-7.6c-1.5-0.6-2.9-1.5-4.3-2.2c0.2-0.5,0.4-1,0.6-1.5c1.8,0.5,3.6,1,5.3,1.5c6.7,2,13.4,4,20.1,5.9
			c1,0.3,2,0.7,2.9,0.5c2.1-0.5,4-1.4,6-2.2c-1.6-1.2-3-2.8-4.8-3.5c-7.1-2.7-14.4-5.1-21.6-7.8c-1.6-0.6-3.1-1.7-4.6-2.6
			c0.1-0.5,0.1-0.9,0.2-1.4c1.6,0,3.3-0.3,4.9,0c5.2,1.1,10.3,2.5,15.5,3.7c1.8,0.4,3.6,1,5.3,0.9c1.3-0.1,2.5-1.1,3.7-1.7
			c-0.8-1.1-1.4-2.8-2.5-3.3c-6.4-2.8-12.9-5.4-19.4-8C750.7,703.3,748.8,702.6,747,701.9z"/>
		<path class="st5" d="M712.6,724.8c2.8-7.8,5.6-15.7,8.4-23.5c-17,0-34,0-50.9,0.1c2.3,2.2,4.6,4.3,7,6.5c1.8,0.8,3.8,1.3,5.4,2.3
			c8.6,5.1,17.2,10.3,25.7,15.5C710,726.8,711.6,727.7,712.6,724.8z"/>
		<path class="st11" d="M651,805.8c-0.3-0.1-0.5-0.1-0.7,0.1c-0.8,0-1.7,0-2.5,0c-0.8,0-1.6,0-2.4,0c-4.7-0.3-9.4-0.7-14.2-1
			c-2.1-0.2-4.2-0.4-6.3-0.6c-2.4,0.3-4.8,0.7-7.3,0.8c-20.4,0.3-40.5,3.1-60.3,8.1c-0.9,0.2-1.7,0.8-2.3,2.2
			c6.4-0.5,12.7-0.9,19.1-1.5c9-0.8,18-2,27.1-2.7c15.7-1.2,31.4-2,47-3.2C649.3,807.8,650.1,806.5,651,805.8z"/>
		<path class="st12" d="M677,707.9c-2.3-2.2-4.6-4.3-7-6.5c-16.2,0-32.3-0.1-48.5-0.1c13.9,2.2,27.7,4.6,41.6,6.5
			C667.7,708.5,672.4,707.9,677,707.9z"/>
		<path class="st0" d="M613.9,826.4c-14-0.4-27.9-0.8-41.8-1.3c-3.4,12-6.7,23.9-10.2,35.8c-5.5,18.6-11.1,37.2-16.6,55.8
			c-0.1,0.5,0,1,0,2.6c23.4,1.3,46.7,2.5,70.1,3.8C614.8,890.4,614.4,858.4,613.9,826.4z"/>
		<path class="st0" d="M675.9,829.2c-12.3-0.6-24.5-1.2-36.8-1.8c-0.7,20.6-1.4,41.2-2.1,61.7c-0.3,10.1-0.6,20.3-1.1,30.4
			c-0.2,3.5,1.1,4.4,4.5,4.6c18.4,0.8,36.8,1.9,55.1,3c2.9,0.2,5.8,0.7,9.4,1.2c-2.7-9.1-5.1-17.3-7.6-25.5
			c-6.9-22.7-13.8-45.4-20.6-68.1C676.3,832.8,676.2,831,675.9,829.2z"/>
		<path class="st7" d="M724,994.1c-1,1.5-2,3-3.4,5c2.4,1.8,4.8,3.7,7.2,5.6C726.6,1001.2,725.3,997.6,724,994.1z"/>
		<path class="st0" d="M789.9,676c0.2-7,0.2-6.9,7.3-7c13.6-0.3,27.2-0.6,40.7-1c10.4-0.3,20.8-0.7,31.3-1c8.4-0.2,10-1.6,10.8-9.9
			c-14.1,0-28.3,0.7-42.4-0.2c-20.3-1.4-40.5-3.5-60.6-6.1c-13.3-1.7-24.1-9.1-33.3-18.6c-11.9-12.3-23.2-25-34.8-37.6
			c-0.9-1-2-1.7-3-2.6c0,2.3,0,4.7,0,7c2.7,12.7,5,25.5,8.3,38.1c3.4,13.1,7.8,25.9,11.7,38.9C747.3,676,768.6,676,789.9,676z"/>
		<path class="st13" d="M569.1,540c1.4,13.2,2.4,26.4,4.2,39.6c2.7,19.7,5.8,39.3,8.8,59c0.1,0.5,0.3,0.9,0.5,1.4
			c2.1,3.5,4.3,7,6.4,10.5c6.2,10.2,15.1,17.9,24,25.5c5.7,0,11.4-0.1,17-0.1c-4-3.6-7.9-7.3-12-10.8c-9.6-8-19.7-15.8-25.4-27.1
			c-4.3-8.5-7.5-17.8-9.3-27.2c-3.5-17.5-5.6-35.3-8.4-52.9C574,551.6,574.7,544.8,569.1,540z"/>
		<path class="st13" d="M707,676c1,0,2-0.1,3-0.1c-6.3-5.3-12.6-10.6-18.9-15.8c-11.8-9.7-24.3-18.6-35.3-29.1
			c-17.2-16.2-25.9-37.3-29.7-60.2c-2.7-16.5-4.2-33.2-6.2-49.7c-0.1-0.5-0.3-0.9-0.5-1.4c-0.5,0-0.9,0-1.4-0.1
			c0,4.9-0.2,9.8,0,14.6c0.4,7.6,1.2,15.2,1.8,22.8c2,22.8,7.6,44.6,20.9,63.6c9.5,13.6,22.1,24.2,35.7,33.8
			C686.8,661.5,696.8,668.8,707,676z"/>
		<path class="st13" d="M706,599c0-2.3,0-4.7,0-7c-1-6.8-2.1-13.7-3-20.5c-1-7.8-1.9-15.6-3.5-23.3C700.5,565.3,700.5,582.5,706,599
			z"/>
		<path class="st11" d="M528.1,710c0.6,4.5,1.4,9,1.9,13.6c2.7,27.2,5.8,54.3,14.9,80.3c0.9,2.6,2,5.1,4,7.3
			c-1.1-4.4-2.6-8.7-3.3-13.1c-3-17.1-6.1-34.1-8.5-51.3c-2.1-15-3.4-30.2-5-45.3c-0.9-0.1-1.9-0.2-2.8-0.3
			C528.9,704.1,528.5,707.1,528.1,710z"/>
		<path class="st5" d="M613,676c-8.9-7.6-17.8-15.3-24-25.5c-2.1-3.5-4.3-7-6.4-10.5c1.9,12,3.9,24,5.8,35.9
			C596.6,676,604.8,676,613,676z"/>
		<path class="st11" d="M587,701.3c0.3,0,0.6,0.1,0.9,0.1C587.7,701.2,587.4,701.2,587,701.3z"/>
		<path class="st5" d="M956,607.9c0,5.6,2.8,9.2,7.5,9.2c5.1,0,9.3-4.8,9.5-10.8c0.1-5-3.6-10-7.7-10.2
			C960.8,595.8,956,601.9,956,607.9z"/>
		<path class="st11" d="M558.3,591.3c2.1,1.9,3.3,3,4.5,4c0.4-0.2,0.9-0.4,1.3-0.6c-0.9-1.9-1.4-4.8-2.9-5.3c-2.1-0.8-6.1-0.8-7,0.5
			c-1.8,2.6-3.4,6.7-2.6,9.4c1,3,4.4,5.6,7.4,7.3c1.3,0.7,4.7-1.2,6.2-2.8c1.2-1.4,1-4.1,1.6-6.8c-3.2,2.2-5,4-7.2,4.6
			c-0.8,0.2-3.1-2.6-3.4-4.2C556,595.7,557.4,593.7,558.3,591.3z"/>
		<path class="st11" d="M523,537.8c1-0.2,2.1-0.4,3.1-0.7c2.6-12.2,5.2-24.3,7.8-36.5C528,512.3,523.1,524.3,523,537.8z"/>
		<path class="st1" d="M670,398c-1-1.5-2.4-3.9-3.2-7.1c-1-3.9-0.8-7.2-0.5-9.1c0.2-0.2,0.4-0.3,0.7-0.5c-0.5,1.8-0.9,3.7-1.7,5.4
			c-0.4,0.9-1.5,2.2-2,2.1c-1-0.2-2-1.1-2.6-2.1c-1.6-2.6-2.9-5.4-4.4-8c-0.2,0.1-0.3,0.3-0.5,0.4c4.5,6.4,3.3,13.1,1.1,19.9
			c1-1.8,2-3.6,3.2-5.2c0.8-1.1,2-2.4,3.3-2.7c0.8-0.2,2,1.4,2.8,2.4C667.6,394.9,668.8,396.5,670,398z"/>
		<path class="st1" d="M615.1,390.9c0.3,0.7,0.5,1.4,0.8,2.1c1.8-0.3,3.5-0.6,5.3-0.9c3.2-0.5,5.3,0.2,6.6,3.9c1,2.7,4,4.7,6.2,7
			c-0.4-0.8-0.7-1.8-1.3-2.5c-5-5.8-5.6-8.1-4.8-18.1c-0.8,2.5-1.6,5-2.4,7.8C622.2,390.4,618.7,390.6,615.1,390.9z"/>
		<path class="st1" d="M652,403c-6,2.9-12,1.8-18,0C639.6,408,648.2,408,652,403z"/>
		<path class="st9" d="M657,399c-1.7,1.3-3.4,2.7-5,4C653.7,401.7,655.3,400.3,657,399z"/>
		<path class="st9" d="M673,401c-0.7-0.3-1.4-0.7-2-1C671.7,400.3,672.3,400.7,673,401z"/>
		<path class="st9" d="M671,400c-0.3-0.7-0.7-1.4-1-2C670.3,398.7,670.7,399.3,671,400z"/>
		<path class="st1" d="M638.7,373.5c4.1,0.3,7.8,0.6,11.5,0.9C646.7,372.3,643,371,638.7,373.5z"/>
		<path class="st9" d="M654.3,376.7c-0.5-0.5-1-1.1-1.5-1.6c-0.2,0.2-0.4,0.4-0.6,0.5c0.5,0.5,1.1,1,1.7,1.5
			C654,377,654.2,376.8,654.3,376.7z"/>
		<path class="st9" d="M635.5,375.1c0.2-0.1,0.5-0.1,0.7-0.3c0.1,0,0-0.2,0-0.3c-0.2,0.1-0.5,0.1-0.7,0.2
			C635.5,374.7,635.5,375,635.5,375.1z"/>
		<path class="st9" d="M673.4,374.5c0.1,0.1,0.3,0.3,0.3,0.3c0.3,0,0.5-0.2,0.8-0.3c-0.1-0.1-0.2-0.3-0.3-0.3
			C673.9,374.3,673.7,374.4,673.4,374.5z"/>
		<path class="st9" d="M655.3,377.7c-0.3-0.3-0.7-0.7-1-1c-0.1,0.1-0.3,0.3-0.4,0.4c0.3,0.3,0.7,0.7,1,1
			C655,378,655.2,377.8,655.3,377.7z"/>
		<path class="st9" d="M671,376c-0.2,0.2-0.4,0.3-0.6,0.5C670.6,376.3,670.8,376.2,671,376L671,376z"/>
		<path class="st9" d="M671,376c0.2-0.1,0.5-0.2,0.7-0.3C671.5,375.8,671.2,375.9,671,376L671,376z"/>
		<polygon class="st9" points="629.3,380.5 629.6,380.7 629.6,380.4 		"/>
		<path class="st9" d="M668.8,378.8c-0.1,0.3-0.2,0.7-0.3,1c0.2-0.2,0.4-0.5,0.6-0.7L668.8,378.8z"/>
		<path class="st9" d="M654.9,378.1c0.3,0.3,0.7,0.7,1,1c0.2-0.1,0.3-0.3,0.5-0.4c-0.3-0.3-0.7-0.7-1-1
			C655.2,377.8,655,378,654.9,378.1z"/>
		<path class="st9" d="M669.1,379.1c0.1-0.3,0.2-0.6,0.3-1c-0.2,0.2-0.4,0.4-0.6,0.6L669.1,379.1z"/>
		<path class="st11" d="M549.6,813.7c-0.1,0-0.3,0.1-0.3,0.1c0,0.1,0.1,0.3,0.1,0.4c0.1,0,0.3-0.1,0.3-0.1
			C549.7,814,549.7,813.9,549.6,813.7z"/>
		<path class="st10" d="M647.8,805.9c0.8,0,1.7,0,2.5,0C649.5,805.9,648.6,805.9,647.8,805.9z"/>
	</g>
</g>
<path class="st1" d="M626.2,389.3c0,9.6,7.8,17.4,17.4,17.4s17.4-7.8,17.4-17.4s-7.8-17.4-17.4-17.4S626.2,379.7,626.2,389.3z
	 M628.3,389.3c0-8.5,6.9-15.3,15.3-15.3c8.5,0,15.3,6.9,15.3,15.3s-6.9,15.3-15.3,15.3C635.2,404.7,628.3,397.8,628.3,389.3z"/>
<path class="st1" d="M665.1,388c0,9.6,7.8,17.4,17.4,17.4s17.4-7.8,17.4-17.4s-7.8-17.4-17.4-17.4S665.1,378.4,665.1,388z
	 M667.1,388c0-8.5,6.9-15.3,15.3-15.3c8.5,0,15.3,6.9,15.3,15.3s-6.9,15.3-15.3,15.3S667.1,396.5,667.1,388z"/>
</svg>
